<svg width="17" height="15" viewBox="0 0 17 15" fill="none" xmlns="http://www.w3.org/2000/svg">
<path d="M7.15409 4.09583C6.84534 4.40458 6.84534 4.89542 7.15409 5.20417L8.65825 6.70833H1.37492C0.939502 6.70833 0.583252 7.06458 0.583252 7.5C0.583252 7.93542 0.939502 8.29167 1.37492 8.29167H8.65825L7.15409 9.79583C6.84534 10.1046 6.84534 10.5954 7.15409 10.9042C7.46284 11.2129 7.95367 11.2129 8.26242 10.9042L11.1045 8.06208C11.4133 7.75333 11.4133 7.25458 11.1045 6.94583L8.26242 4.09583C7.95367 3.78708 7.46284 3.78708 7.15409 4.09583ZM14.8333 13.0417H9.29158C8.85617 13.0417 8.49992 13.3979 8.49992 13.8333C8.49992 14.2688 8.85617 14.625 9.29158 14.625H14.8333C15.7041 14.625 16.4166 13.9125 16.4166 13.0417V1.95833C16.4166 1.0875 15.7041 0.375 14.8333 0.375H9.29158C8.85617 0.375 8.49992 0.73125 8.49992 1.16667C8.49992 1.60208 8.85617 1.95833 9.29158 1.95833H14.8333V13.0417Z" fill="#4B475C"/>
</svg>
