<svg width="24" height="24" viewBox="0 0 24 24" fill="none" xmlns="http://www.w3.org/2000/svg">
<g clip-path="url(#clip0_3352_7989)">
<path d="M9 10.25H5C4.31421 10.25 3.75 9.68579 3.75 9V5C3.75 4.31421 4.31421 3.75 5 3.75H9C9.68579 3.75 10.25 4.31421 10.25 5V9C10.25 9.68579 9.68579 10.25 9 10.25Z" stroke="#717171" stroke-width="1.5"/>
<path d="M9 20.25H5C4.31421 20.25 3.75 19.6858 3.75 19V15C3.75 14.3142 4.31421 13.75 5 13.75H9C9.68579 13.75 10.25 14.3142 10.25 15V19C10.25 19.6858 9.68579 20.25 9 20.25Z" stroke="#717171" stroke-width="1.5"/>
<path d="M13.75 9V5C13.75 4.31421 14.3142 3.75 15 3.75H19C19.6858 3.75 20.25 4.31421 20.25 5V9C20.25 9.68579 19.6858 10.25 19 10.25H15C14.3142 10.25 13.75 9.68579 13.75 9Z" stroke="#717171" stroke-width="1.5"/>
<path d="M19 20.25H15C14.3142 20.25 13.75 19.6858 13.75 19V15C13.75 14.3142 14.3142 13.75 15 13.75H19C19.6858 13.75 20.25 14.3142 20.25 15V19C20.25 19.6858 19.6858 20.25 19 20.25Z" stroke="#717171" stroke-width="1.5"/>
</g>
<defs>
<clipPath id="clip0_3352_7989">
<rect width="24" height="24" fill="white"/>
</clipPath>
</defs>
</svg>
