<svg width="24" height="24" viewBox="0 0 24 24" fill="none" xmlns="http://www.w3.org/2000/svg">
<g clip-path="url(#clip0_3352_8003)">
<path d="M5 13.75H19C19.6858 13.75 20.25 14.3142 20.25 15V19C20.25 19.6858 19.6858 20.25 19 20.25H5C4.31421 20.25 3.75 19.6858 3.75 19V15C3.75 14.3142 4.31421 13.75 5 13.75ZM4.25 17C4.25 18.5142 5.48579 19.75 7 19.75C8.51421 19.75 9.75 18.5142 9.75 17C9.75 15.4858 8.51421 14.25 7 14.25C5.48579 14.25 4.25 15.4858 4.25 17ZM5 3.75H19C19.6858 3.75 20.25 4.31421 20.25 5V9C20.25 9.68579 19.6858 10.25 19 10.25H5C4.31421 10.25 3.75 9.68579 3.75 9V5C3.75 4.31421 4.31421 3.75 5 3.75ZM4.25 7C4.25 8.51421 5.48579 9.75 7 9.75C8.51421 9.75 9.75 8.51421 9.75 7C9.75 5.48579 8.51421 4.25 7 4.25C5.48579 4.25 4.25 5.48579 4.25 7Z" stroke="#717171" stroke-width="1.5"/>
</g>
<defs>
<clipPath id="clip0_3352_8003">
<rect width="24" height="24" fill="white"/>
</clipPath>
</defs>
</svg>
