<svg width="231" height="50" viewBox="0 0 231 50" fill="none" xmlns="http://www.w3.org/2000/svg">
<rect width="231" height="50" rx="6" fill="#2D3748"/>
<mask id="mask0_319_2928" style="mask-type:alpha" maskUnits="userSpaceOnUse" x="0" y="0" width="231" height="50">
<rect width="231" height="50" rx="6" fill="#4FD1C5"/>
</mask>
<g mask="url(#mask0_319_2928)">
<g opacity="0.2">
<path d="M421.234 50.0774C421.234 57.4029 416.134 64.4884 406.649 71.02C397.18 77.541 383.445 83.4334 366.428 88.39C332.4 98.3013 285.362 104.439 233.384 104.439C181.406 104.439 134.368 98.3013 100.341 88.39C83.3235 83.4334 69.5887 77.541 60.1195 71.02C50.6347 64.4884 45.5344 57.4029 45.5344 50.0774C45.5344 42.7519 50.6347 35.6665 60.1195 29.1348C69.5887 22.6139 83.3235 16.7214 100.341 11.7648C134.368 1.85349 181.406 -4.28369 233.384 -4.28369C285.362 -4.28369 332.4 1.85349 366.428 11.7648C383.445 16.7214 397.18 22.6139 406.649 29.1348C416.134 35.6665 421.234 42.7519 421.234 50.0774Z" stroke="white" stroke-opacity="0.45"/>
<path d="M395.77 50.0768C395.77 56.3782 391.382 62.4881 383.186 68.1323C375.005 73.7659 363.135 78.8592 348.422 83.1447C319.002 91.7138 278.33 97.0208 233.384 97.0208C188.438 97.0208 147.766 91.7138 118.347 83.1447C103.634 78.8592 91.7635 73.7659 83.5829 68.1323C75.3867 62.4881 70.999 56.3782 70.999 50.0768C70.999 43.7754 75.3867 37.6656 83.5829 32.0213C91.7635 26.3877 103.634 21.2944 118.347 17.0089C147.766 8.43981 188.438 3.13281 233.384 3.13281C278.33 3.13281 319.002 8.43981 348.422 17.0089C363.135 21.2944 375.005 26.3877 383.186 32.0213C391.382 37.6656 395.77 43.7754 395.77 50.0768Z" stroke="white" stroke-opacity="0.45"/>
<path d="M366.793 50.0771C366.793 55.2131 363.216 60.2128 356.486 64.8473C349.771 69.4711 340.023 73.6551 327.932 77.1769C303.756 84.2186 270.328 88.5809 233.384 88.5809C196.44 88.5809 163.012 84.2186 138.836 77.1769C126.745 73.6551 116.997 69.4711 110.283 64.8473C103.553 60.2128 99.9758 55.2131 99.9758 50.0771C99.9758 44.941 103.553 39.9413 110.283 35.3068C116.997 30.683 126.745 26.4991 138.836 22.9772C163.012 15.9355 196.44 11.5732 233.384 11.5732C270.328 11.5732 303.756 15.9355 327.932 22.9772C340.023 26.4991 349.771 30.683 356.486 35.3068C363.216 39.9413 366.793 44.941 366.793 50.0771Z" stroke="white" stroke-opacity="0.45"/>
<path d="M337.816 50.0768C337.816 54.0476 335.05 57.937 329.786 61.5618C324.538 65.1758 316.912 68.4504 307.442 71.2085C288.51 76.7229 262.327 80.1405 233.384 80.1405C204.442 80.1405 178.258 76.7229 159.326 71.2085C149.857 68.4504 142.23 65.1758 136.982 61.5618C131.719 57.937 128.953 54.0476 128.953 50.0768C128.953 46.1061 131.719 42.2166 136.982 38.5919C142.23 34.9779 149.857 31.7033 159.326 28.9451C178.258 23.4308 204.442 20.0132 233.384 20.0132C262.327 20.0132 288.51 23.4308 307.442 28.9451C316.912 31.7033 324.538 34.9779 329.786 38.5919C335.05 42.2166 337.816 46.1061 337.816 50.0768Z" stroke="white" stroke-opacity="0.45"/>
<path d="M309.717 50.077C309.717 52.9177 307.737 55.7306 303.895 58.3762C300.069 61.011 294.5 63.4039 287.573 65.4215C273.726 69.4547 254.567 71.9562 233.384 71.9562C212.201 71.9562 193.042 69.4547 179.195 65.4215C172.268 63.4039 166.699 61.011 162.873 58.3762C159.031 55.7306 157.051 52.9177 157.051 50.077C157.051 47.2363 159.031 44.4234 162.873 41.7778C166.699 39.143 172.268 36.7501 179.195 34.7325C193.042 30.6993 212.201 28.1978 233.384 28.1978C254.567 28.1978 273.726 30.6993 287.573 34.7325C294.5 36.7501 300.069 39.143 303.895 41.7778C307.737 44.4234 309.717 47.2363 309.717 50.077Z" stroke="white" stroke-opacity="0.45"/>
<path d="M284.252 50.0769C284.252 51.8935 282.985 53.7308 280.432 55.489C277.894 57.2365 274.19 58.8302 269.567 60.1766C260.328 62.8677 247.536 64.539 233.384 64.539C219.233 64.539 206.44 62.8677 197.201 60.1766C192.579 58.8302 188.874 57.2365 186.336 55.489C183.783 53.7308 182.516 51.8935 182.516 50.0769C182.516 48.2603 183.783 46.4229 186.336 44.6647C188.874 42.9173 192.579 41.3236 197.201 39.9771C206.44 37.2861 219.233 35.6147 233.384 35.6147C247.536 35.6147 260.328 37.2861 269.567 39.9771C274.19 41.3236 277.894 42.9173 280.432 44.6647C282.985 46.4229 284.252 48.2603 284.252 50.0769Z" stroke="white" stroke-opacity="0.45"/>
<path d="M263.879 50.0771C263.879 51.0743 263.182 52.1311 261.659 53.1793C260.153 54.2168 257.94 55.1711 255.161 55.9806C249.609 57.5978 241.91 58.6049 233.384 58.6049C224.859 58.6049 217.16 57.5978 211.608 55.9806C208.829 55.1711 206.616 54.2168 205.109 53.1793C203.587 52.1311 202.89 51.0743 202.89 50.0771C202.89 49.0799 203.587 48.0231 205.109 46.9749C206.616 45.9374 208.829 44.9831 211.608 44.1735C217.16 42.5564 224.859 41.5493 233.384 41.5493C241.91 41.5493 249.609 42.5564 255.161 44.1735C257.94 44.9831 260.153 45.9374 261.659 46.9749C263.182 48.0231 263.879 49.0799 263.879 50.0771Z" stroke="white" stroke-opacity="0.45"/>
</g>
</g>
</svg>
