<svg width="231" height="162" viewBox="0 0 231 162" fill="none" xmlns="http://www.w3.org/2000/svg">
<rect width="231" height="162" rx="15" fill="#2D3748"/>
<mask id="mask0_133_7007" style="mask-type:alpha" maskUnits="userSpaceOnUse" x="0" y="0" width="231" height="162">
<rect width="231" height="162" rx="15" fill="#4FD1C5"/>
</mask>
<g mask="url(#mask0_133_7007)">
<g opacity="0.2">
<path d="M421.234 162.25C421.234 260.116 337.158 339.5 233.384 339.5C129.61 339.5 45.5344 260.116 45.5344 162.25C45.5344 64.3844 129.61 -15 233.384 -15C337.158 -15 421.234 64.3844 421.234 162.25Z" stroke="white" stroke-opacity="0.45"/>
<path d="M395.77 162.25C395.77 246.843 323.095 315.468 233.384 315.468C143.674 315.468 70.999 246.843 70.999 162.25C70.999 77.6564 143.674 9.03125 233.384 9.03125C323.095 9.03125 395.77 77.6564 395.77 162.25Z" stroke="white" stroke-opacity="0.45"/>
<path d="M366.793 162.25C366.793 231.741 307.091 288.123 233.384 288.123C159.677 288.123 99.976 231.741 99.976 162.25C99.976 92.7598 159.677 36.3779 233.384 36.3779C307.091 36.3779 366.793 92.7598 366.793 162.25Z" stroke="white" stroke-opacity="0.45"/>
<path d="M337.816 162.25C337.816 216.637 291.088 260.776 233.384 260.776C175.681 260.776 128.953 216.637 128.953 162.25C128.953 107.862 175.681 63.7236 233.384 63.7236C291.088 63.7236 337.816 107.862 337.816 162.25Z" stroke="white" stroke-opacity="0.45"/>
<path d="M309.717 162.25C309.717 201.992 275.569 234.259 233.384 234.259C191.199 234.259 157.051 201.992 157.051 162.25C157.051 122.508 191.199 90.2412 233.384 90.2412C275.569 90.2412 309.717 122.508 309.717 162.25Z" stroke="white" stroke-opacity="0.45"/>
<path d="M284.252 162.25C284.252 188.72 261.506 210.227 233.384 210.227C205.263 210.227 182.516 188.72 182.516 162.25C182.516 135.78 205.263 114.272 233.384 114.272C261.506 114.272 284.252 135.78 284.252 162.25Z" stroke="white" stroke-opacity="0.45"/>
<path d="M263.879 162.25C263.879 178.101 250.253 191 233.384 191C216.515 191 202.89 178.101 202.89 162.25C202.89 146.399 216.515 133.5 233.384 133.5C250.253 133.5 263.879 146.399 263.879 162.25Z" stroke="white" stroke-opacity="0.45"/>
</g>
</g>
</svg>
