<svg width="24" height="24" viewBox="0 0 24 24" fill="none" xmlns="http://www.w3.org/2000/svg">
<g clip-path="url(#clip0_3352_8071)">
<path d="M16 16.75H16.75V16V14C16.75 13.8642 16.8642 13.75 17 13.75C17.1358 13.75 17.25 13.8642 17.25 14V16V16.75H18H20C20.1358 16.75 20.25 16.8642 20.25 17C20.25 17.1358 20.1358 17.25 20 17.25H18H17.25V18V20C17.25 20.1358 17.1358 20.25 17 20.25C16.8642 20.25 16.75 20.1358 16.75 20V18V17.25H16H14C13.8642 17.25 13.75 17.1358 13.75 17C13.75 16.8642 13.8642 16.75 14 16.75H16ZM4 3.75H10C10.1358 3.75 10.25 3.86421 10.25 4V10C10.25 10.1358 10.1358 10.25 10 10.25H4C3.86421 10.25 3.75 10.1358 3.75 10V4C3.75 3.86421 3.86421 3.75 4 3.75ZM14 3.75H20C20.1358 3.75 20.25 3.86421 20.25 4V10C20.25 10.1358 20.1358 10.25 20 10.25H14C13.8642 10.25 13.75 10.1358 13.75 10V4C13.75 3.86421 13.8642 3.75 14 3.75ZM4 13.75H10C10.1358 13.75 10.25 13.8642 10.25 14V20C10.25 20.1358 10.1358 20.25 10 20.25H4C3.86421 20.25 3.75 20.1358 3.75 20V14C3.75 13.8642 3.86421 13.75 4 13.75Z" stroke="#717171" stroke-width="1.5"/>
</g>
<defs>
<clipPath id="clip0_3352_8071">
<rect width="24" height="24" fill="white"/>
</clipPath>
</defs>
</svg>
