<svg width="24" height="24" viewBox="0 0 24 24" fill="none" xmlns="http://www.w3.org/2000/svg">
<g clip-path="url(#clip0_3352_7422)">
<path d="M18.24 8C18.24 9.24906 17.2425 10.25 16 10.25C14.7542 10.25 13.75 9.24579 13.75 8C13.75 6.75421 14.7542 5.75 16 5.75C17.2425 5.75 18.24 6.75094 18.24 8ZM10.24 8C10.24 9.24906 9.24252 10.25 8 10.25C6.75421 10.25 5.75 9.24579 5.75 8C5.75 6.75421 6.75421 5.75 8 5.75C9.24252 5.75 10.24 6.75094 10.24 8ZM1.75 16.5C1.75 16.1931 1.8978 15.8689 2.27455 15.5215C2.65643 15.1693 3.22126 14.8461 3.9049 14.5726C5.27339 14.0249 6.92867 13.75 8 13.75C9.07133 13.75 10.7266 14.0249 12.0951 14.5726C12.7787 14.8461 13.3436 15.1693 13.7254 15.5215C14.1022 15.8689 14.25 16.1931 14.25 16.5V18.25H1.75V16.5ZM17.75 16.5C17.75 15.442 17.4044 14.5454 16.8583 13.7973C17.8478 13.8973 19.0544 14.1561 20.0951 14.5726C20.7787 14.8461 21.3436 15.1693 21.7254 15.5215C22.1022 15.8689 22.25 16.1931 22.25 16.5V18.25H17.75V16.5Z" stroke="#717171" stroke-width="1.5"/>
</g>
<defs>
<clipPath id="clip0_3352_7422">
<rect width="24" height="24" fill="white"/>
</clipPath>
</defs>
</svg>
