<svg width="22" height="22" viewBox="0 0 22 22" fill="none" xmlns="http://www.w3.org/2000/svg">
<path d="M3.9646 19.2507C3.59793 19.2507 3.2771 19.1131 3.0021 18.8382C2.7271 18.5632 2.5896 18.2423 2.5896 17.8757V13.1319C2.5896 12.7652 2.7271 12.4444 3.0021 12.1694C3.2771 11.8944 3.59793 11.7569 3.9646 11.7569H14.5521V7.70065H15.9271V11.7569H18.3104C18.6771 11.7569 18.9979 11.8944 19.2729 12.1694C19.5479 12.4444 19.6854 12.7652 19.6854 13.1319V17.8757C19.6854 18.2423 19.5479 18.5632 19.2729 18.8382C18.9979 19.1131 18.6771 19.2507 18.3104 19.2507H3.9646ZM18.3104 17.8757V13.1319H3.9646V17.8757H18.3104ZM7.1271 15.5128C7.1271 15.2394 7.03463 15.0111 6.84969 14.8277C6.66474 14.6444 6.43557 14.5527 6.16219 14.5527C5.8888 14.5527 5.66043 14.6452 5.4771 14.8301C5.29377 15.0151 5.2021 15.2443 5.2021 15.5176C5.2021 15.791 5.29457 16.0194 5.47951 16.2027C5.66446 16.3861 5.89363 16.4777 6.16701 16.4777C6.4404 16.4777 6.66877 16.3853 6.8521 16.2003C7.03543 16.0154 7.1271 15.7862 7.1271 15.5128ZM10.5188 15.5128C10.5188 15.2394 10.4263 15.0111 10.2414 14.8277C10.0564 14.6444 9.82724 14.5527 9.55386 14.5527C9.28046 14.5527 9.0521 14.6452 8.86877 14.8301C8.68543 15.0151 8.59377 15.2443 8.59377 15.5176C8.59377 15.791 8.68623 16.0194 8.87117 16.2027C9.05613 16.3861 9.28529 16.4777 9.55867 16.4777C9.83207 16.4777 10.0604 16.3853 10.2438 16.2003C10.4271 16.0154 10.5188 15.7862 10.5188 15.5128ZM12.9503 16.4777C13.2237 16.4777 13.4521 16.3853 13.6354 16.2003C13.8188 16.0154 13.9104 15.7862 13.9104 15.5128C13.9104 15.2394 13.818 15.0111 13.633 14.8277C13.4481 14.6444 13.2189 14.5527 12.9455 14.5527C12.6721 14.5527 12.4438 14.6452 12.2604 14.8301C12.0771 15.0151 11.9854 15.2443 11.9854 15.5176C11.9854 15.791 12.0779 16.0194 12.2628 16.2027C12.4478 16.3861 12.677 16.4777 12.9503 16.4777ZM13.4063 6.71523L12.4667 5.77565C12.8333 5.40898 13.2491 5.11871 13.7141 4.90482C14.179 4.69093 14.6875 4.58398 15.2396 4.58398C15.7917 4.58398 16.3002 4.69093 16.7651 4.90482C17.2301 5.11871 17.6458 5.40898 18.0125 5.77565L17.0729 6.71523C16.859 6.50135 16.5917 6.32183 16.2708 6.17669C15.95 6.03155 15.6101 5.95898 15.2511 5.95898C14.892 5.95898 14.5483 6.03155 14.2198 6.17669C13.8913 6.32183 13.6202 6.50135 13.4063 6.71523ZM11.4583 4.76732L10.45 3.75898C10.9542 3.25482 11.6264 2.80794 12.4667 2.41836C13.307 2.02878 14.2313 1.83398 15.2396 1.83398C16.2479 1.83398 17.1722 2.02878 18.0125 2.41836C18.8528 2.80794 19.525 3.25482 20.0292 3.75898L19.0208 4.76732C18.6236 4.32426 18.1004 3.95378 17.4511 3.65586C16.8018 3.35794 16.0646 3.20898 15.2396 3.20898C14.4146 3.20898 13.6774 3.35794 13.0281 3.65586C12.3788 3.95378 11.8556 4.32426 11.4583 4.76732Z" stroke="#717171" stroke-width="0.5" fill="#717171"/>
</svg>
