<svg width="24" height="24" viewBox="0 0 24 24" fill="none" xmlns="http://www.w3.org/2000/svg">
<path d="M8 11.75V10.25H16V11.75H8ZM8 7.75V6.25H16V7.75H8ZM5.5 14.25H13.5C13.9405 14.25 14.3506 14.35 14.7304 14.55C15.1101 14.75 15.4333 15.0167 15.7 15.35L18.5 19V3.5H5.5V14.25ZM5.5 20.5H17.75L14.525 16.275C14.3989 16.1103 14.2466 15.9816 14.0679 15.889C13.8893 15.7963 13.7 15.75 13.5 15.75H5.5V20.5ZM18.5 22H5.5C5.1 22 4.75 21.85 4.45 21.55C4.15 21.25 4 20.9 4 20.5V3.5C4 3.1 4.15 2.75 4.45 2.45C4.75 2.15 5.1 2 5.5 2H18.5C18.9 2 19.25 2.15 19.55 2.45C19.85 2.75 20 3.1 20 3.5V20.5C20 20.9 19.85 21.25 19.55 21.55C19.25 21.85 18.9 22 18.5 22Z" fill="#717171"/>
</svg>
