<svg width="24" height="24" viewBox="0 0 24 24" fill="none" xmlns="http://www.w3.org/2000/svg">
<g clip-path="url(#clip0_3352_5615)">
<path d="M12.2 11.75H14.0107L12.7303 10.4697L10.8303 8.56967C10.7332 8.47256 10.7332 8.32744 10.8303 8.23033C10.9273 8.13331 11.0723 8.13322 11.1694 8.23006C11.1695 8.23015 11.1696 8.23024 11.1697 8.23033L14.7589 11.8296L14.7597 11.8303C14.8568 11.9274 14.8568 12.0826 14.7597 12.1797L11.1697 15.7697C11.0726 15.8668 10.9274 15.8668 10.8303 15.7697C10.7332 15.6726 10.7332 15.5274 10.8303 15.4303L12.7303 13.5303L14.0107 12.25H12.2H3C2.86421 12.25 2.75 12.1358 2.75 12C2.75 11.8642 2.86421 11.75 3 11.75H12.2ZM20 19.75H20.75V19V5V4.25H20H13C12.8642 4.25 12.75 4.13579 12.75 4C12.75 3.86421 12.8642 3.75 13 3.75H20C20.6858 3.75 21.25 4.31421 21.25 5V19C21.25 19.6858 20.6858 20.25 20 20.25H13C12.8642 20.25 12.75 20.1358 12.75 20C12.75 19.8642 12.8642 19.75 13 19.75H20Z" stroke="#717171" stroke-width="1.5"/>
</g>
<defs>
<clipPath id="clip0_3352_5615">
<rect width="24" height="24" fill="white"/>
</clipPath>
</defs>
</svg>
