<svg width="24" height="24" viewBox="0 0 24 24" fill="none" xmlns="http://www.w3.org/2000/svg">
<g clip-path="url(#clip0_3352_8027)">
<path d="M5.39833 16.5289L4.78942 17.0045L5.28292 17.599C7.15599 19.8555 9.78128 20.75 12 20.75C14.2187 20.75 16.844 19.8555 18.7171 17.599L19.2106 17.0045L18.6017 16.5289C16.7864 15.1111 14.4955 14.25 12 14.25C9.50446 14.25 7.21355 15.1111 5.39833 16.5289ZM2.75 12C2.75 6.89421 6.89421 2.75 12 2.75C17.1058 2.75 21.25 6.89421 21.25 12C21.25 17.1058 17.1058 21.25 12 21.25C6.89421 21.25 2.75 17.1058 2.75 12ZM16.25 9.5C16.25 7.15579 14.3442 5.25 12 5.25C9.65579 5.25 7.75 7.15579 7.75 9.5C7.75 11.8442 9.65579 13.75 12 13.75C14.3442 13.75 16.25 11.8442 16.25 9.5Z" stroke="#717171" stroke-width="1.5"/>
</g>
<defs>
<clipPath id="clip0_3352_8027">
<rect width="24" height="24" fill="white"/>
</clipPath>
</defs>
</svg>
