<svg width="24" height="24" viewBox="0 0 24 24" fill="none" xmlns="http://www.w3.org/2000/svg">
<g clip-path="url(#clip0_3467_19716)">
<path d="M15.25 8C15.25 9.79579 13.7958 11.25 12 11.25C10.2042 11.25 8.75 9.79579 8.75 8C8.75 6.20421 10.2042 4.75 12 4.75C13.7958 4.75 15.25 6.20421 15.25 8ZM4.75 18C4.75 17.6105 4.93918 17.2138 5.3832 16.804C5.83232 16.3894 6.4903 16.0141 7.27765 15.6987C8.85356 15.0674 10.7588 14.75 12 14.75C13.2412 14.75 15.1464 15.0674 16.7223 15.6987C17.5097 16.0141 18.1677 16.3894 18.6168 16.804C19.0608 17.2138 19.25 17.6105 19.25 18V19C19.25 19.1358 19.1358 19.25 19 19.25H5C4.86421 19.25 4.75 19.1358 4.75 19V18Z" stroke="#717171" stroke-width="1.5"/>
</g>
<defs>
<clipPath id="clip0_3467_19716">
<rect width="24" height="24" fill="white"/>
</clipPath>
</defs>
</svg>
