<svg width="30" height="30" viewBox="0 0 30 30" fill="none" xmlns="http://www.w3.org/2000/svg">
<g clip-path="url(#clip0_3383_14228)">
<path d="M23.75 16.25H6.25C4.875 16.25 3.75 17.375 3.75 18.75V23.75C3.75 25.125 4.875 26.25 6.25 26.25H23.75C25.125 26.25 26.25 25.125 26.25 23.75V18.75C26.25 17.375 25.125 16.25 23.75 16.25ZM8.75 23.75C7.375 23.75 6.25 22.625 6.25 21.25C6.25 19.875 7.375 18.75 8.75 18.75C10.125 18.75 11.25 19.875 11.25 21.25C11.25 22.625 10.125 23.75 8.75 23.75ZM23.75 3.75H6.25C4.875 3.75 3.75 4.875 3.75 6.25V11.25C3.75 12.625 4.875 13.75 6.25 13.75H23.75C25.125 13.75 26.25 12.625 26.25 11.25V6.25C26.25 4.875 25.125 3.75 23.75 3.75ZM8.75 11.25C7.375 11.25 6.25 10.125 6.25 8.75C6.25 7.375 7.375 6.25 8.75 6.25C10.125 6.25 11.25 7.375 11.25 8.75C11.25 10.125 10.125 11.25 8.75 11.25Z" fill="#5177FF"/>
</g>
<defs>
<clipPath id="clip0_3383_14228">
<rect width="30" height="30" fill="white"/>
</clipPath>
</defs>
</svg>
