<svg width="40" height="40" viewBox="0 0 50 50" fill="none" xmlns="http://www.w3.org/2000/svg">
<path d="M15.6667 24.6667H21C22.4667 24.6667 23.6667 23.4667 23.6667 22V16.6667C23.6667 15.2 22.4667 14 21 14H15.6667C14.2 14 13 15.2 13 16.6667V22C13 23.4667 14.2 24.6667 15.6667 24.6667Z" fill="#5177FF"/>
<path d="M15.6667 38H21C22.4667 38 23.6667 36.8 23.6667 35.3333V30C23.6667 28.5333 22.4667 27.3333 21 27.3333H15.6667C14.2 27.3333 13 28.5333 13 30V35.3333C13 36.8 14.2 38 15.6667 38Z" fill="#5177FF"/>
<path d="M26.3333 16.6667V22C26.3333 23.4667 27.5333 24.6667 29 24.6667H34.3333C35.8 24.6667 37 23.4667 37 22V16.6667C37 15.2 35.8 14 34.3333 14H29C27.5333 14 26.3333 15.2 26.3333 16.6667Z" fill="#5177FF"/>
<path d="M29 38H34.3333C35.8 38 37 36.8 37 35.3333V30C37 28.5333 35.8 27.3333 34.3333 27.3333H29C27.5333 27.3333 26.3333 28.5333 26.3333 30V35.3333C26.3333 36.8 27.5333 38 29 38Z" fill="#5177FF"/>
</svg>
