<svg width="50" height="50" viewBox="0 0 50 50" fill="none" xmlns="http://www.w3.org/2000/svg">
<rect width="50" height="50" rx="25" fill="#EBFCF6"/>
<g clip-path="url(#clip0_131_1099)">
<path d="M33.75 26.25H16.25C14.875 26.25 13.75 27.375 13.75 28.75V33.75C13.75 35.125 14.875 36.25 16.25 36.25H33.75C35.125 36.25 36.25 35.125 36.25 33.75V28.75C36.25 27.375 35.125 26.25 33.75 26.25ZM18.75 33.75C17.375 33.75 16.25 32.625 16.25 31.25C16.25 29.875 17.375 28.75 18.75 28.75C20.125 28.75 21.25 29.875 21.25 31.25C21.25 32.625 20.125 33.75 18.75 33.75ZM33.75 13.75H16.25C14.875 13.75 13.75 14.875 13.75 16.25V21.25C13.75 22.625 14.875 23.75 16.25 23.75H33.75C35.125 23.75 36.25 22.625 36.25 21.25V16.25C36.25 14.875 35.125 13.75 33.75 13.75ZM18.75 21.25C17.375 21.25 16.25 20.125 16.25 18.75C16.25 17.375 17.375 16.25 18.75 16.25C20.125 16.25 21.25 17.375 21.25 18.75C21.25 20.125 20.125 21.25 18.75 21.25Z" fill="#30E1AB"/>
</g>
<defs>
<clipPath id="clip0_131_1099">
<rect width="30" height="30" fill="white" transform="translate(10 10)"/>
</clipPath>
</defs>
</svg>
