<svg width="40" height="40" viewBox="0 0 50 50" fill="none" xmlns="http://www.w3.org/2000/svg">

<g clip-path="url(#clip0_2019_2235)">
<g clip-path="url(#clip1_2019_2235)">
<path d="M36.2501 12.5L33.7501 15M33.7501 15L37.5001 18.75L33.1251 23.125L29.3751 19.375M33.7501 15L29.3751 19.375M24.2376 24.5125C24.883 25.1493 25.3961 25.9075 25.7473 26.7435C26.0985 27.5794 26.2808 28.4766 26.2839 29.3833C26.2869 30.29 26.1106 31.1884 25.765 32.0266C25.4194 32.8649 24.9114 33.6265 24.2703 34.2677C23.6291 34.9088 22.8675 35.4168 22.0292 35.7624C21.191 36.108 20.2926 36.2843 19.3859 36.2813C18.4792 36.2782 17.582 36.0959 16.7461 35.7447C15.9101 35.3935 15.1519 34.8804 14.5151 34.235C13.2628 32.9384 12.5698 31.2017 12.5855 29.3991C12.6011 27.5965 13.3242 25.8722 14.5988 24.5975C15.8735 23.3228 17.5979 22.5998 19.4005 22.5841C21.2031 22.5685 22.9397 23.2614 24.2363 24.5138L24.2376 24.5125ZM24.2376 24.5125L29.3751 19.375" stroke="#5177FF" stroke-width="2" stroke-linecap="round" stroke-linejoin="round"/>
</g>
</g>
<defs>
<clipPath id="clip0_2019_2235">
<rect width="30" height="30" fill="white" transform="translate(10 10)"/>
</clipPath>
<clipPath id="clip1_2019_2235">
<rect width="30" height="30" fill="white" transform="translate(10 10)"/>
</clipPath>
</defs>
</svg>
