<svg width="21" height="20" viewBox="0 0 21 20" fill="none" xmlns="http://www.w3.org/2000/svg">
<path d="M16.6872 12.8167C15.6615 12.8167 14.6691 12.65 13.7434 12.35C13.4516 12.25 13.1263 12.325 12.9012 12.55L11.5919 14.1917C9.23183 13.0667 7.02189 10.9417 5.84604 8.5L7.47222 7.11667C7.69738 6.88333 7.7641 6.55833 7.67237 6.26667C7.36381 5.34167 7.20536 4.35 7.20536 3.325C7.20536 2.875 6.83009 2.5 6.37976 2.5H3.49434C3.04401 2.5 2.50195 2.7 2.50195 3.325C2.50195 11.0667 8.94829 17.5 16.6872 17.5C17.2793 17.5 17.5128 16.975 17.5128 16.5167V13.6417C17.5128 13.1917 17.1376 12.8167 16.6872 12.8167Z" fill="#4B475C"/>
</svg>
