<svg width="50" height="50" viewBox="0 0 50 50" fill="none" xmlns="http://www.w3.org/2000/svg">
<!-- <rect width="50" height="50" rx="25" fill="#E7E9F8"/> -->
<path d="M23.85 30.625L29.575 24.9L28.6 23.925L23.85 28.675L21.275 26.1L20.3 27.075L23.85 30.625ZM18.5 35C18.1 35 17.75 34.85 17.45 34.55C17.15 34.25 17 33.9 17 33.5V16.5C17 16.1 17.15 15.75 17.45 15.45C17.75 15.15 18.1 15 18.5 15H27.525L33 20.475V33.5C33 33.9 32.85 34.25 32.55 34.55C32.25 34.85 31.9 35 31.5 35H18.5ZM26.775 21.15V16.5H18.5V33.5H31.5V21.15H26.775Z" fill="#5177FF"/>
</svg>
