<svg width="1263" height="613" viewBox="0 0 1263 613" fill="none" xmlns="http://www.w3.org/2000/svg">
<rect width="1263" height="613" fill="white"/>
<path d="M1194 436.867H656V437.1H1194V436.867Z" fill="#EBEBEB"/>
<path d="M735.269 445.702H712.447V445.935H735.269V445.702Z" fill="#EBEBEB"/>
<path d="M931.574 443.187H840.147V443.42H931.574V443.187Z" fill="#EBEBEB"/>
<path d="M769.819 454.323H728.813V454.556H769.819V454.323Z" fill="#EBEBEB"/>
<path d="M1140.09 452.764H1093.62V452.997H1140.09V452.764Z" fill="#EBEBEB"/>
<path d="M1090.1 452.764H1077.22V452.997H1090.1V452.764Z" fill="#EBEBEB"/>
<path d="M1055.08 448.848H1030.33V449.081H1055.08V448.848Z" fill="#EBEBEB"/>
<path d="M1017.89 448.848H965.77V449.081H1017.89V448.848Z" fill="#EBEBEB"/>
<path d="M911.012 395.478H703.247C701.62 395.476 700.06 394.917 698.91 393.923C697.76 392.93 697.114 391.583 697.114 390.18V138.292C697.128 136.897 697.78 135.562 698.929 134.579C700.077 133.595 701.629 133.042 703.247 133.04H911.012C912.642 133.04 914.204 133.598 915.356 134.592C916.509 135.586 917.156 136.934 917.156 138.339V390.18C917.156 391.585 916.509 392.933 915.356 393.926C914.204 394.92 912.642 395.478 911.012 395.478V395.478ZM703.247 133.226C701.691 133.228 700.199 133.763 699.1 134.713C698 135.663 697.383 136.95 697.383 138.292V390.18C697.383 391.522 698 392.809 699.1 393.759C700.199 394.709 701.691 395.244 703.247 395.246H911.012C912.569 395.244 914.062 394.709 915.163 393.76C916.264 392.81 916.884 391.523 916.887 390.18V138.292C916.884 136.949 916.264 135.662 915.163 134.712C914.062 133.763 912.569 133.228 911.012 133.226H703.247Z" fill="#EBEBEB"/>
<path d="M1143.76 395.478H935.986C934.357 395.476 932.796 394.917 931.645 393.924C930.493 392.93 929.845 391.584 929.842 390.18V138.292C929.859 136.896 930.513 135.561 931.664 134.578C932.814 133.595 934.367 133.042 935.986 133.04H1143.76C1145.38 133.045 1146.93 133.599 1148.07 134.582C1149.22 135.565 1149.87 136.898 1149.88 138.292V390.18C1149.88 391.582 1149.24 392.927 1148.09 393.92C1146.94 394.913 1145.39 395.473 1143.76 395.478V395.478ZM935.986 133.226C934.429 133.228 932.936 133.763 931.835 134.712C930.734 135.662 930.114 136.949 930.111 138.292V390.18C930.114 391.523 930.734 392.81 931.835 393.76C932.936 394.709 934.429 395.244 935.986 395.246H1143.76C1145.32 395.244 1146.81 394.709 1147.91 393.76C1149.01 392.81 1149.63 391.523 1149.64 390.18V138.292C1149.63 136.949 1149.01 135.662 1147.91 134.712C1146.81 133.763 1145.32 133.228 1143.76 133.226H935.986Z" fill="#EBEBEB"/>
<path d="M736.732 436.867H753.303V326.881H736.732V436.867Z" fill="#F0F0F0"/>
<path d="M898.337 326.881H753.303V436.867H898.337V326.881Z" fill="#F5F5F5"/>
<path d="M899.649 368.39H772.316V427.216H899.649V368.39Z" fill="#FAFAFA"/>
<path d="M899.649 342.777H772.316V362.145H899.649V342.777Z" fill="#FAFAFA"/>
<g style="mix-blend-mode:multiply" opacity="0.7">
<path d="M771.175 427.216H772.316V368.39H771.175V427.216Z" fill="#E6E6E6"/>
</g>
<g style="mix-blend-mode:multiply" opacity="0.7">
<path d="M771.175 362.145H772.316V342.777H771.175V362.145Z" fill="#E6E6E6"/>
</g>
<g style="mix-blend-mode:multiply" opacity="0.7">
<path d="M736.722 334.008H898.692V331.521H736.722V334.008Z" fill="#E6E6E6"/>
</g>
<path d="M734.796 332.569H753.303V325.377H734.796V332.569Z" fill="#F0F0F0"/>
<path d="M900.274 325.377H753.303V332.569H900.274V325.377Z" fill="#F5F5F5"/>
<path d="M796.795 304.256C795.869 303.119 795.329 301.782 795.234 300.396C795.093 298.993 795.235 297.58 795.654 296.22C796.499 293.529 798.003 291.026 800.066 288.879C801.074 287.833 802.152 286.839 803.294 285.9C803.896 285.464 804.477 285.019 805.091 284.592C805.681 284.155 806.299 283.746 806.941 283.367C808.211 282.607 809.526 281.904 810.879 281.26C812.278 280.666 813.656 280.082 815.119 279.608C814.043 280.648 812.967 281.557 811.891 282.476C810.815 283.395 809.793 284.332 808.717 285.26C807.641 286.188 806.694 287.116 805.661 288.044C805.155 288.499 804.703 288.972 804.23 289.464C803.731 289.913 803.264 290.387 802.831 290.884C801.007 292.763 799.477 294.841 798.279 297.064C797.691 298.146 797.247 299.283 796.956 300.451C796.632 301.7 796.577 302.99 796.795 304.256Z" fill="#E6E6E6"/>
<path d="M771.648 300.368C772.109 299.263 772.346 298.099 772.348 296.925C772.345 296.381 772.298 295.839 772.208 295.301C772.08 294.784 771.911 294.276 771.702 293.779C770.733 291.803 769.262 290.04 767.398 288.619C766.946 288.229 766.408 287.895 765.924 287.524C765.443 287.136 764.928 286.779 764.385 286.457C763.309 285.807 762.287 285.037 761.157 284.434C760.598 284.109 760.081 283.784 759.468 283.441C758.855 283.098 758.392 282.745 757.747 282.439C756.547 281.785 755.387 281.079 754.271 280.323C755.688 280.505 757.092 280.753 758.478 281.065C759.176 281.204 759.859 281.391 760.523 281.622C761.19 281.845 761.857 282.068 762.524 282.309L763.525 282.671C763.847 282.801 764.16 282.968 764.482 283.116C765.117 283.413 765.741 283.738 766.376 284.044C767.01 284.369 767.615 284.735 768.184 285.139C768.754 285.548 769.357 285.909 769.895 286.364C772.23 288.157 773.83 290.553 774.457 293.194C774.539 293.527 774.579 293.866 774.575 294.206C774.575 294.549 774.575 294.893 774.575 295.227C774.506 295.893 774.347 296.55 774.102 297.185C773.642 298.421 772.792 299.523 771.648 300.368V300.368Z" fill="#E6E6E6"/>
<path d="M772.8 300.368C773.375 297.907 773.445 295.378 773.004 292.897C772.563 290.551 771.642 288.292 770.282 286.225L769.206 284.694C768.808 284.202 768.356 283.766 767.958 283.246L767.334 282.504L766.613 281.826C766.139 281.372 765.666 280.898 765.203 280.425C764.192 279.543 763.127 278.68 762.094 277.752C761.061 276.824 759.866 276.045 758.801 275.061C760.264 275.478 761.701 275.961 763.105 276.509C764.469 277.148 765.791 277.851 767.065 278.615C767.667 279.042 768.281 279.478 768.872 279.924L769.765 280.592L770.562 281.362C771.078 281.882 771.638 282.402 772.1 282.949L773.392 284.712C775.014 287.16 775.847 289.939 775.802 292.758C775.795 295.51 774.74 298.183 772.8 300.368V300.368Z" fill="#E6E6E6"/>
<path d="M795.417 301.741C793.277 299.43 791.47 296.903 790.037 294.215C788.569 291.528 787.385 288.733 786.497 285.863C785.631 282.974 785.133 280.011 785.012 277.028C784.917 274.033 785.445 271.047 786.573 268.212C786.874 271.182 787.25 273.994 787.81 276.787C788.37 279.58 789.155 282.355 789.962 285.139C790.769 287.923 791.716 290.624 792.652 293.38C793.588 296.136 794.535 298.874 795.417 301.741Z" fill="#E6E6E6"/>
<path d="M794.298 301.277C791.741 299.154 789.457 296.799 787.487 294.252C785.494 291.718 783.741 289.049 782.247 286.271C780.751 283.475 779.572 280.56 778.729 277.567C777.886 274.559 777.625 271.452 777.954 268.37C779.03 271.312 780.106 274.096 781.419 276.852C782.731 279.608 784.087 282.281 785.497 284.981C786.906 287.682 788.423 290.345 789.919 293.046C791.415 295.746 792.91 298.447 794.298 301.277Z" fill="#E6E6E6"/>
<path d="M798.678 304.813C795.628 303.228 792.789 301.361 790.209 299.245C787.617 297.157 785.22 294.895 783.043 292.48C780.861 290.041 778.955 287.428 777.351 284.675C775.759 281.903 774.702 278.925 774.22 275.859C776.039 278.513 777.846 281.01 779.794 283.45C781.741 285.891 783.797 288.239 785.873 290.596C787.95 292.953 790.177 295.236 792.265 297.602C794.352 299.969 796.59 302.326 798.678 304.813Z" fill="#E6E6E6"/>
<path d="M792.092 300.767C789.15 299.499 786.415 297.901 783.958 296.015C781.483 294.148 779.226 292.075 777.222 289.826C775.213 287.557 773.512 285.098 772.154 282.494C770.801 279.883 769.986 277.088 769.744 274.235C771.39 276.713 772.897 279.079 774.64 281.344C776.383 283.608 778.158 285.807 780.02 287.951C781.881 290.095 783.893 292.22 785.916 294.326C787.939 296.433 790.048 298.549 792.092 300.767Z" fill="#E6E6E6"/>
<path d="M797.354 303.356C796.146 302.614 795.128 301.665 794.365 300.568C793.602 299.471 793.111 298.249 792.921 296.98C792.521 294.393 793.007 291.76 794.32 289.408L794.772 288.536L795.32 287.719L796.472 286.114C796.917 285.619 797.368 285.136 797.828 284.666C798.27 284.182 798.748 283.724 799.259 283.292C800.278 282.443 801.356 281.646 802.487 280.907C803.64 280.205 804.84 279.56 806.08 278.977C805.361 280.007 804.582 281.004 803.746 281.965C802.949 282.893 802.239 283.914 801.443 284.833C800.647 285.752 800.055 286.772 799.291 287.71L798.398 289.176L797.924 289.9L797.569 290.651C796.472 292.584 795.832 294.684 795.686 296.832C795.596 299.093 796.17 301.337 797.354 303.356V303.356Z" fill="#E6E6E6"/>
<path d="M795.364 300.396C793.198 298.575 791.625 296.297 790.801 293.788C789.897 291.187 789.853 288.42 790.672 285.798C791.08 284.486 791.715 283.235 792.555 282.086C793.37 280.947 794.362 279.911 795.503 279.005C797.693 277.228 800.335 275.918 803.218 275.182C801.199 276.867 799.322 278.675 797.602 280.592C796.809 281.506 796.11 282.478 795.514 283.497C794.918 284.485 794.453 285.528 794.126 286.605C793.448 288.788 793.254 291.061 793.556 293.306C793.867 295.717 794.473 298.094 795.364 300.396V300.396Z" fill="#E6E6E6"/>
<path d="M790.102 298.196L773.262 284.258L773.94 297.927L790.102 298.196Z" fill="#E6E6E6"/>
<path d="M808.501 296.711H763.772L769.626 325.377H802.648L808.501 296.711Z" fill="#F5F5F5"/>
<path d="M780.558 296.711H763.772L769.626 325.377H778.449L780.558 296.711Z" fill="#EBEBEB"/>
<path d="M854.899 153.298H764.611V251.184H854.899V153.298Z" fill="#F0F0F0"/>
<path d="M874.837 153.298H768.076V251.184H874.837V153.298Z" fill="#F5F5F5"/>
<path d="M777.018 161.001V243.463H865.895V161.001H777.018Z" fill="white"/>
<path d="M1124.53 436.867H987.182L974.991 241.013H1112.34L1124.53 436.867Z" fill="#EBEBEB"/>
<path d="M1128.73 436.867H991.378L979.187 241.013H1116.54L1128.73 436.867Z" fill="#F5F5F5"/>
<path d="M1059.84 416.665H1047.58L1048.07 261.215H1060.34L1059.84 416.665Z" fill="white"/>
<path d="M1092.29 416.665H1080.02L1080.53 261.215H1092.78L1092.29 416.665Z" fill="white"/>
<path d="M1027.39 416.665H1015.13L1015.63 261.215H1027.9L1027.39 416.665Z" fill="white"/>
<path d="M925 478.776C1040.22 478.776 1133.63 474.072 1133.63 468.271C1133.63 462.469 1040.22 457.766 925 457.766C809.779 457.766 716.374 462.469 716.374 468.271C716.374 474.072 809.779 478.776 925 478.776Z" fill="#F5F5F5"/>
<path d="M1072.17 354.92L1070.78 376.77L1071.85 376.82L1073.24 354.971L1072.17 354.92Z" fill="#407BFF"/>
<path d="M1073.36 336.386L1072.64 347.644L1073.71 347.695L1074.43 336.437L1073.36 336.386Z" fill="#407BFF"/>
<path d="M1050.68 418.419H924.548C922.64 418.439 920.748 418.118 918.99 417.478C917.233 416.838 915.647 415.891 914.334 414.697C913.021 413.503 912.007 412.088 911.358 410.541C910.709 408.994 910.437 407.347 910.56 405.705L925.086 177.306C925.356 173.883 927.112 170.673 930.004 168.317C932.895 165.961 936.71 164.631 940.688 164.592H1066.83C1068.73 164.58 1070.62 164.906 1072.37 165.549C1074.12 166.193 1075.7 167.141 1077 168.334C1078.31 169.526 1079.32 170.939 1079.97 172.482C1080.61 174.026 1080.88 175.668 1080.76 177.306L1066.23 405.705C1065.96 409.121 1064.21 412.325 1061.33 414.68C1058.45 417.036 1054.65 418.37 1050.68 418.419V418.419Z" fill="#407BFF"/>
<path opacity="0.8" d="M1043.05 418.419H924.548C922.64 418.439 920.748 418.118 918.99 417.478C917.233 416.838 915.647 415.891 914.334 414.697C913.021 413.503 912.007 412.088 911.358 410.541C910.709 408.994 910.437 407.347 910.56 405.705L925.086 177.306C925.356 173.883 927.112 170.673 930.004 168.317C932.895 165.961 936.71 164.631 940.688 164.592H1059.2C1061.1 164.578 1062.99 164.903 1064.74 165.547C1066.49 166.19 1068.07 167.138 1069.38 168.331C1070.68 169.524 1071.69 170.936 1072.34 172.481C1072.99 174.025 1073.26 175.667 1073.13 177.306L1058.61 405.705C1058.33 409.121 1056.58 412.324 1053.7 414.679C1050.82 417.034 1047.02 418.368 1043.05 418.419V418.419Z" fill="white"/>
<path d="M984.32 205.999H950.286C949.482 206.005 948.686 205.867 947.947 205.595C947.208 205.323 946.542 204.922 945.99 204.418C945.439 203.913 945.014 203.316 944.742 202.664C944.47 202.012 944.358 201.318 944.411 200.626V200.626C944.524 199.185 945.262 197.833 946.478 196.839C947.694 195.845 949.3 195.282 950.975 195.262H985.008C985.812 195.256 986.608 195.392 987.347 195.663C988.086 195.935 988.752 196.334 989.304 196.838C989.855 197.342 990.281 197.938 990.552 198.59C990.824 199.242 990.937 199.935 990.883 200.626V200.626C990.77 202.069 990.033 203.422 988.817 204.417C987.601 205.412 985.996 205.977 984.32 205.999Z" fill="white"/>
<path d="M990.884 200.626C990.691 203.228 989.363 205.671 987.167 207.463C984.971 209.255 982.07 210.264 979.048 210.287C977.6 210.301 976.164 210.057 974.831 209.57C973.499 209.082 972.297 208.362 971.302 207.455C970.308 206.547 969.542 205.472 969.053 204.297C968.563 203.122 968.362 201.872 968.46 200.626C968.653 198.024 969.98 195.582 972.176 193.79C974.372 191.997 977.273 190.989 980.296 190.966C981.743 190.951 983.179 191.196 984.512 191.683C985.845 192.17 987.046 192.89 988.041 193.798C989.035 194.705 989.801 195.78 990.29 196.956C990.78 198.131 990.982 199.38 990.884 200.626V200.626Z" fill="#407BFF"/>
<path d="M982.136 240.345H948.102C947.298 240.35 946.502 240.212 945.763 239.94C945.023 239.668 944.357 239.267 943.806 238.763C943.254 238.259 942.83 237.662 942.558 237.009C942.286 236.357 942.173 235.663 942.227 234.972C942.34 233.53 943.078 232.178 944.294 231.184C945.51 230.19 947.115 229.628 948.79 229.608H982.824C983.627 229.601 984.424 229.738 985.163 230.009C985.902 230.28 986.568 230.68 987.12 231.183C987.671 231.687 988.096 232.283 988.368 232.935C988.64 233.587 988.753 234.28 988.699 234.972V234.972C988.586 236.414 987.848 237.767 986.633 238.762C985.417 239.758 983.812 240.322 982.136 240.345V240.345Z" fill="white"/>
<path d="M970.074 241.731C974.632 237.907 974.924 231.791 970.727 228.069C966.529 224.348 959.431 224.431 954.874 228.255C950.316 232.079 950.024 238.196 954.221 241.917C958.419 245.638 965.517 245.555 970.074 241.731Z" fill="#407BFF"/>
<path opacity="0.3" d="M970.074 241.731C974.632 237.907 974.924 231.791 970.727 228.069C966.529 224.348 959.431 224.431 954.874 228.255C950.316 232.079 950.024 238.196 954.221 241.917C958.419 245.638 965.517 245.555 970.074 241.731Z" fill="#FAFAFA"/>
<path d="M943.733 309.035H977.724C979.4 309.013 981.005 308.448 982.221 307.453C983.437 306.458 984.174 305.104 984.288 303.662C984.341 302.97 984.228 302.276 983.956 301.624C983.683 300.971 983.257 300.374 982.704 299.87C982.152 299.367 981.484 298.967 980.744 298.696C980.003 298.426 979.206 298.29 978.402 298.298H944.422C942.746 298.318 941.139 298.881 939.921 299.874C938.704 300.868 937.963 302.22 937.847 303.662V303.662C937.796 304.354 937.91 305.048 938.183 305.7C938.456 306.353 938.882 306.95 939.434 307.454C939.986 307.958 940.653 308.359 941.393 308.631C942.132 308.903 942.929 309.04 943.733 309.035V309.035Z" fill="white"/>
<path d="M956.659 310.408C961.217 306.584 961.509 300.467 957.311 296.746C953.114 293.024 946.016 293.108 941.458 296.931C936.901 300.755 936.609 306.872 940.806 310.594C945.004 314.315 952.101 314.232 956.659 310.408Z" fill="#407BFF"/>
<path opacity="0.7" d="M956.659 310.408C961.217 306.584 961.509 300.467 957.311 296.746C953.114 293.024 946.016 293.108 941.458 296.931C936.901 300.755 936.609 306.872 940.806 310.594C945.004 314.315 952.101 314.232 956.659 310.408Z" fill="#FAFAFA"/>
<path d="M975.572 343.38H941.549C940.745 343.386 939.948 343.248 939.208 342.976C938.469 342.704 937.802 342.303 937.25 341.799C936.697 341.295 936.271 340.698 935.998 340.046C935.726 339.393 935.611 338.699 935.663 338.007C935.779 336.565 936.519 335.213 937.737 334.219C938.955 333.226 940.561 332.663 942.237 332.643H976.261C977.065 332.636 977.862 332.771 978.602 333.042C979.343 333.312 980.01 333.712 980.563 334.216C981.116 334.719 981.542 335.316 981.814 335.969C982.087 336.621 982.2 337.315 982.146 338.007V338.007C982.033 339.451 981.294 340.806 980.076 341.801C978.858 342.797 977.25 343.36 975.572 343.38V343.38Z" fill="white"/>
<path d="M982.146 338.007C981.953 340.609 980.626 343.052 978.43 344.844C976.234 346.636 973.333 347.645 970.31 347.668C968.862 347.682 967.426 347.438 966.093 346.951C964.759 346.463 963.557 345.743 962.562 344.836C961.567 343.929 960.8 342.854 960.309 341.679C959.819 340.504 959.615 339.254 959.712 338.007C959.91 335.407 961.239 332.967 963.434 331.176C965.628 329.384 968.526 328.374 971.548 328.347C972.996 328.331 974.433 328.574 975.767 329.061C977.101 329.548 978.304 330.268 979.3 331.175C980.296 332.083 981.063 333.159 981.552 334.334C982.042 335.51 982.245 336.761 982.146 338.007V338.007Z" fill="#407BFF"/>
<path d="M945.917 274.69H979.951C981.627 274.668 983.233 274.103 984.448 273.108C985.664 272.112 986.402 270.759 986.515 269.317V269.317C986.568 268.625 986.455 267.931 986.183 267.278C985.91 266.626 985.484 266.029 984.932 265.525C984.379 265.021 983.711 264.622 982.971 264.351C982.231 264.081 981.433 263.945 980.629 263.953H946.606C944.931 263.973 943.326 264.536 942.11 265.53C940.894 266.523 940.156 267.875 940.042 269.317V269.317C939.989 270.008 940.102 270.702 940.374 271.354C940.645 272.007 941.07 272.604 941.622 273.108C942.173 273.612 942.839 274.013 943.578 274.285C944.317 274.558 945.114 274.695 945.917 274.69V274.69Z" fill="white"/>
<path d="M940.064 269.317C939.966 270.563 940.168 271.812 940.657 272.988C941.146 274.163 941.912 275.238 942.907 276.145C943.901 277.053 945.103 277.773 946.436 278.26C947.769 278.747 949.204 278.992 950.652 278.977C953.675 278.954 956.576 277.946 958.771 276.153C960.967 274.361 962.295 271.919 962.488 269.317C962.586 268.071 962.384 266.821 961.895 265.646C961.406 264.471 960.64 263.396 959.645 262.488C958.651 261.581 957.449 260.861 956.116 260.374C954.783 259.886 953.348 259.642 951.9 259.656C948.877 259.679 945.976 260.688 943.78 262.48C941.585 264.272 940.257 266.715 940.064 269.317V269.317Z" fill="#407BFF"/>
<path opacity="0.7" d="M940.064 269.317C939.966 270.563 940.168 271.812 940.657 272.988C941.146 274.163 941.912 275.238 942.907 276.145C943.901 277.053 945.103 277.773 946.436 278.26C947.769 278.747 949.204 278.992 950.652 278.977C953.675 278.954 956.576 277.946 958.771 276.153C960.967 274.361 962.295 271.919 962.488 269.317C962.586 268.071 962.384 266.821 961.895 265.646C961.406 264.471 960.64 263.396 959.645 262.488C958.651 261.581 957.449 260.861 956.116 260.374C954.783 259.886 953.348 259.642 951.9 259.656C948.877 259.679 945.976 260.688 943.78 262.48C941.585 264.272 940.257 266.715 940.064 269.317V269.317Z" fill="#FAFAFA"/>
<path d="M1058.87 199.021H1008.42C1008.1 199.021 1007.78 198.965 1007.49 198.855C1007.19 198.746 1006.93 198.585 1006.71 198.383C1006.49 198.181 1006.32 197.943 1006.21 197.682C1006.1 197.421 1006.06 197.144 1006.08 196.868C1006.12 196.292 1006.42 195.751 1006.9 195.354C1007.39 194.957 1008.03 194.732 1008.7 194.724H1059.14C1059.47 194.722 1059.78 194.777 1060.08 194.886C1060.37 194.995 1060.64 195.155 1060.86 195.356C1061.08 195.557 1061.25 195.795 1061.36 196.055C1061.47 196.315 1061.51 196.592 1061.49 196.868V196.868C1061.45 197.446 1061.15 197.988 1060.67 198.387C1060.18 198.786 1059.54 199.013 1058.87 199.021V199.021Z" fill="white"/>
<path d="M1042.06 206.538H1007.95C1007.63 206.539 1007.31 206.484 1007.01 206.375C1006.72 206.266 1006.45 206.105 1006.23 205.903C1006.01 205.701 1005.84 205.462 1005.73 205.201C1005.62 204.94 1005.57 204.662 1005.59 204.385C1005.64 203.808 1005.93 203.268 1006.42 202.871C1006.91 202.474 1007.55 202.249 1008.22 202.241H1042.34C1042.66 202.239 1042.98 202.294 1043.27 202.403C1043.57 202.511 1043.83 202.671 1044.05 202.872C1044.28 203.073 1044.45 203.311 1044.56 203.571C1044.67 203.831 1044.71 204.108 1044.69 204.385C1044.65 204.963 1044.35 205.506 1043.86 205.905C1043.38 206.304 1042.73 206.53 1042.06 206.538V206.538Z" fill="white"/>
<path d="M1043.76 336.402H999.642C999.321 336.403 999.003 336.346 998.708 336.236C998.413 336.127 998.148 335.966 997.928 335.764C997.708 335.562 997.538 335.324 997.43 335.063C997.321 334.802 997.276 334.525 997.296 334.249C997.34 333.672 997.635 333.13 998.121 332.733C998.608 332.335 999.251 332.111 999.922 332.105H1043.98C1044.31 332.104 1044.62 332.159 1044.92 332.267C1045.21 332.376 1045.48 332.535 1045.7 332.736C1045.92 332.937 1046.09 333.175 1046.2 333.436C1046.31 333.696 1046.36 333.973 1046.34 334.249C1046.3 334.82 1046.01 335.356 1045.53 335.754C1045.05 336.152 1044.42 336.383 1043.76 336.402V336.402Z" fill="white"/>
<path d="M1020.99 343.909H999.244C998.923 343.911 998.605 343.856 998.309 343.748C998.014 343.639 997.748 343.479 997.527 343.278C997.306 343.077 997.135 342.839 997.025 342.579C996.915 342.319 996.868 342.042 996.888 341.766V341.766C996.933 341.189 997.229 340.649 997.715 340.252C998.202 339.855 998.843 339.63 999.513 339.622H1021.29C1021.61 339.62 1021.93 339.675 1022.23 339.784C1022.52 339.893 1022.79 340.052 1023.01 340.253C1023.23 340.454 1023.4 340.692 1023.51 340.952C1023.62 341.212 1023.67 341.489 1023.65 341.766V341.766C1023.6 342.347 1023.3 342.891 1022.81 343.289C1022.31 343.687 1021.67 343.908 1020.99 343.909V343.909Z" fill="white"/>
<path d="M1056.48 236.586H1006.03C1005.36 236.594 1004.72 236.819 1004.24 237.216C1003.75 237.613 1003.45 238.154 1003.41 238.73V238.73C1003.39 239.006 1003.44 239.283 1003.55 239.543C1003.66 239.804 1003.83 240.042 1004.05 240.242C1004.27 240.443 1004.53 240.603 1004.83 240.712C1005.13 240.82 1005.44 240.875 1005.76 240.874H1056.21C1056.88 240.866 1057.52 240.641 1058.01 240.244C1058.49 239.847 1058.79 239.306 1058.83 238.73V238.73C1058.85 238.454 1058.81 238.177 1058.7 237.916C1058.59 237.656 1058.41 237.418 1058.19 237.217C1057.97 237.016 1057.71 236.857 1057.41 236.748C1057.12 236.64 1056.8 236.584 1056.48 236.586V236.586Z" fill="white"/>
<path d="M1040.63 229.069H1006.52C1005.85 229.077 1005.21 229.302 1004.72 229.699C1004.23 230.096 1003.94 230.637 1003.89 231.213V231.213C1003.87 231.49 1003.92 231.767 1004.03 232.027C1004.13 232.288 1004.3 232.527 1004.52 232.728C1004.74 232.93 1005.01 233.091 1005.3 233.201C1005.6 233.31 1005.92 233.367 1006.24 233.366H1040.36C1041.03 233.356 1041.67 233.129 1042.16 232.73C1042.64 232.332 1042.94 231.79 1042.98 231.213C1043 230.936 1042.96 230.659 1042.85 230.398C1042.74 230.137 1042.57 229.899 1042.35 229.698C1042.13 229.496 1041.86 229.337 1041.56 229.229C1041.27 229.12 1040.95 229.066 1040.63 229.069Z" fill="white"/>
<path d="M1029.93 267.711H1004.11C1003.79 267.712 1003.47 267.656 1003.17 267.546C1002.88 267.436 1002.61 267.275 1002.39 267.074C1002.17 266.872 1002 266.633 1001.9 266.373C1001.79 266.112 1001.74 265.835 1001.76 265.558V265.558C1001.81 264.981 1002.1 264.44 1002.59 264.042C1003.07 263.645 1003.72 263.421 1004.39 263.415H1030.21C1030.54 263.409 1030.86 263.461 1031.16 263.568C1031.46 263.675 1031.73 263.834 1031.95 264.036C1032.17 264.237 1032.35 264.476 1032.46 264.738C1032.57 265 1032.62 265.28 1032.6 265.558V265.558C1032.55 266.142 1032.25 266.689 1031.76 267.088C1031.26 267.488 1030.61 267.71 1029.93 267.711V267.711Z" fill="white"/>
<path d="M1054.5 267.711H1039.26C1038.94 267.713 1038.62 267.658 1038.32 267.549C1038.03 267.44 1037.76 267.279 1037.54 267.077C1037.32 266.875 1037.15 266.636 1037.04 266.375C1036.93 266.113 1036.88 265.836 1036.9 265.558V265.558C1036.95 264.982 1037.25 264.442 1037.73 264.045C1038.22 263.648 1038.86 263.423 1039.53 263.415H1054.78C1055.1 263.413 1055.41 263.468 1055.71 263.577C1056 263.685 1056.27 263.845 1056.49 264.046C1056.71 264.247 1056.88 264.485 1056.99 264.746C1057.1 265.006 1057.14 265.282 1057.12 265.558V265.558C1057.08 266.136 1056.78 266.677 1056.3 267.076C1055.81 267.474 1055.17 267.701 1054.5 267.711V267.711Z" fill="white"/>
<path d="M1037.69 275.219H1003.55C1003.23 275.221 1002.91 275.166 1002.61 275.057C1002.32 274.948 1002.05 274.789 1001.83 274.588C1001.61 274.387 1001.44 274.149 1001.33 273.889C1001.22 273.628 1001.17 273.352 1001.19 273.075C1001.24 272.499 1001.53 271.959 1002.02 271.561C1002.51 271.164 1003.15 270.939 1003.82 270.931H1037.98C1038.3 270.93 1038.62 270.985 1038.91 271.093C1039.21 271.202 1039.48 271.362 1039.7 271.563C1039.92 271.764 1040.09 272.002 1040.2 272.262C1040.31 272.522 1040.36 272.799 1040.34 273.075C1040.29 273.655 1039.99 274.198 1039.5 274.595C1039.01 274.993 1038.36 275.216 1037.69 275.219V275.219Z" fill="white"/>
<path d="M994.94 374.042H936.836C936.384 374.051 935.935 373.978 935.518 373.828C935.101 373.677 934.725 373.453 934.414 373.17C934.104 372.886 933.866 372.55 933.716 372.182C933.566 371.814 933.507 371.423 933.543 371.035V371.035C933.608 370.227 934.022 369.47 934.704 368.913C935.385 368.356 936.285 368.04 937.223 368.028H995.327C995.779 368.019 996.228 368.092 996.646 368.242C997.063 368.392 997.439 368.616 997.749 368.9C998.06 369.183 998.297 369.52 998.447 369.888C998.597 370.255 998.656 370.646 998.62 371.035C998.558 371.843 998.144 372.602 997.462 373.159C996.78 373.717 995.88 374.032 994.94 374.042V374.042Z" fill="white"/>
<path d="M1046.74 374.042H1011.08C1010.63 374.051 1010.18 373.978 1009.76 373.828C1009.34 373.677 1008.97 373.453 1008.66 373.17C1008.35 372.886 1008.11 372.55 1007.96 372.182C1007.81 371.814 1007.75 371.423 1007.79 371.035V371.035C1007.85 370.227 1008.27 369.47 1008.95 368.913C1009.63 368.356 1010.53 368.04 1011.47 368.028H1047.13C1047.58 368.019 1048.03 368.092 1048.44 368.242C1048.86 368.392 1049.24 368.616 1049.55 368.9C1049.86 369.183 1050.1 369.52 1050.25 369.888C1050.4 370.255 1050.45 370.646 1050.42 371.035V371.035C1050.35 371.843 1049.94 372.6 1049.26 373.157C1048.58 373.714 1047.68 374.03 1046.74 374.042V374.042Z" fill="white"/>
<path d="M980.414 384.528H936.19C935.738 384.537 935.289 384.464 934.872 384.314C934.455 384.164 934.079 383.94 933.769 383.656C933.458 383.373 933.22 383.036 933.07 382.669C932.92 382.301 932.862 381.91 932.898 381.521V381.521C932.96 380.713 933.373 379.954 934.056 379.397C934.738 378.839 935.638 378.524 936.578 378.515H980.791C981.243 378.505 981.692 378.578 982.109 378.729C982.526 378.879 982.902 379.103 983.212 379.386C983.523 379.67 983.761 380.006 983.911 380.374C984.061 380.742 984.119 381.133 984.083 381.521V381.521C984.021 382.328 983.609 383.086 982.929 383.643C982.25 384.2 981.352 384.516 980.414 384.528Z" fill="white"/>
<path d="M1028.44 395.07H935.523C935.071 395.079 934.622 395.006 934.205 394.856C933.788 394.706 933.412 394.482 933.101 394.198C932.791 393.915 932.553 393.578 932.403 393.211C932.253 392.843 932.194 392.452 932.231 392.063V392.063C932.293 391.256 932.705 390.499 933.384 389.942C934.064 389.385 934.962 389.069 935.9 389.057H1028.81C1029.26 389.048 1029.71 389.12 1030.13 389.271C1030.55 389.421 1030.92 389.645 1031.23 389.928C1031.54 390.212 1031.78 390.548 1031.93 390.916C1032.08 391.284 1032.14 391.675 1032.11 392.063C1032.04 392.87 1031.63 393.628 1030.95 394.185C1030.27 394.742 1029.37 395.058 1028.44 395.07Z" fill="white"/>
<path d="M1016.6 305.277H1001.67C1001 305.285 1000.35 305.51 999.867 305.907C999.381 306.304 999.085 306.844 999.04 307.42V307.42C999.02 307.697 999.067 307.974 999.177 308.234C999.287 308.494 999.458 308.732 999.679 308.933C999.9 309.134 1000.17 309.294 1000.46 309.402C1000.76 309.511 1001.07 309.566 1001.4 309.564H1016.33C1017 309.556 1017.64 309.331 1018.13 308.934C1018.62 308.537 1018.91 307.997 1018.96 307.42C1018.98 307.144 1018.93 306.867 1018.82 306.607C1018.71 306.347 1018.54 306.109 1018.32 305.908C1018.1 305.707 1017.83 305.547 1017.53 305.439C1017.24 305.33 1016.92 305.275 1016.6 305.277V305.277Z" fill="white"/>
<path d="M1043.24 305.277H1025.93C1025.26 305.285 1024.62 305.51 1024.13 305.907C1023.64 306.304 1023.35 306.844 1023.3 307.42V307.42C1023.28 307.697 1023.33 307.974 1023.44 308.234C1023.55 308.494 1023.72 308.732 1023.94 308.933C1024.16 309.134 1024.43 309.294 1024.73 309.402C1025.02 309.511 1025.34 309.566 1025.66 309.564H1042.97C1043.64 309.556 1044.28 309.331 1044.77 308.934C1045.26 308.537 1045.55 307.997 1045.6 307.42C1045.62 307.144 1045.57 306.866 1045.46 306.605C1045.35 306.345 1045.18 306.106 1044.96 305.905C1044.74 305.704 1044.47 305.544 1044.18 305.436C1043.88 305.328 1043.56 305.274 1043.24 305.277V305.277Z" fill="white"/>
<path d="M1036.26 297.76H1002.15C1001.48 297.766 1000.84 297.99 1000.35 298.387C999.862 298.785 999.567 299.327 999.524 299.904C999.503 300.18 999.549 300.457 999.657 300.718C999.766 300.978 999.935 301.217 1000.16 301.419C1000.38 301.621 1000.64 301.781 1000.94 301.891C1001.23 302.001 1001.55 302.057 1001.87 302.057H1035.99C1036.66 302.046 1037.3 301.819 1037.79 301.421C1038.27 301.022 1038.57 300.481 1038.61 299.904V299.904C1038.63 299.627 1038.59 299.35 1038.48 299.09C1038.37 298.83 1038.2 298.592 1037.98 298.391C1037.75 298.19 1037.49 298.03 1037.19 297.922C1036.9 297.813 1036.58 297.758 1036.26 297.76V297.76Z" fill="white"/>
<path d="M847.528 242.665C844.009 245.179 840.373 247.917 837.026 250.664C835.348 252.047 833.712 253.448 832.195 254.896C830.724 256.256 829.375 257.711 828.16 259.248L827.956 259.508L827.859 259.656C827.77 259.774 827.695 259.898 827.633 260.027C827.482 260.315 827.342 260.677 827.192 261.058C826.905 261.901 826.682 262.76 826.524 263.628C826.189 265.566 825.973 267.517 825.879 269.475C825.653 273.483 825.653 277.669 825.739 281.761L820.703 282.411C819.442 278.213 818.578 273.933 818.121 269.614C817.881 267.371 817.82 265.117 817.938 262.867C818.024 261.652 818.203 260.443 818.476 259.248C818.627 258.574 818.832 257.911 819.089 257.262C819.251 256.9 819.369 256.566 819.584 256.186L819.886 255.629C819.993 255.462 820.068 255.36 820.155 255.211C821.472 253.158 823.01 251.216 824.749 249.411C826.361 247.679 828.074 246.019 829.882 244.437C833.423 241.31 837.205 238.393 841.201 235.705L847.528 242.665Z" fill="#B55B52"/>
<path d="M845.645 231.538C840.136 234.322 831.808 241.56 831.808 241.56L842.019 252.13C842.019 252.13 856.513 244.632 858.277 240.502C861.225 233.552 850.853 228.875 845.645 231.538Z" fill="#407BFF"/>
<path d="M825.513 280.193L826.761 286.476L819.993 285.631C819.993 285.631 818.605 281.362 822.145 279.896L825.513 280.193Z" fill="#B55B52"/>
<path d="M824.265 290.299L818.175 288.666L819.993 285.631L826.761 286.475L824.265 290.299Z" fill="#B55B52"/>
<path d="M886.608 209.34C886.608 209.98 887.017 210.5 887.512 210.509C888.007 210.519 888.384 209.999 888.373 209.368C888.362 208.737 887.964 208.208 887.469 208.199C886.974 208.189 886.598 208.709 886.608 209.34Z" fill="#263238"/>
<path d="M887.254 208.208L889.051 207.79C889.051 207.79 888.147 208.997 887.254 208.208Z" fill="#263238"/>
<path d="M887.243 209.971C887.936 211.441 888.855 212.824 889.976 214.082C889.592 214.309 889.156 214.461 888.697 214.528C888.238 214.595 887.768 214.576 887.318 214.472L887.243 209.971Z" fill="#A02724"/>
<path d="M887.544 205.099C887.474 205.117 887.399 205.117 887.329 205.099C886.799 204.932 886.231 204.875 885.671 204.931C885.11 204.988 884.573 205.156 884.101 205.424C884.056 205.455 884.003 205.477 883.948 205.49C883.892 205.503 883.834 205.506 883.776 205.499C883.719 205.492 883.664 205.475 883.614 205.45C883.565 205.424 883.522 205.39 883.488 205.35C883.419 205.269 883.389 205.169 883.405 205.07C883.421 204.971 883.482 204.882 883.574 204.821C884.157 204.486 884.821 204.273 885.516 204.197C886.21 204.121 886.916 204.186 887.577 204.385C887.686 204.416 887.776 204.484 887.828 204.572C887.88 204.661 887.891 204.763 887.856 204.858C887.83 204.916 887.788 204.969 887.734 205.011C887.68 205.053 887.615 205.083 887.544 205.099V205.099Z" fill="#263238"/>
<path d="M864.679 216.152C865.174 220.949 863.313 228.81 859.117 231.482C859.117 231.482 862.28 236.531 872.416 237.709C883.574 238.999 878.334 233.589 878.334 233.589C872.405 231.64 873.029 227.789 874.536 224.309L864.679 216.152Z" fill="#B55B52"/>
<path d="M884.489 237.319C889.793 238.563 895.367 239.76 900.833 240.827C903.588 241.338 906.342 241.755 909.097 242.266C911.851 242.776 914.617 243.101 917.36 243.407L918.436 243.528L919.147 243.593C919.642 243.593 920.223 243.593 920.761 243.593C922.011 243.517 923.255 243.372 924.484 243.156C927.148 242.682 929.781 242.084 932.371 241.365C937.675 239.936 943.055 238.21 948.317 236.428L950.706 240.298C945.746 243.098 940.54 245.558 935.136 247.657C932.34 248.747 929.465 249.677 926.528 250.441C924.958 250.843 923.358 251.153 921.74 251.369C920.848 251.474 919.95 251.539 919.05 251.564H917.586L916.51 251.49C910.585 251.136 904.691 250.46 898.864 249.467C893.055 248.533 887.308 247.332 881.648 245.866L884.489 237.319Z" fill="#B55B52"/>
<path d="M946.918 237.997L948.478 233.44L954.213 235.296C954.213 235.296 952.901 242.145 947.983 240.252L946.918 237.997Z" fill="#B55B52"/>
<path d="M951.803 230.415L957.657 230.981L954.213 235.296L948.478 233.44L951.803 230.415Z" fill="#B55B52"/>
<path d="M848.217 459.575L857.438 460.16L860.182 441.897L850.96 441.312L848.217 459.575Z" fill="#B55B52"/>
<path d="M780.213 424.172L786.476 430.167L803.972 419.736L797.709 413.751L780.213 424.172Z" fill="#B55B52"/>
<path d="M791.113 433.563C791.003 433.576 790.89 433.576 790.78 433.563C789.704 433.248 788.897 431.457 788.542 430.418C788.53 430.382 788.53 430.345 788.543 430.309C788.556 430.274 788.581 430.243 788.615 430.221C788.648 430.198 788.689 430.184 788.731 430.181C788.774 430.178 788.816 430.186 788.854 430.204C789.187 430.353 792.157 431.745 792.254 432.765C792.264 432.876 792.241 432.988 792.186 433.089C792.132 433.19 792.047 433.277 791.942 433.341C791.703 433.494 791.411 433.572 791.113 433.563V433.563ZM789.123 430.715C789.661 432.088 790.317 432.988 790.92 433.155C791.05 433.187 791.188 433.19 791.32 433.162C791.452 433.134 791.574 433.078 791.673 432.997C791.721 432.97 791.76 432.933 791.786 432.889C791.813 432.845 791.825 432.796 791.823 432.747C791.77 432.209 790.296 431.299 789.123 430.715Z" fill="#407BFF"/>
<path d="M791.468 431.086C790.485 431.069 789.518 430.863 788.639 430.483C788.606 430.464 788.579 430.44 788.561 430.411C788.542 430.381 788.532 430.349 788.531 430.315C788.53 430.282 788.541 430.249 788.562 430.221C788.583 430.193 788.613 430.171 788.649 430.158C788.735 430.111 791.016 429.026 792.275 429.397C792.44 429.442 792.59 429.518 792.717 429.619C792.843 429.72 792.942 429.844 793.007 429.981C793.093 430.113 793.123 430.267 793.092 430.417C793.061 430.566 792.97 430.701 792.835 430.798C792.43 431.023 791.948 431.125 791.468 431.086V431.086ZM789.23 430.315C790.306 430.696 792.071 430.872 792.555 430.52C792.63 430.455 792.717 430.362 792.555 430.13C792.515 430.041 792.453 429.961 792.373 429.895C792.293 429.829 792.197 429.78 792.092 429.749C791.094 429.682 790.095 429.879 789.23 430.315V430.315Z" fill="#407BFF"/>
<path d="M789.284 429.285L784.119 421.379C784.034 421.242 783.895 421.137 783.727 421.082C783.558 421.028 783.373 421.028 783.205 421.082L775.576 423.606C775.381 423.681 775.206 423.79 775.065 423.928C774.923 424.065 774.817 424.228 774.753 424.403C774.69 424.579 774.671 424.765 774.698 424.947C774.725 425.13 774.797 425.305 774.909 425.462C776.77 428.19 777.814 429.425 780.084 432.886C781.483 435.02 783.635 439.688 785.292 442.76C786.949 445.832 790.457 444.616 790.08 443.224C788.815 439.141 788.638 434.864 789.564 430.715C789.668 430.225 789.569 429.719 789.284 429.285V429.285Z" fill="#263238"/>
<path d="M861.451 460.42C860.475 460.403 859.503 460.31 858.546 460.141C858.503 460.133 858.463 460.113 858.432 460.085C858.402 460.057 858.381 460.022 858.374 459.984C858.367 459.945 858.375 459.905 858.396 459.869C858.417 459.834 858.451 459.806 858.492 459.789C858.912 459.603 862.657 457.933 863.765 458.517C863.869 458.567 863.957 458.64 864.019 458.727C864.081 458.815 864.116 458.916 864.12 459.019C864.141 459.192 864.112 459.367 864.037 459.528C863.962 459.69 863.843 459.833 863.69 459.947C863.026 460.316 862.238 460.482 861.451 460.42V460.42ZM859.299 459.872C861.333 460.16 862.85 460.086 863.431 459.65C863.529 459.575 863.604 459.481 863.651 459.376C863.697 459.271 863.714 459.158 863.7 459.046C863.701 459.006 863.69 458.965 863.668 458.929C863.645 458.894 863.612 458.863 863.571 458.842C862.936 458.555 860.817 459.241 859.278 459.872H859.299Z" fill="#407BFF"/>
<path d="M858.589 460.141C858.547 460.153 858.502 460.153 858.46 460.141C858.429 460.124 858.404 460.099 858.388 460.069C858.373 460.039 858.368 460.006 858.374 459.974C858.374 459.826 858.815 456.578 860.881 456.578H861.064C861.656 456.624 861.828 456.884 861.871 457.098C862.043 458.026 859.805 459.724 858.643 460.151C858.625 460.15 858.606 460.147 858.589 460.141V460.141ZM860.892 456.912C859.558 456.912 859.03 458.768 858.869 459.612C860.02 459.019 861.538 457.673 861.441 457.125C861.441 457.125 861.441 456.958 861.021 456.921L860.892 456.912Z" fill="#407BFF"/>
<path d="M858.019 459.028H847.646C847.466 459.028 847.292 459.083 847.154 459.183C847.016 459.283 846.924 459.422 846.893 459.575L845.505 466.647C845.477 466.824 845.494 467.004 845.554 467.175C845.614 467.347 845.715 467.505 845.852 467.639C845.989 467.774 846.157 467.881 846.346 467.955C846.535 468.029 846.74 468.067 846.947 468.067C850.562 468.011 852.327 467.825 856.868 467.825C859.665 467.825 865.476 468.076 869.339 468.076C873.201 468.076 873.513 464.781 871.91 464.475C864.722 463.139 861.925 461.283 859.547 459.52C859.121 459.206 858.58 459.031 858.019 459.028V459.028Z" fill="#263238"/>
<path opacity="0.2" d="M860.182 441.906L858.654 452.059L849.54 450.741L850.95 441.312L860.182 441.906Z" fill="black"/>
<path opacity="0.2" d="M797.698 413.751L803.961 419.746L796.73 424.052L790.242 418.196L797.698 413.751Z" fill="black"/>
<path d="M843.568 279.413L880.884 283.738C895.356 238.554 891.084 237.338 891.084 237.338C888.288 236.208 885.413 235.229 882.476 234.405L881.971 234.266C879.561 233.635 879.055 233.552 875.838 232.921C870.318 232.076 865.196 231.427 858.869 230.963C858.471 230.963 858.062 230.898 857.664 230.879C856.523 230.814 855.394 230.768 854.296 230.731C853.564 230.731 852.822 230.731 852.144 230.731H848.507C847.787 230.745 847.079 230.888 846.427 231.151C845.775 231.415 845.194 231.793 844.721 232.261C844.249 232.729 843.894 233.277 843.681 233.87C843.467 234.463 843.4 235.088 843.482 235.705C846.678 259.434 845.667 267.257 843.568 279.413Z" fill="#407BFF"/>
<path opacity="0.2" d="M881.96 247.555C882.218 249.652 887.835 253.485 889.783 252.455C890.342 249.94 890.751 247.815 891.041 246.108C888.222 245.922 882.702 243.24 881.96 247.555Z" fill="black"/>
<path d="M875.902 236.976C875.633 229.552 896.497 237.728 901.285 239.574L895.948 252.019C895.948 252.019 888.965 251.815 884.521 249.597C881.993 248.265 879.884 246.417 878.381 244.216C876.878 242.015 876.026 239.528 875.902 236.976V236.976Z" fill="#407BFF"/>
<path d="M861.516 207.28C862.205 215.131 862.301 218.462 867.014 222.546C874.084 228.68 885.22 226.508 887.286 218.704C889.148 211.679 887.706 200.023 878.678 196.794C876.74 196.045 874.609 195.745 872.496 195.924C870.382 196.102 868.359 196.753 866.627 197.812C864.894 198.871 863.511 200.301 862.615 201.961C861.719 203.622 861.34 205.455 861.516 207.28V207.28Z" fill="#B55B52"/>
<path d="M862.312 198.993C853.166 197.016 852.876 203.633 853.069 207.122C853.263 210.611 846.538 212.282 846.538 216.653C846.538 222.351 851.52 225.747 839.404 227.473C829.15 228.93 825.986 239.983 841.158 246.451C857.954 253.596 883.294 243.537 880.217 233.969C875.504 219.205 883.972 219.251 883.036 210.992C882.337 204.997 888.922 204.7 886.555 199.698C883.434 193.156 861.516 187.411 862.312 198.993Z" fill="#263238"/>
<path d="M851.724 210.064C850.465 204.347 851.154 200.561 853.769 198.789C857.137 196.497 862.312 198.483 862.527 198.566L862.086 199.411C862.086 199.411 857.277 197.555 854.425 199.513C852.155 201.062 851.606 204.552 852.779 209.888L851.724 210.064Z" fill="#263238"/>
<path d="M841.384 225.84C839.023 225.776 836.691 225.368 834.487 224.634L834.885 223.771C834.96 223.771 842.213 226.258 845.57 223.854C847.205 222.685 847.668 220.495 846.958 217.358L848.034 217.182C848.83 220.699 848.238 223.195 846.28 224.606C844.864 225.496 843.133 225.932 841.384 225.84V225.84Z" fill="#263238"/>
<path d="M880.55 210.444C880.463 211.909 880.903 213.361 881.809 214.602C883.058 216.356 884.747 216.031 885.296 214.546C885.844 213.061 885.748 210.676 884.058 209.405C882.369 208.134 880.723 208.82 880.55 210.444Z" fill="#B55B52"/>
<path d="M871.06 282.596C871.06 282.596 856.556 335.492 849.777 365.829C842.632 397.873 800.281 424.014 800.281 424.014L790.984 415.764C790.984 415.764 818.25 395.181 825.255 365.263C839.469 304.534 829.849 292.303 843.547 279.413L871.06 282.596Z" fill="#263238"/>
<path d="M801.077 425.202L789.467 414.901L792.727 411.876L806.21 422.112L801.077 425.202Z" fill="#407BFF"/>
<path opacity="0.2" d="M863.356 294.085C852.079 302.53 853.295 332.495 854.479 345.997C859.203 326.797 864.895 305.416 868.23 293.046C867.036 292.285 865.422 292.535 863.356 294.085Z" fill="black"/>
<path d="M880.368 283.766C880.368 283.766 886.888 346.526 883.327 370.469C879.625 395.367 860.731 449.544 860.731 449.544L847.528 448.068C847.528 448.068 858.288 394.374 860.257 369.726C862.345 342.814 853.059 280.638 853.059 280.638L880.368 283.766Z" fill="#263238"/>
<path d="M863.614 450.203L844.655 448.087L844.946 443.261L865.519 444.978L863.614 450.203Z" fill="#407BFF"/>
<path d="M843.224 277.474L841.18 280.137C841.029 280.351 841.309 280.611 841.739 280.657L880.884 285.232C881.218 285.232 881.519 285.158 881.562 284.981L882.251 282.197C882.304 282.003 882.025 281.798 881.659 281.752L843.837 277.381C843.734 277.351 843.624 277.343 843.517 277.36C843.41 277.376 843.309 277.415 843.224 277.474V277.474Z" fill="#407BFF"/>
<path opacity="0.3" d="M843.224 277.474L841.18 280.137C841.029 280.351 841.309 280.611 841.739 280.657L880.884 285.232C881.218 285.232 881.519 285.158 881.562 284.981L882.251 282.197C882.304 282.003 882.025 281.798 881.659 281.752L843.837 277.381C843.734 277.351 843.624 277.343 843.517 277.36C843.41 277.376 843.309 277.415 843.224 277.474V277.474Z" fill="black"/>
<path d="M847.872 281.678L846.861 281.566C846.656 281.566 846.517 281.436 846.549 281.325L847.474 277.66C847.474 277.557 847.689 277.492 847.894 277.511L848.905 277.632C849.11 277.632 849.25 277.762 849.228 277.864L848.292 281.529C848.27 281.641 848.077 281.706 847.872 281.678Z" fill="#263238"/>
<path d="M873.46 284.694L872.448 284.573C872.244 284.573 872.104 284.443 872.125 284.341L873.061 280.675C873.061 280.573 873.277 280.499 873.481 280.527L874.493 280.638C874.697 280.638 874.837 280.768 874.805 280.88L873.879 284.545C873.847 284.647 873.664 284.722 873.46 284.694Z" fill="#263238"/>
<path d="M92.924 199.852C92.924 196.316 93.7387 193.144 95.368 190.336C97.032 187.528 99.268 185.344 102.076 183.784C104.919 182.189 108.021 181.392 111.384 181.392C115.232 181.392 118.647 182.345 121.628 184.252C124.644 186.124 126.828 188.793 128.18 192.26H121.056C120.12 190.353 118.82 188.932 117.156 187.996C115.492 187.06 113.568 186.592 111.384 186.592C108.992 186.592 106.86 187.129 104.988 188.204C103.116 189.279 101.643 190.821 100.568 192.832C99.528 194.843 99.008 197.183 99.008 199.852C99.008 202.521 99.528 204.861 100.568 206.872C101.643 208.883 103.116 210.443 104.988 211.552C106.86 212.627 108.992 213.164 111.384 213.164C113.568 213.164 115.492 212.696 117.156 211.76C118.82 210.824 120.12 209.403 121.056 207.496H128.18C126.828 210.963 124.644 213.632 121.628 215.504C118.647 217.376 115.232 218.312 111.384 218.312C107.987 218.312 104.884 217.532 102.076 215.972C99.268 214.377 97.032 212.176 95.368 209.368C93.7387 206.56 92.924 203.388 92.924 199.852ZM151.603 218.364C148.24 218.364 145.137 217.584 142.295 216.024C139.487 214.429 137.251 212.228 135.587 209.42C133.957 206.577 133.143 203.388 133.143 199.852C133.143 196.316 133.957 193.144 135.587 190.336C137.251 187.528 139.487 185.344 142.295 183.784C145.137 182.189 148.24 181.392 151.603 181.392C155 181.392 158.103 182.189 160.911 183.784C163.753 185.344 165.989 187.528 167.619 190.336C169.248 193.144 170.063 196.316 170.063 199.852C170.063 203.388 169.248 206.577 167.619 209.42C165.989 212.228 163.753 214.429 160.911 216.024C158.103 217.584 155 218.364 151.603 218.364ZM151.603 213.216C153.995 213.216 156.127 212.679 157.999 211.604C159.871 210.495 161.327 208.935 162.367 206.924C163.441 204.879 163.979 202.521 163.979 199.852C163.979 197.183 163.441 194.843 162.367 192.832C161.327 190.821 159.871 189.279 157.999 188.204C156.127 187.129 153.995 186.592 151.603 186.592C149.211 186.592 147.079 187.129 145.207 188.204C143.335 189.279 141.861 190.821 140.787 192.832C139.747 194.843 139.227 197.183 139.227 199.852C139.227 202.521 139.747 204.879 140.787 206.924C141.861 208.935 143.335 210.495 145.207 211.604C147.079 212.679 149.211 213.216 151.603 213.216ZM213.96 181.86V218H208.032V193.248L197.008 218H192.9L181.824 193.248V218H175.896V181.86H182.292L194.98 210.2L207.616 181.86H213.96ZM227.68 181.86V218H221.752V181.86H227.68ZM265.155 218H259.227L241.391 191.012V218H235.463V181.808H241.391L259.227 208.744V181.808H265.155V218ZM299.095 192.26C298.159 190.457 296.859 189.105 295.195 188.204C293.531 187.268 291.607 186.8 289.423 186.8C287.031 186.8 284.899 187.337 283.027 188.412C281.155 189.487 279.682 191.012 278.607 192.988C277.567 194.964 277.047 197.252 277.047 199.852C277.047 202.452 277.567 204.757 278.607 206.768C279.682 208.744 281.155 210.269 283.027 211.344C284.899 212.419 287.031 212.956 289.423 212.956C292.647 212.956 295.264 212.055 297.275 210.252C299.286 208.449 300.516 206.005 300.967 202.92H287.395V198.188H307.311V202.816C306.93 205.624 305.924 208.207 304.295 210.564C302.7 212.921 300.603 214.811 298.003 216.232C295.438 217.619 292.578 218.312 289.423 218.312C286.026 218.312 282.923 217.532 280.115 215.972C277.307 214.377 275.071 212.176 273.407 209.368C271.778 206.56 270.963 203.388 270.963 199.852C270.963 196.316 271.778 193.144 273.407 190.336C275.071 187.528 277.307 185.344 280.115 183.784C282.958 182.189 286.06 181.392 289.423 181.392C293.271 181.392 296.686 182.345 299.667 184.252C302.683 186.124 304.867 188.793 306.219 192.26H299.095Z" fill="black"/>
<path d="M338.574 218.364C336.147 218.364 333.963 217.948 332.022 217.116C330.08 216.249 328.555 215.036 327.446 213.476C326.336 211.916 325.782 210.096 325.782 208.016H332.126C332.264 209.576 332.871 210.859 333.946 211.864C335.055 212.869 336.598 213.372 338.574 213.372C340.619 213.372 342.214 212.887 343.358 211.916C344.502 210.911 345.074 209.628 345.074 208.068C345.074 206.855 344.71 205.867 343.982 205.104C343.288 204.341 342.404 203.752 341.33 203.336C340.29 202.92 338.834 202.469 336.962 201.984C334.604 201.36 332.68 200.736 331.19 200.112C329.734 199.453 328.486 198.448 327.446 197.096C326.406 195.744 325.886 193.941 325.886 191.688C325.886 189.608 326.406 187.788 327.446 186.228C328.486 184.668 329.942 183.472 331.814 182.64C333.686 181.808 335.852 181.392 338.314 181.392C341.815 181.392 344.675 182.276 346.894 184.044C349.147 185.777 350.395 188.169 350.638 191.22H344.086C343.982 189.903 343.358 188.776 342.214 187.84C341.07 186.904 339.562 186.436 337.69 186.436C335.991 186.436 334.604 186.869 333.53 187.736C332.455 188.603 331.918 189.851 331.918 191.48C331.918 192.589 332.247 193.508 332.906 194.236C333.599 194.929 334.466 195.484 335.506 195.9C336.546 196.316 337.967 196.767 339.77 197.252C342.162 197.911 344.103 198.569 345.594 199.228C347.119 199.887 348.402 200.909 349.442 202.296C350.516 203.648 351.054 205.468 351.054 207.756C351.054 209.593 350.551 211.327 349.546 212.956C348.575 214.585 347.136 215.903 345.23 216.908C343.358 217.879 341.139 218.364 338.574 218.364ZM374.532 218.364C371.17 218.364 368.067 217.584 365.224 216.024C362.416 214.429 360.18 212.228 358.516 209.42C356.887 206.577 356.072 203.388 356.072 199.852C356.072 196.316 356.887 193.144 358.516 190.336C360.18 187.528 362.416 185.344 365.224 183.784C368.067 182.189 371.17 181.392 374.532 181.392C377.93 181.392 381.032 182.189 383.84 183.784C386.683 185.344 388.919 187.528 390.548 190.336C392.178 193.144 392.992 196.316 392.992 199.852C392.992 203.388 392.178 206.577 390.548 209.42C388.919 212.228 386.683 214.429 383.84 216.024C381.032 217.584 377.93 218.364 374.532 218.364ZM374.532 213.216C376.924 213.216 379.056 212.679 380.928 211.604C382.8 210.495 384.256 208.935 385.296 206.924C386.371 204.879 386.908 202.521 386.908 199.852C386.908 197.183 386.371 194.843 385.296 192.832C384.256 190.821 382.8 189.279 380.928 188.204C379.056 187.129 376.924 186.592 374.532 186.592C372.14 186.592 370.008 187.129 368.136 188.204C366.264 189.279 364.791 190.821 363.716 192.832C362.676 194.843 362.156 197.183 362.156 199.852C362.156 202.521 362.676 204.879 363.716 206.924C364.791 208.935 366.264 210.495 368.136 211.604C370.008 212.679 372.14 213.216 374.532 213.216ZM415.31 218.364C411.947 218.364 408.844 217.584 406.002 216.024C403.194 214.429 400.958 212.228 399.294 209.42C397.664 206.577 396.85 203.388 396.85 199.852C396.85 196.316 397.664 193.144 399.294 190.336C400.958 187.528 403.194 185.344 406.002 183.784C408.844 182.189 411.947 181.392 415.31 181.392C418.707 181.392 421.81 182.189 424.618 183.784C427.46 185.344 429.696 187.528 431.326 190.336C432.955 193.144 433.77 196.316 433.77 199.852C433.77 203.388 432.955 206.577 431.326 209.42C429.696 212.228 427.46 214.429 424.618 216.024C421.81 217.584 418.707 218.364 415.31 218.364ZM415.31 213.216C417.702 213.216 419.834 212.679 421.706 211.604C423.578 210.495 425.034 208.935 426.074 206.924C427.148 204.879 427.686 202.521 427.686 199.852C427.686 197.183 427.148 194.843 426.074 192.832C425.034 190.821 423.578 189.279 421.706 188.204C419.834 187.129 417.702 186.592 415.31 186.592C412.918 186.592 410.786 187.129 408.914 188.204C407.042 189.279 405.568 190.821 404.494 192.832C403.454 194.843 402.934 197.183 402.934 199.852C402.934 202.521 403.454 204.879 404.494 206.924C405.568 208.935 407.042 210.495 408.914 211.604C410.786 212.679 412.918 213.216 415.31 213.216ZM469.295 218H463.367L445.531 191.012V218H439.603V181.808H445.531L463.367 208.744V181.808H469.295V218ZM479.472 218.364C478.397 218.364 477.496 218 476.768 217.272C476.04 216.544 475.676 215.643 475.676 214.568C475.676 213.493 476.04 212.592 476.768 211.864C477.496 211.136 478.397 210.772 479.472 210.772C480.512 210.772 481.396 211.136 482.124 211.864C482.852 212.592 483.216 213.493 483.216 214.568C483.216 215.643 482.852 216.544 482.124 217.272C481.396 218 480.512 218.364 479.472 218.364Z" fill="#5177FF"/>
<path d="M110.06 299.06L106.02 313H103.98L100.74 301.78L97.38 313L95.36 313.02L91.46 299.06H93.4L96.44 310.88L99.8 299.06H101.84L105.04 310.84L108.1 299.06H110.06ZM122.052 307.1C122.052 307.447 122.032 307.813 121.992 308.2H113.232C113.298 309.28 113.665 310.127 114.332 310.74C115.012 311.34 115.832 311.64 116.792 311.64C117.578 311.64 118.232 311.46 118.752 311.1C119.285 310.727 119.658 310.233 119.872 309.62H121.832C121.538 310.673 120.952 311.533 120.072 312.2C119.192 312.853 118.098 313.18 116.792 313.18C115.752 313.18 114.818 312.947 113.992 312.48C113.178 312.013 112.538 311.353 112.072 310.5C111.605 309.633 111.372 308.633 111.372 307.5C111.372 306.367 111.598 305.373 112.052 304.52C112.505 303.667 113.138 303.013 113.952 302.56C114.778 302.093 115.725 301.86 116.792 301.86C117.832 301.86 118.752 302.087 119.552 302.54C120.352 302.993 120.965 303.62 121.392 304.42C121.832 305.207 122.052 306.1 122.052 307.1ZM120.172 306.72C120.172 306.027 120.018 305.433 119.712 304.94C119.405 304.433 118.985 304.053 118.452 303.8C117.932 303.533 117.352 303.4 116.712 303.4C115.792 303.4 115.005 303.693 114.352 304.28C113.712 304.867 113.345 305.68 113.252 306.72H120.172ZM129.106 307.48C129.106 306.36 129.333 305.38 129.786 304.54C130.239 303.687 130.859 303.027 131.646 302.56C132.446 302.093 133.333 301.86 134.306 301.86C135.266 301.86 136.099 302.067 136.806 302.48C137.513 302.893 138.039 303.413 138.386 304.04V302.04H140.226V313H138.386V310.96C138.026 311.6 137.486 312.133 136.766 312.56C136.059 312.973 135.233 313.18 134.286 313.18C133.313 313.18 132.433 312.94 131.646 312.46C130.859 311.98 130.239 311.307 129.786 310.44C129.333 309.573 129.106 308.587 129.106 307.48ZM138.386 307.5C138.386 306.673 138.219 305.953 137.886 305.34C137.553 304.727 137.099 304.26 136.526 303.94C135.966 303.607 135.346 303.44 134.666 303.44C133.986 303.44 133.366 303.6 132.806 303.92C132.246 304.24 131.799 304.707 131.466 305.32C131.133 305.933 130.966 306.653 130.966 307.48C130.966 308.32 131.133 309.053 131.466 309.68C131.799 310.293 132.246 310.767 132.806 311.1C133.366 311.42 133.986 311.58 134.666 311.58C135.346 311.58 135.966 311.42 136.526 311.1C137.099 310.767 137.553 310.293 137.886 309.68C138.219 309.053 138.386 308.327 138.386 307.5ZM145.122 303.82C145.442 303.193 145.895 302.707 146.482 302.36C147.082 302.013 147.808 301.84 148.662 301.84V303.72H148.182C146.142 303.72 145.122 304.827 145.122 307.04V313H143.302V302.04H145.122V303.82ZM160.763 307.1C160.763 307.447 160.743 307.813 160.703 308.2H151.943C152.009 309.28 152.376 310.127 153.043 310.74C153.723 311.34 154.543 311.64 155.503 311.64C156.289 311.64 156.943 311.46 157.463 311.1C157.996 310.727 158.369 310.233 158.583 309.62H160.543C160.249 310.673 159.663 311.533 158.783 312.2C157.903 312.853 156.809 313.18 155.503 313.18C154.463 313.18 153.529 312.947 152.703 312.48C151.889 312.013 151.249 311.353 150.783 310.5C150.316 309.633 150.083 308.633 150.083 307.5C150.083 306.367 150.309 305.373 150.763 304.52C151.216 303.667 151.849 303.013 152.663 302.56C153.489 302.093 154.436 301.86 155.503 301.86C156.543 301.86 157.463 302.087 158.263 302.54C159.063 302.993 159.676 303.62 160.103 304.42C160.543 305.207 160.763 306.1 160.763 307.1ZM158.883 306.72C158.883 306.027 158.729 305.433 158.423 304.94C158.116 304.433 157.696 304.053 157.163 303.8C156.643 303.533 156.063 303.4 155.423 303.4C154.503 303.4 153.716 303.693 153.063 304.28C152.423 304.867 152.056 305.68 151.963 306.72H158.883ZM169.477 300.26C169.13 300.26 168.837 300.14 168.597 299.9C168.37 299.66 168.257 299.367 168.257 299.02C168.257 298.673 168.37 298.38 168.597 298.14C168.837 297.9 169.13 297.78 169.477 297.78C169.824 297.78 170.11 297.9 170.337 298.14C170.577 298.38 170.697 298.673 170.697 299.02C170.697 299.367 170.577 299.66 170.337 299.9C170.11 300.14 169.824 300.26 169.477 300.26ZM170.377 315.38C170.377 316.353 170.13 317.067 169.637 317.52C169.144 317.973 168.424 318.2 167.477 318.2H166.417V316.66H167.177C167.684 316.66 168.037 316.56 168.237 316.36C168.45 316.16 168.557 315.82 168.557 315.34V302.04H170.377V315.38ZM183.178 302.04V313H181.358V311.38C181.011 311.94 180.525 312.38 179.898 312.7C179.285 313.007 178.605 313.16 177.858 313.16C177.005 313.16 176.238 312.987 175.558 312.64C174.878 312.28 174.338 311.747 173.938 311.04C173.551 310.333 173.358 309.473 173.358 308.46V302.04H175.158V308.22C175.158 309.3 175.431 310.133 175.978 310.72C176.525 311.293 177.271 311.58 178.218 311.58C179.191 311.58 179.958 311.28 180.518 310.68C181.078 310.08 181.358 309.207 181.358 308.06V302.04H183.178ZM190.131 313.18C189.291 313.18 188.538 313.04 187.871 312.76C187.204 312.467 186.678 312.067 186.291 311.56C185.904 311.04 185.691 310.447 185.651 309.78H187.531C187.584 310.327 187.838 310.773 188.291 311.12C188.758 311.467 189.364 311.64 190.111 311.64C190.804 311.64 191.351 311.487 191.751 311.18C192.151 310.873 192.351 310.487 192.351 310.02C192.351 309.54 192.138 309.187 191.711 308.96C191.284 308.72 190.624 308.487 189.731 308.26C188.918 308.047 188.251 307.833 187.731 307.62C187.224 307.393 186.784 307.067 186.411 306.64C186.051 306.2 185.871 305.627 185.871 304.92C185.871 304.36 186.038 303.847 186.371 303.38C186.704 302.913 187.178 302.547 187.791 302.28C188.404 302 189.104 301.86 189.891 301.86C191.104 301.86 192.084 302.167 192.831 302.78C193.578 303.393 193.978 304.233 194.031 305.3H192.211C192.171 304.727 191.938 304.267 191.511 303.92C191.098 303.573 190.538 303.4 189.831 303.4C189.178 303.4 188.658 303.54 188.271 303.82C187.884 304.1 187.691 304.467 187.691 304.92C187.691 305.28 187.804 305.58 188.031 305.82C188.271 306.047 188.564 306.233 188.911 306.38C189.271 306.513 189.764 306.667 190.391 306.84C191.178 307.053 191.818 307.267 192.311 307.48C192.804 307.68 193.224 307.987 193.571 308.4C193.931 308.813 194.118 309.353 194.131 310.02C194.131 310.62 193.964 311.16 193.631 311.64C193.298 312.12 192.824 312.5 192.211 312.78C191.611 313.047 190.918 313.18 190.131 313.18ZM198.92 303.54V310C198.92 310.533 199.033 310.913 199.26 311.14C199.487 311.353 199.88 311.46 200.44 311.46H201.78V313H200.14C199.127 313 198.367 312.767 197.86 312.3C197.353 311.833 197.1 311.067 197.1 310V303.54H195.68V302.04H197.1V299.28H198.92V302.04H201.78V303.54H198.92ZM219.037 302.04V313H217.217V311.38C216.871 311.94 216.384 312.38 215.757 312.7C215.144 313.007 214.464 313.16 213.717 313.16C212.864 313.16 212.097 312.987 211.417 312.64C210.737 312.28 210.197 311.747 209.797 311.04C209.411 310.333 209.217 309.473 209.217 308.46V302.04H211.017V308.22C211.017 309.3 211.291 310.133 211.837 310.72C212.384 311.293 213.131 311.58 214.077 311.58C215.051 311.58 215.817 311.28 216.377 310.68C216.937 310.08 217.217 309.207 217.217 308.06V302.04H219.037ZM223.93 304.06C224.29 303.433 224.824 302.913 225.53 302.5C226.25 302.073 227.084 301.86 228.03 301.86C229.004 301.86 229.884 302.093 230.67 302.56C231.47 303.027 232.097 303.687 232.55 304.54C233.004 305.38 233.23 306.36 233.23 307.48C233.23 308.587 233.004 309.573 232.55 310.44C232.097 311.307 231.47 311.98 230.67 312.46C229.884 312.94 229.004 313.18 228.03 313.18C227.097 313.18 226.27 312.973 225.55 312.56C224.844 312.133 224.304 311.607 223.93 310.98V318.2H222.11V302.04H223.93V304.06ZM231.37 307.48C231.37 306.653 231.204 305.933 230.87 305.32C230.537 304.707 230.084 304.24 229.51 303.92C228.95 303.6 228.33 303.44 227.65 303.44C226.984 303.44 226.364 303.607 225.79 303.94C225.23 304.26 224.777 304.733 224.43 305.36C224.097 305.973 223.93 306.687 223.93 307.5C223.93 308.327 224.097 309.053 224.43 309.68C224.777 310.293 225.23 310.767 225.79 311.1C226.364 311.42 226.984 311.58 227.65 311.58C228.33 311.58 228.95 311.42 229.51 311.1C230.084 310.767 230.537 310.293 230.87 309.68C231.204 309.053 231.37 308.32 231.37 307.48ZM234.946 307.48C234.946 306.36 235.173 305.38 235.626 304.54C236.079 303.687 236.699 303.027 237.486 302.56C238.286 302.093 239.179 301.86 240.166 301.86C241.019 301.86 241.813 302.06 242.546 302.46C243.279 302.847 243.839 303.36 244.226 304V298.2H246.066V313H244.226V310.94C243.866 311.593 243.333 312.133 242.626 312.56C241.919 312.973 241.093 313.18 240.146 313.18C239.173 313.18 238.286 312.94 237.486 312.46C236.699 311.98 236.079 311.307 235.626 310.44C235.173 309.573 234.946 308.587 234.946 307.48ZM244.226 307.5C244.226 306.673 244.059 305.953 243.726 305.34C243.393 304.727 242.939 304.26 242.366 303.94C241.806 303.607 241.186 303.44 240.506 303.44C239.826 303.44 239.206 303.6 238.646 303.92C238.086 304.24 237.639 304.707 237.306 305.32C236.973 305.933 236.806 306.653 236.806 307.48C236.806 308.32 236.973 309.053 237.306 309.68C237.639 310.293 238.086 310.767 238.646 311.1C239.206 311.42 239.826 311.58 240.506 311.58C241.186 311.58 241.806 311.42 242.366 311.1C242.939 310.767 243.393 310.293 243.726 309.68C244.059 309.053 244.226 308.327 244.226 307.5ZM248.462 307.48C248.462 306.36 248.688 305.38 249.142 304.54C249.595 303.687 250.215 303.027 251.002 302.56C251.802 302.093 252.688 301.86 253.662 301.86C254.622 301.86 255.455 302.067 256.162 302.48C256.868 302.893 257.395 303.413 257.742 304.04V302.04H259.582V313H257.742V310.96C257.382 311.6 256.842 312.133 256.122 312.56C255.415 312.973 254.588 313.18 253.642 313.18C252.668 313.18 251.788 312.94 251.002 312.46C250.215 311.98 249.595 311.307 249.142 310.44C248.688 309.573 248.462 308.587 248.462 307.48ZM257.742 307.5C257.742 306.673 257.575 305.953 257.242 305.34C256.908 304.727 256.455 304.26 255.882 303.94C255.322 303.607 254.702 303.44 254.022 303.44C253.342 303.44 252.722 303.6 252.162 303.92C251.602 304.24 251.155 304.707 250.822 305.32C250.488 305.933 250.322 306.653 250.322 307.48C250.322 308.32 250.488 309.053 250.822 309.68C251.155 310.293 251.602 310.767 252.162 311.1C252.722 311.42 253.342 311.58 254.022 311.58C254.702 311.58 255.322 311.42 255.882 311.1C256.455 310.767 256.908 310.293 257.242 309.68C257.575 309.053 257.742 308.327 257.742 307.5ZM264.877 303.54V310C264.877 310.533 264.991 310.913 265.217 311.14C265.444 311.353 265.837 311.46 266.397 311.46H267.737V313H266.097C265.084 313 264.324 312.767 263.817 312.3C263.311 311.833 263.057 311.067 263.057 310V303.54H261.637V302.04H263.057V299.28H264.877V302.04H267.737V303.54H264.877ZM270.882 300.26C270.536 300.26 270.242 300.14 270.002 299.9C269.762 299.66 269.642 299.367 269.642 299.02C269.642 298.673 269.762 298.38 270.002 298.14C270.242 297.9 270.536 297.78 270.882 297.78C271.216 297.78 271.496 297.9 271.722 298.14C271.962 298.38 272.082 298.673 272.082 299.02C272.082 299.367 271.962 299.66 271.722 299.9C271.496 300.14 271.216 300.26 270.882 300.26ZM271.762 302.04V313H269.942V302.04H271.762ZM280.204 301.84C281.538 301.84 282.618 302.247 283.444 303.06C284.271 303.86 284.684 305.02 284.684 306.54V313H282.884V306.8C282.884 305.707 282.611 304.873 282.064 304.3C281.518 303.713 280.771 303.42 279.824 303.42C278.864 303.42 278.098 303.72 277.524 304.32C276.964 304.92 276.684 305.793 276.684 306.94V313H274.864V302.04H276.684V303.6C277.044 303.04 277.531 302.607 278.144 302.3C278.771 301.993 279.458 301.84 280.204 301.84ZM292.177 301.86C293.124 301.86 293.951 302.067 294.657 302.48C295.377 302.893 295.911 303.413 296.257 304.04V302.04H298.097V313.24C298.097 314.24 297.884 315.127 297.457 315.9C297.031 316.687 296.417 317.3 295.617 317.74C294.831 318.18 293.911 318.4 292.857 318.4C291.417 318.4 290.217 318.06 289.257 317.38C288.297 316.7 287.731 315.773 287.557 314.6H289.357C289.557 315.267 289.971 315.8 290.597 316.2C291.224 316.613 291.977 316.82 292.857 316.82C293.857 316.82 294.671 316.507 295.297 315.88C295.937 315.253 296.257 314.373 296.257 313.24V310.94C295.897 311.58 295.364 312.113 294.657 312.54C293.951 312.967 293.124 313.18 292.177 313.18C291.204 313.18 290.317 312.94 289.517 312.46C288.731 311.98 288.111 311.307 287.657 310.44C287.204 309.573 286.977 308.587 286.977 307.48C286.977 306.36 287.204 305.38 287.657 304.54C288.111 303.687 288.731 303.027 289.517 302.56C290.317 302.093 291.204 301.86 292.177 301.86ZM296.257 307.5C296.257 306.673 296.091 305.953 295.757 305.34C295.424 304.727 294.971 304.26 294.397 303.94C293.837 303.607 293.217 303.44 292.537 303.44C291.857 303.44 291.237 303.6 290.677 303.92C290.117 304.24 289.671 304.707 289.337 305.32C289.004 305.933 288.837 306.653 288.837 307.48C288.837 308.32 289.004 309.053 289.337 309.68C289.671 310.293 290.117 310.767 290.677 311.1C291.237 311.42 291.857 311.58 292.537 311.58C293.217 311.58 293.837 311.42 294.397 311.1C294.971 310.767 295.424 310.293 295.757 309.68C296.091 309.053 296.257 308.327 296.257 307.5ZM311.285 313.18C310.258 313.18 309.325 312.947 308.485 312.48C307.658 312.013 307.005 311.353 306.525 310.5C306.058 309.633 305.825 308.633 305.825 307.5C305.825 306.38 306.065 305.393 306.545 304.54C307.038 303.673 307.705 303.013 308.545 302.56C309.385 302.093 310.325 301.86 311.365 301.86C312.405 301.86 313.345 302.093 314.185 302.56C315.025 303.013 315.685 303.667 316.165 304.52C316.658 305.373 316.905 306.367 316.905 307.5C316.905 308.633 316.652 309.633 316.145 310.5C315.652 311.353 314.978 312.013 314.125 312.48C313.272 312.947 312.325 313.18 311.285 313.18ZM311.285 311.58C311.938 311.58 312.552 311.427 313.125 311.12C313.698 310.813 314.158 310.353 314.505 309.74C314.865 309.127 315.045 308.38 315.045 307.5C315.045 306.62 314.872 305.873 314.525 305.26C314.178 304.647 313.725 304.193 313.165 303.9C312.605 303.593 311.998 303.44 311.345 303.44C310.678 303.44 310.065 303.593 309.505 303.9C308.958 304.193 308.518 304.647 308.185 305.26C307.852 305.873 307.685 306.62 307.685 307.5C307.685 308.393 307.845 309.147 308.165 309.76C308.498 310.373 308.938 310.833 309.485 311.14C310.032 311.433 310.632 311.58 311.285 311.58ZM329.018 302.04V313H327.198V311.38C326.851 311.94 326.364 312.38 325.738 312.7C325.124 313.007 324.444 313.16 323.698 313.16C322.844 313.16 322.078 312.987 321.398 312.64C320.718 312.28 320.178 311.747 319.778 311.04C319.391 310.333 319.198 309.473 319.198 308.46V302.04H320.998V308.22C320.998 309.3 321.271 310.133 321.818 310.72C322.364 311.293 323.111 311.58 324.058 311.58C325.031 311.58 325.798 311.28 326.358 310.68C326.918 310.08 327.198 309.207 327.198 308.06V302.04H329.018ZM333.911 303.82C334.231 303.193 334.684 302.707 335.271 302.36C335.871 302.013 336.597 301.84 337.451 301.84V303.72H336.971C334.931 303.72 333.911 304.827 333.911 307.04V313H332.091V302.04H333.911V303.82ZM348.764 313.18C347.924 313.18 347.17 313.04 346.504 312.76C345.837 312.467 345.31 312.067 344.924 311.56C344.537 311.04 344.324 310.447 344.284 309.78H346.164C346.217 310.327 346.47 310.773 346.924 311.12C347.39 311.467 347.997 311.64 348.744 311.64C349.437 311.64 349.984 311.487 350.384 311.18C350.784 310.873 350.984 310.487 350.984 310.02C350.984 309.54 350.77 309.187 350.344 308.96C349.917 308.72 349.257 308.487 348.364 308.26C347.55 308.047 346.884 307.833 346.364 307.62C345.857 307.393 345.417 307.067 345.044 306.64C344.684 306.2 344.504 305.627 344.504 304.92C344.504 304.36 344.67 303.847 345.004 303.38C345.337 302.913 345.81 302.547 346.424 302.28C347.037 302 347.737 301.86 348.524 301.86C349.737 301.86 350.717 302.167 351.464 302.78C352.21 303.393 352.61 304.233 352.664 305.3H350.844C350.804 304.727 350.57 304.267 350.144 303.92C349.73 303.573 349.17 303.4 348.464 303.4C347.81 303.4 347.29 303.54 346.904 303.82C346.517 304.1 346.324 304.467 346.324 304.92C346.324 305.28 346.437 305.58 346.664 305.82C346.904 306.047 347.197 306.233 347.544 306.38C347.904 306.513 348.397 306.667 349.024 306.84C349.81 307.053 350.45 307.267 350.944 307.48C351.437 307.68 351.857 307.987 352.204 308.4C352.564 308.813 352.75 309.353 352.764 310.02C352.764 310.62 352.597 311.16 352.264 311.64C351.93 312.12 351.457 312.5 350.844 312.78C350.244 313.047 349.55 313.18 348.764 313.18ZM356.273 300.26C355.926 300.26 355.633 300.14 355.393 299.9C355.153 299.66 355.033 299.367 355.033 299.02C355.033 298.673 355.153 298.38 355.393 298.14C355.633 297.9 355.926 297.78 356.273 297.78C356.606 297.78 356.886 297.9 357.113 298.14C357.353 298.38 357.473 298.673 357.473 299.02C357.473 299.367 357.353 299.66 357.113 299.9C356.886 300.14 356.606 300.26 356.273 300.26ZM357.153 302.04V313H355.333V302.04H357.153ZM362.475 303.54V310C362.475 310.533 362.588 310.913 362.815 311.14C363.042 311.353 363.435 311.46 363.995 311.46H365.335V313H363.695C362.682 313 361.922 312.767 361.415 312.3C360.908 311.833 360.655 311.067 360.655 310V303.54H359.235V302.04H360.655V299.28H362.475V302.04H365.335V303.54H362.475ZM377.54 307.1C377.54 307.447 377.52 307.813 377.48 308.2H368.72C368.787 309.28 369.153 310.127 369.82 310.74C370.5 311.34 371.32 311.64 372.28 311.64C373.067 311.64 373.72 311.46 374.24 311.1C374.773 310.727 375.147 310.233 375.36 309.62H377.32C377.027 310.673 376.44 311.533 375.56 312.2C374.68 312.853 373.587 313.18 372.28 313.18C371.24 313.18 370.307 312.947 369.48 312.48C368.667 312.013 368.027 311.353 367.56 310.5C367.093 309.633 366.86 308.633 366.86 307.5C366.86 306.367 367.087 305.373 367.54 304.52C367.993 303.667 368.627 303.013 369.44 302.56C370.267 302.093 371.213 301.86 372.28 301.86C373.32 301.86 374.24 302.087 375.04 302.54C375.84 302.993 376.453 303.62 376.88 304.42C377.32 305.207 377.54 306.1 377.54 307.1ZM375.66 306.72C375.66 306.027 375.507 305.433 375.2 304.94C374.893 304.433 374.473 304.053 373.94 303.8C373.42 303.533 372.84 303.4 372.2 303.4C371.28 303.4 370.493 303.693 369.84 304.28C369.2 304.867 368.833 305.68 368.74 306.72H375.66ZM381.822 310.48L379.582 315.86H378.362L379.822 310.48H381.822ZM391.059 304.06C391.419 303.433 391.953 302.913 392.659 302.5C393.379 302.073 394.213 301.86 395.159 301.86C396.133 301.86 397.013 302.093 397.799 302.56C398.599 303.027 399.226 303.687 399.679 304.54C400.133 305.38 400.359 306.36 400.359 307.48C400.359 308.587 400.133 309.573 399.679 310.44C399.226 311.307 398.599 311.98 397.799 312.46C397.013 312.94 396.133 313.18 395.159 313.18C394.226 313.18 393.399 312.973 392.679 312.56C391.973 312.133 391.433 311.607 391.059 310.98V318.2H389.239V302.04H391.059V304.06ZM398.499 307.48C398.499 306.653 398.333 305.933 397.999 305.32C397.666 304.707 397.213 304.24 396.639 303.92C396.079 303.6 395.459 303.44 394.779 303.44C394.113 303.44 393.493 303.607 392.919 303.94C392.359 304.26 391.906 304.733 391.559 305.36C391.226 305.973 391.059 306.687 391.059 307.5C391.059 308.327 391.226 309.053 391.559 309.68C391.906 310.293 392.359 310.767 392.919 311.1C393.493 311.42 394.113 311.58 394.779 311.58C395.459 311.58 396.079 311.42 396.639 311.1C397.213 310.767 397.666 310.293 397.999 309.68C398.333 309.053 398.499 308.32 398.499 307.48ZM402.075 307.48C402.075 306.36 402.302 305.38 402.755 304.54C403.208 303.687 403.828 303.027 404.615 302.56C405.415 302.093 406.302 301.86 407.275 301.86C408.235 301.86 409.068 302.067 409.775 302.48C410.482 302.893 411.008 303.413 411.355 304.04V302.04H413.195V313H411.355V310.96C410.995 311.6 410.455 312.133 409.735 312.56C409.028 312.973 408.202 313.18 407.255 313.18C406.282 313.18 405.402 312.94 404.615 312.46C403.828 311.98 403.208 311.307 402.755 310.44C402.302 309.573 402.075 308.587 402.075 307.48ZM411.355 307.5C411.355 306.673 411.188 305.953 410.855 305.34C410.522 304.727 410.068 304.26 409.495 303.94C408.935 303.607 408.315 303.44 407.635 303.44C406.955 303.44 406.335 303.6 405.775 303.92C405.215 304.24 404.768 304.707 404.435 305.32C404.102 305.933 403.935 306.653 403.935 307.48C403.935 308.32 404.102 309.053 404.435 309.68C404.768 310.293 405.215 310.767 405.775 311.1C406.335 311.42 406.955 311.58 407.635 311.58C408.315 311.58 408.935 311.42 409.495 311.1C410.068 310.767 410.522 310.293 410.855 309.68C411.188 309.053 411.355 308.327 411.355 307.5ZM420.79 301.86C421.737 301.86 422.564 302.067 423.27 302.48C423.99 302.893 424.524 303.413 424.87 304.04V302.04H426.71V313.24C426.71 314.24 426.497 315.127 426.07 315.9C425.644 316.687 425.03 317.3 424.23 317.74C423.444 318.18 422.524 318.4 421.47 318.4C420.03 318.4 418.83 318.06 417.87 317.38C416.91 316.7 416.344 315.773 416.17 314.6H417.97C418.17 315.267 418.584 315.8 419.21 316.2C419.837 316.613 420.59 316.82 421.47 316.82C422.47 316.82 423.284 316.507 423.91 315.88C424.55 315.253 424.87 314.373 424.87 313.24V310.94C424.51 311.58 423.977 312.113 423.27 312.54C422.564 312.967 421.737 313.18 420.79 313.18C419.817 313.18 418.93 312.94 418.13 312.46C417.344 311.98 416.724 311.307 416.27 310.44C415.817 309.573 415.59 308.587 415.59 307.48C415.59 306.36 415.817 305.38 416.27 304.54C416.724 303.687 417.344 303.027 418.13 302.56C418.93 302.093 419.817 301.86 420.79 301.86ZM424.87 307.5C424.87 306.673 424.704 305.953 424.37 305.34C424.037 304.727 423.584 304.26 423.01 303.94C422.45 303.607 421.83 303.44 421.15 303.44C420.47 303.44 419.85 303.6 419.29 303.92C418.73 304.24 418.284 304.707 417.95 305.32C417.617 305.933 417.45 306.653 417.45 307.48C417.45 308.32 417.617 309.053 417.95 309.68C418.284 310.293 418.73 310.767 419.29 311.1C419.85 311.42 420.47 311.58 421.15 311.58C421.83 311.58 422.45 311.42 423.01 311.1C423.584 310.767 424.037 310.293 424.37 309.68C424.704 309.053 424.87 308.327 424.87 307.5ZM439.786 307.1C439.786 307.447 439.766 307.813 439.726 308.2H430.966C431.033 309.28 431.399 310.127 432.066 310.74C432.746 311.34 433.566 311.64 434.526 311.64C435.313 311.64 435.966 311.46 436.486 311.1C437.019 310.727 437.393 310.233 437.606 309.62H439.566C439.273 310.673 438.686 311.533 437.806 312.2C436.926 312.853 435.833 313.18 434.526 313.18C433.486 313.18 432.553 312.947 431.726 312.48C430.913 312.013 430.273 311.353 429.806 310.5C429.339 309.633 429.106 308.633 429.106 307.5C429.106 306.367 429.333 305.373 429.786 304.52C430.239 303.667 430.873 303.013 431.686 302.56C432.513 302.093 433.459 301.86 434.526 301.86C435.566 301.86 436.486 302.087 437.286 302.54C438.086 302.993 438.699 303.62 439.126 304.42C439.566 305.207 439.786 306.1 439.786 307.1ZM437.906 306.72C437.906 306.027 437.753 305.433 437.446 304.94C437.139 304.433 436.719 304.053 436.186 303.8C435.666 303.533 435.086 303.4 434.446 303.4C433.526 303.4 432.739 303.693 432.086 304.28C431.446 304.867 431.079 305.68 430.986 306.72H437.906ZM451.4 313.18C450.56 313.18 449.807 313.04 449.14 312.76C448.474 312.467 447.947 312.067 447.56 311.56C447.174 311.04 446.96 310.447 446.92 309.78H448.8C448.854 310.327 449.107 310.773 449.56 311.12C450.027 311.467 450.634 311.64 451.38 311.64C452.074 311.64 452.62 311.487 453.02 311.18C453.42 310.873 453.62 310.487 453.62 310.02C453.62 309.54 453.407 309.187 452.98 308.96C452.554 308.72 451.894 308.487 451 308.26C450.187 308.047 449.52 307.833 449 307.62C448.494 307.393 448.054 307.067 447.68 306.64C447.32 306.2 447.14 305.627 447.14 304.92C447.14 304.36 447.307 303.847 447.64 303.38C447.974 302.913 448.447 302.547 449.06 302.28C449.674 302 450.374 301.86 451.16 301.86C452.374 301.86 453.354 302.167 454.1 302.78C454.847 303.393 455.247 304.233 455.3 305.3H453.48C453.44 304.727 453.207 304.267 452.78 303.92C452.367 303.573 451.807 303.4 451.1 303.4C450.447 303.4 449.927 303.54 449.54 303.82C449.154 304.1 448.96 304.467 448.96 304.92C448.96 305.28 449.074 305.58 449.3 305.82C449.54 306.047 449.834 306.233 450.18 306.38C450.54 306.513 451.034 306.667 451.66 306.84C452.447 307.053 453.087 307.267 453.58 307.48C454.074 307.68 454.494 307.987 454.84 308.4C455.2 308.813 455.387 309.353 455.4 310.02C455.4 310.62 455.234 311.16 454.9 311.64C454.567 312.12 454.094 312.5 453.48 312.78C452.88 313.047 452.187 313.18 451.4 313.18ZM463.41 301.84C464.236 301.84 464.983 302.02 465.65 302.38C466.316 302.727 466.836 303.253 467.21 303.96C467.596 304.667 467.79 305.527 467.79 306.54V313H465.99V306.8C465.99 305.707 465.716 304.873 465.17 304.3C464.623 303.713 463.876 303.42 462.93 303.42C461.97 303.42 461.203 303.72 460.63 304.32C460.07 304.92 459.79 305.793 459.79 306.94V313H457.97V298.2H459.79V303.6C460.15 303.04 460.643 302.607 461.27 302.3C461.91 301.993 462.623 301.84 463.41 301.84ZM475.543 313.18C474.516 313.18 473.583 312.947 472.743 312.48C471.916 312.013 471.263 311.353 470.783 310.5C470.316 309.633 470.083 308.633 470.083 307.5C470.083 306.38 470.323 305.393 470.803 304.54C471.296 303.673 471.963 303.013 472.803 302.56C473.643 302.093 474.583 301.86 475.623 301.86C476.663 301.86 477.603 302.093 478.443 302.56C479.283 303.013 479.943 303.667 480.423 304.52C480.916 305.373 481.163 306.367 481.163 307.5C481.163 308.633 480.909 309.633 480.403 310.5C479.909 311.353 479.236 312.013 478.383 312.48C477.529 312.947 476.583 313.18 475.543 313.18ZM475.543 311.58C476.196 311.58 476.809 311.427 477.383 311.12C477.956 310.813 478.416 310.353 478.763 309.74C479.123 309.127 479.303 308.38 479.303 307.5C479.303 306.62 479.129 305.873 478.783 305.26C478.436 304.647 477.983 304.193 477.423 303.9C476.863 303.593 476.256 303.44 475.603 303.44C474.936 303.44 474.323 303.593 473.763 303.9C473.216 304.193 472.776 304.647 472.443 305.26C472.109 305.873 471.943 306.62 471.943 307.5C471.943 308.393 472.103 309.147 472.423 309.76C472.756 310.373 473.196 310.833 473.743 311.14C474.289 311.433 474.889 311.58 475.543 311.58ZM493.276 302.04V313H491.456V311.38C491.109 311.94 490.622 312.38 489.996 312.7C489.382 313.007 488.702 313.16 487.956 313.16C487.102 313.16 486.336 312.987 485.656 312.64C484.976 312.28 484.436 311.747 484.036 311.04C483.649 310.333 483.456 309.473 483.456 308.46V302.04H485.256V308.22C485.256 309.3 485.529 310.133 486.076 310.72C486.622 311.293 487.369 311.58 488.316 311.58C489.289 311.58 490.056 311.28 490.616 310.68C491.176 310.08 491.456 309.207 491.456 308.06V302.04H493.276ZM498.169 298.2V313H496.349V298.2H498.169ZM500.59 307.48C500.59 306.36 500.817 305.38 501.27 304.54C501.724 303.687 502.344 303.027 503.13 302.56C503.93 302.093 504.824 301.86 505.81 301.86C506.664 301.86 507.457 302.06 508.19 302.46C508.924 302.847 509.484 303.36 509.87 304V298.2H511.71V313H509.87V310.94C509.51 311.593 508.977 312.133 508.27 312.56C507.564 312.973 506.737 313.18 505.79 313.18C504.817 313.18 503.93 312.94 503.13 312.46C502.344 311.98 501.724 311.307 501.27 310.44C500.817 309.573 500.59 308.587 500.59 307.48ZM509.87 307.5C509.87 306.673 509.704 305.953 509.37 305.34C509.037 304.727 508.584 304.26 508.01 303.94C507.45 303.607 506.83 303.44 506.15 303.44C505.47 303.44 504.85 303.6 504.29 303.92C503.73 304.24 503.284 304.707 502.95 305.32C502.617 305.933 502.45 306.653 502.45 307.48C502.45 308.32 502.617 309.053 502.95 309.68C503.284 310.293 503.73 310.767 504.29 311.1C504.85 311.42 505.47 311.58 506.15 311.58C506.83 311.58 507.45 311.42 508.01 311.1C508.584 310.767 509.037 310.293 509.37 309.68C509.704 309.053 509.87 308.327 509.87 307.5ZM521.938 304.08C522.311 303.427 522.858 302.893 523.578 302.48C524.298 302.067 525.118 301.86 526.038 301.86C527.025 301.86 527.911 302.093 528.698 302.56C529.485 303.027 530.105 303.687 530.558 304.54C531.011 305.38 531.238 306.36 531.238 307.48C531.238 308.587 531.011 309.573 530.558 310.44C530.105 311.307 529.478 311.98 528.678 312.46C527.891 312.94 527.011 313.18 526.038 313.18C525.091 313.18 524.258 312.973 523.538 312.56C522.831 312.147 522.298 311.62 521.938 310.98V313H520.118V298.2H521.938V304.08ZM529.378 307.48C529.378 306.653 529.211 305.933 528.878 305.32C528.545 304.707 528.091 304.24 527.518 303.92C526.958 303.6 526.338 303.44 525.658 303.44C524.991 303.44 524.371 303.607 523.798 303.94C523.238 304.26 522.785 304.733 522.438 305.36C522.105 305.973 521.938 306.687 521.938 307.5C521.938 308.327 522.105 309.053 522.438 309.68C522.785 310.293 523.238 310.767 523.798 311.1C524.371 311.42 524.991 311.58 525.658 311.58C526.338 311.58 526.958 311.42 527.518 311.1C528.091 310.767 528.545 310.293 528.878 309.68C529.211 309.053 529.378 308.32 529.378 307.48ZM543.634 307.1C543.634 307.447 543.614 307.813 543.574 308.2H534.814C534.88 309.28 535.247 310.127 535.914 310.74C536.594 311.34 537.414 311.64 538.374 311.64C539.16 311.64 539.814 311.46 540.334 311.1C540.867 310.727 541.24 310.233 541.454 309.62H543.414C543.12 310.673 542.534 311.533 541.654 312.2C540.774 312.853 539.68 313.18 538.374 313.18C537.334 313.18 536.4 312.947 535.574 312.48C534.76 312.013 534.12 311.353 533.654 310.5C533.187 309.633 532.954 308.633 532.954 307.5C532.954 306.367 533.18 305.373 533.634 304.52C534.087 303.667 534.72 303.013 535.534 302.56C536.36 302.093 537.307 301.86 538.374 301.86C539.414 301.86 540.334 302.087 541.134 302.54C541.934 302.993 542.547 303.62 542.974 304.42C543.414 305.207 543.634 306.1 543.634 307.1ZM541.754 306.72C541.754 306.027 541.6 305.433 541.294 304.94C540.987 304.433 540.567 304.053 540.034 303.8C539.514 303.533 538.934 303.4 538.294 303.4C537.374 303.4 536.587 303.693 535.934 304.28C535.294 304.867 534.927 305.68 534.834 306.72H541.754ZM553.188 304.08C553.561 303.427 554.108 302.893 554.828 302.48C555.548 302.067 556.368 301.86 557.288 301.86C558.275 301.86 559.161 302.093 559.948 302.56C560.735 303.027 561.355 303.687 561.808 304.54C562.261 305.38 562.488 306.36 562.488 307.48C562.488 308.587 562.261 309.573 561.808 310.44C561.355 311.307 560.728 311.98 559.928 312.46C559.141 312.94 558.261 313.18 557.288 313.18C556.341 313.18 555.508 312.973 554.788 312.56C554.081 312.147 553.548 311.62 553.188 310.98V313H551.368V298.2H553.188V304.08ZM560.628 307.48C560.628 306.653 560.461 305.933 560.128 305.32C559.795 304.707 559.341 304.24 558.768 303.92C558.208 303.6 557.588 303.44 556.908 303.44C556.241 303.44 555.621 303.607 555.048 303.94C554.488 304.26 554.035 304.733 553.688 305.36C553.355 305.973 553.188 306.687 553.188 307.5C553.188 308.327 553.355 309.053 553.688 309.68C554.035 310.293 554.488 310.767 555.048 311.1C555.621 311.42 556.241 311.58 556.908 311.58C557.588 311.58 558.208 311.42 558.768 311.1C559.341 310.767 559.795 310.293 560.128 309.68C560.461 309.053 560.628 308.32 560.628 307.48ZM564.204 307.48C564.204 306.36 564.43 305.38 564.884 304.54C565.337 303.687 565.957 303.027 566.744 302.56C567.544 302.093 568.43 301.86 569.404 301.86C570.364 301.86 571.197 302.067 571.904 302.48C572.61 302.893 573.137 303.413 573.484 304.04V302.04H575.324V313H573.484V310.96C573.124 311.6 572.584 312.133 571.864 312.56C571.157 312.973 570.33 313.18 569.384 313.18C568.41 313.18 567.53 312.94 566.744 312.46C565.957 311.98 565.337 311.307 564.884 310.44C564.43 309.573 564.204 308.587 564.204 307.48ZM573.484 307.5C573.484 306.673 573.317 305.953 572.984 305.34C572.65 304.727 572.197 304.26 571.624 303.94C571.064 303.607 570.444 303.44 569.764 303.44C569.084 303.44 568.464 303.6 567.904 303.92C567.344 304.24 566.897 304.707 566.564 305.32C566.23 305.933 566.064 306.653 566.064 307.48C566.064 308.32 566.23 309.053 566.564 309.68C566.897 310.293 567.344 310.767 567.904 311.1C568.464 311.42 569.084 311.58 569.764 311.58C570.444 311.58 571.064 311.42 571.624 311.1C572.197 310.767 572.65 310.293 572.984 309.68C573.317 309.053 573.484 308.327 573.484 307.5ZM577.719 307.5C577.719 306.367 577.946 305.38 578.399 304.54C578.853 303.687 579.479 303.027 580.279 302.56C581.093 302.093 582.019 301.86 583.059 301.86C584.406 301.86 585.513 302.187 586.379 302.84C587.259 303.493 587.839 304.4 588.119 305.56H586.159C585.973 304.893 585.606 304.367 585.059 303.98C584.526 303.593 583.859 303.4 583.059 303.4C582.019 303.4 581.179 303.76 580.539 304.48C579.899 305.187 579.579 306.193 579.579 307.5C579.579 308.82 579.899 309.84 580.539 310.56C581.179 311.28 582.019 311.64 583.059 311.64C583.859 311.64 584.526 311.453 585.059 311.08C585.593 310.707 585.959 310.173 586.159 309.48H588.119C587.826 310.6 587.239 311.5 586.359 312.18C585.479 312.847 584.379 313.18 583.059 313.18C582.019 313.18 581.093 312.947 580.279 312.48C579.479 312.013 578.853 311.353 578.399 310.5C577.946 309.647 577.719 308.647 577.719 307.5ZM596.668 313L592.368 308.16V313H590.548V298.2H592.368V306.9L596.588 302.04H599.128L593.968 307.5L599.148 313H596.668ZM615.893 302.04V313H614.073V311.38C613.726 311.94 613.239 312.38 612.613 312.7C611.999 313.007 611.319 313.16 610.573 313.16C609.719 313.16 608.953 312.987 608.273 312.64C607.593 312.28 607.053 311.747 606.653 311.04C606.266 310.333 606.073 309.473 606.073 308.46V302.04H607.873V308.22C607.873 309.3 608.146 310.133 608.693 310.72C609.239 311.293 609.986 311.58 610.933 311.58C611.906 311.58 612.673 311.28 613.233 310.68C613.793 310.08 614.073 309.207 614.073 308.06V302.04H615.893ZM620.786 304.06C621.146 303.433 621.679 302.913 622.386 302.5C623.106 302.073 623.939 301.86 624.886 301.86C625.859 301.86 626.739 302.093 627.526 302.56C628.326 303.027 628.952 303.687 629.406 304.54C629.859 305.38 630.086 306.36 630.086 307.48C630.086 308.587 629.859 309.573 629.406 310.44C628.952 311.307 628.326 311.98 627.526 312.46C626.739 312.94 625.859 313.18 624.886 313.18C623.952 313.18 623.126 312.973 622.406 312.56C621.699 312.133 621.159 311.607 620.786 310.98V318.2H618.966V302.04H620.786V304.06ZM628.226 307.48C628.226 306.653 628.059 305.933 627.726 305.32C627.392 304.707 626.939 304.24 626.366 303.92C625.806 303.6 625.186 303.44 624.506 303.44C623.839 303.44 623.219 303.607 622.646 303.94C622.086 304.26 621.632 304.733 621.286 305.36C620.952 305.973 620.786 306.687 620.786 307.5C620.786 308.327 620.952 309.053 621.286 309.68C621.632 310.293 622.086 310.767 622.646 311.1C623.219 311.42 623.839 311.58 624.506 311.58C625.186 311.58 625.806 311.42 626.366 311.1C626.939 310.767 627.392 310.293 627.726 309.68C628.059 309.053 628.226 308.32 628.226 307.48ZM637.133 307.48C637.133 306.36 637.36 305.38 637.813 304.54C638.267 303.687 638.887 303.027 639.673 302.56C640.473 302.093 641.36 301.86 642.333 301.86C643.293 301.86 644.127 302.067 644.833 302.48C645.54 302.893 646.067 303.413 646.413 304.04V302.04H648.253V313H646.413V310.96C646.053 311.6 645.513 312.133 644.793 312.56C644.087 312.973 643.26 313.18 642.313 313.18C641.34 313.18 640.46 312.94 639.673 312.46C638.887 311.98 638.267 311.307 637.813 310.44C637.36 309.573 637.133 308.587 637.133 307.48ZM646.413 307.5C646.413 306.673 646.247 305.953 645.913 305.34C645.58 304.727 645.127 304.26 644.553 303.94C643.993 303.607 643.373 303.44 642.693 303.44C642.013 303.44 641.393 303.6 640.833 303.92C640.273 304.24 639.827 304.707 639.493 305.32C639.16 305.933 638.993 306.653 638.993 307.48C638.993 308.32 639.16 309.053 639.493 309.68C639.827 310.293 640.273 310.767 640.833 311.1C641.393 311.42 642.013 311.58 642.693 311.58C643.373 311.58 643.993 311.42 644.553 311.1C645.127 310.767 645.58 310.293 645.913 309.68C646.247 309.053 646.413 308.327 646.413 307.5ZM656.669 301.84C658.002 301.84 659.082 302.247 659.909 303.06C660.736 303.86 661.149 305.02 661.149 306.54V313H659.349V306.8C659.349 305.707 659.076 304.873 658.529 304.3C657.982 303.713 657.236 303.42 656.289 303.42C655.329 303.42 654.562 303.72 653.989 304.32C653.429 304.92 653.149 305.793 653.149 306.94V313H651.329V302.04H653.149V303.6C653.509 303.04 653.996 302.607 654.609 302.3C655.236 301.993 655.922 301.84 656.669 301.84ZM663.442 307.48C663.442 306.36 663.669 305.38 664.122 304.54C664.575 303.687 665.195 303.027 665.982 302.56C666.782 302.093 667.675 301.86 668.662 301.86C669.515 301.86 670.309 302.06 671.042 302.46C671.775 302.847 672.335 303.36 672.722 304V298.2H674.562V313H672.722V310.94C672.362 311.593 671.829 312.133 671.122 312.56C670.415 312.973 669.589 313.18 668.642 313.18C667.669 313.18 666.782 312.94 665.982 312.46C665.195 311.98 664.575 311.307 664.122 310.44C663.669 309.573 663.442 308.587 663.442 307.48ZM672.722 307.5C672.722 306.673 672.555 305.953 672.222 305.34C671.889 304.727 671.435 304.26 670.862 303.94C670.302 303.607 669.682 303.44 669.002 303.44C668.322 303.44 667.702 303.6 667.142 303.92C666.582 304.24 666.135 304.707 665.802 305.32C665.469 305.933 665.302 306.653 665.302 307.48C665.302 308.32 665.469 309.053 665.802 309.68C666.135 310.293 666.582 310.767 667.142 311.1C667.702 311.42 668.322 311.58 669.002 311.58C669.682 311.58 670.302 311.42 670.862 311.1C671.435 310.767 671.889 310.293 672.222 309.68C672.555 309.053 672.722 308.327 672.722 307.5ZM94.36 333.82C94.68 333.193 95.1333 332.707 95.72 332.36C96.32 332.013 97.0467 331.84 97.9 331.84V333.72H97.42C95.38 333.72 94.36 334.827 94.36 337.04V343H92.54V332.04H94.36V333.82ZM109.721 332.04V343H107.901V341.38C107.554 341.94 107.068 342.38 106.441 342.7C105.828 343.007 105.148 343.16 104.401 343.16C103.548 343.16 102.781 342.987 102.101 342.64C101.421 342.28 100.881 341.747 100.481 341.04C100.094 340.333 99.9009 339.473 99.9009 338.46V332.04H101.701V338.22C101.701 339.3 101.974 340.133 102.521 340.72C103.068 341.293 103.814 341.58 104.761 341.58C105.734 341.58 106.501 341.28 107.061 340.68C107.621 340.08 107.901 339.207 107.901 338.06V332.04H109.721ZM118.134 331.84C119.467 331.84 120.547 332.247 121.374 333.06C122.201 333.86 122.614 335.02 122.614 336.54V343H120.814V336.8C120.814 335.707 120.541 334.873 119.994 334.3C119.447 333.713 118.701 333.42 117.754 333.42C116.794 333.42 116.027 333.72 115.454 334.32C114.894 334.92 114.614 335.793 114.614 336.94V343H112.794V332.04H114.614V333.6C114.974 333.04 115.461 332.607 116.074 332.3C116.701 331.993 117.387 331.84 118.134 331.84ZM130.927 331.84C132.26 331.84 133.34 332.247 134.167 333.06C134.994 333.86 135.407 335.02 135.407 336.54V343H133.607V336.8C133.607 335.707 133.334 334.873 132.787 334.3C132.24 333.713 131.494 333.42 130.547 333.42C129.587 333.42 128.82 333.72 128.247 334.32C127.687 334.92 127.407 335.793 127.407 336.94V343H125.587V332.04H127.407V333.6C127.767 333.04 128.254 332.607 128.867 332.3C129.494 331.993 130.18 331.84 130.927 331.84ZM139.32 330.26C138.973 330.26 138.68 330.14 138.44 329.9C138.2 329.66 138.08 329.367 138.08 329.02C138.08 328.673 138.2 328.38 138.44 328.14C138.68 327.9 138.973 327.78 139.32 327.78C139.653 327.78 139.933 327.9 140.16 328.14C140.4 328.38 140.52 328.673 140.52 329.02C140.52 329.367 140.4 329.66 140.16 329.9C139.933 330.14 139.653 330.26 139.32 330.26ZM140.2 332.04V343H138.38V332.04H140.2ZM148.642 331.84C149.975 331.84 151.055 332.247 151.882 333.06C152.708 333.86 153.122 335.02 153.122 336.54V343H151.322V336.8C151.322 335.707 151.048 334.873 150.502 334.3C149.955 333.713 149.208 333.42 148.262 333.42C147.302 333.42 146.535 333.72 145.962 334.32C145.402 334.92 145.122 335.793 145.122 336.94V343H143.302V332.04H145.122V333.6C145.482 333.04 145.968 332.607 146.582 332.3C147.208 331.993 147.895 331.84 148.642 331.84ZM160.615 331.86C161.561 331.86 162.388 332.067 163.095 332.48C163.815 332.893 164.348 333.413 164.695 334.04V332.04H166.535V343.24C166.535 344.24 166.321 345.127 165.895 345.9C165.468 346.687 164.855 347.3 164.055 347.74C163.268 348.18 162.348 348.4 161.295 348.4C159.855 348.4 158.655 348.06 157.695 347.38C156.735 346.7 156.168 345.773 155.995 344.6H157.795C157.995 345.267 158.408 345.8 159.035 346.2C159.661 346.613 160.415 346.82 161.295 346.82C162.295 346.82 163.108 346.507 163.735 345.88C164.375 345.253 164.695 344.373 164.695 343.24V340.94C164.335 341.58 163.801 342.113 163.095 342.54C162.388 342.967 161.561 343.18 160.615 343.18C159.641 343.18 158.755 342.94 157.955 342.46C157.168 341.98 156.548 341.307 156.095 340.44C155.641 339.573 155.415 338.587 155.415 337.48C155.415 336.36 155.641 335.38 156.095 334.54C156.548 333.687 157.168 333.027 157.955 332.56C158.755 332.093 159.641 331.86 160.615 331.86ZM164.695 337.5C164.695 336.673 164.528 335.953 164.195 335.34C163.861 334.727 163.408 334.26 162.835 333.94C162.275 333.607 161.655 333.44 160.975 333.44C160.295 333.44 159.675 333.6 159.115 333.92C158.555 334.24 158.108 334.707 157.775 335.32C157.441 335.933 157.275 336.653 157.275 337.48C157.275 338.32 157.441 339.053 157.775 339.68C158.108 340.293 158.555 340.767 159.115 341.1C159.675 341.42 160.295 341.58 160.975 341.58C161.655 341.58 162.275 341.42 162.835 341.1C163.408 340.767 163.861 340.293 164.195 339.68C164.528 339.053 164.695 338.327 164.695 337.5ZM178.822 343.18C177.982 343.18 177.229 343.04 176.562 342.76C175.896 342.467 175.369 342.067 174.982 341.56C174.596 341.04 174.382 340.447 174.342 339.78H176.222C176.276 340.327 176.529 340.773 176.982 341.12C177.449 341.467 178.056 341.64 178.802 341.64C179.496 341.64 180.042 341.487 180.442 341.18C180.842 340.873 181.042 340.487 181.042 340.02C181.042 339.54 180.829 339.187 180.402 338.96C179.976 338.72 179.316 338.487 178.422 338.26C177.609 338.047 176.942 337.833 176.422 337.62C175.916 337.393 175.476 337.067 175.102 336.64C174.742 336.2 174.562 335.627 174.562 334.92C174.562 334.36 174.729 333.847 175.062 333.38C175.396 332.913 175.869 332.547 176.482 332.28C177.096 332 177.796 331.86 178.582 331.86C179.796 331.86 180.776 332.167 181.522 332.78C182.269 333.393 182.669 334.233 182.722 335.3H180.902C180.862 334.727 180.629 334.267 180.202 333.92C179.789 333.573 179.229 333.4 178.522 333.4C177.869 333.4 177.349 333.54 176.962 333.82C176.576 334.1 176.382 334.467 176.382 334.92C176.382 335.28 176.496 335.58 176.722 335.82C176.962 336.047 177.256 336.233 177.602 336.38C177.962 336.513 178.456 336.667 179.082 336.84C179.869 337.053 180.509 337.267 181.002 337.48C181.496 337.68 181.916 337.987 182.262 338.4C182.622 338.813 182.809 339.353 182.822 340.02C182.822 340.62 182.656 341.16 182.322 341.64C181.989 342.12 181.516 342.5 180.902 342.78C180.302 343.047 179.609 343.18 178.822 343.18ZM190.172 343.18C189.145 343.18 188.212 342.947 187.372 342.48C186.545 342.013 185.892 341.353 185.412 340.5C184.945 339.633 184.712 338.633 184.712 337.5C184.712 336.38 184.952 335.393 185.432 334.54C185.925 333.673 186.592 333.013 187.432 332.56C188.272 332.093 189.212 331.86 190.252 331.86C191.292 331.86 192.232 332.093 193.072 332.56C193.912 333.013 194.572 333.667 195.052 334.52C195.545 335.373 195.792 336.367 195.792 337.5C195.792 338.633 195.538 339.633 195.032 340.5C194.538 341.353 193.865 342.013 193.012 342.48C192.158 342.947 191.212 343.18 190.172 343.18ZM190.172 341.58C190.825 341.58 191.438 341.427 192.012 341.12C192.585 340.813 193.045 340.353 193.392 339.74C193.752 339.127 193.932 338.38 193.932 337.5C193.932 336.62 193.758 335.873 193.412 335.26C193.065 334.647 192.612 334.193 192.052 333.9C191.492 333.593 190.885 333.44 190.232 333.44C189.565 333.44 188.952 333.593 188.392 333.9C187.845 334.193 187.405 334.647 187.072 335.26C186.738 335.873 186.572 336.62 186.572 337.5C186.572 338.393 186.732 339.147 187.052 339.76C187.385 340.373 187.825 340.833 188.372 341.14C188.918 341.433 189.518 341.58 190.172 341.58ZM202.965 343.18C201.938 343.18 201.005 342.947 200.165 342.48C199.338 342.013 198.685 341.353 198.205 340.5C197.738 339.633 197.505 338.633 197.505 337.5C197.505 336.38 197.745 335.393 198.225 334.54C198.718 333.673 199.385 333.013 200.225 332.56C201.065 332.093 202.005 331.86 203.045 331.86C204.085 331.86 205.025 332.093 205.865 332.56C206.705 333.013 207.365 333.667 207.845 334.52C208.338 335.373 208.585 336.367 208.585 337.5C208.585 338.633 208.331 339.633 207.825 340.5C207.331 341.353 206.658 342.013 205.805 342.48C204.951 342.947 204.005 343.18 202.965 343.18ZM202.965 341.58C203.618 341.58 204.231 341.427 204.805 341.12C205.378 340.813 205.838 340.353 206.185 339.74C206.545 339.127 206.725 338.38 206.725 337.5C206.725 336.62 206.551 335.873 206.205 335.26C205.858 334.647 205.405 334.193 204.845 333.9C204.285 333.593 203.678 333.44 203.025 333.44C202.358 333.44 201.745 333.593 201.185 333.9C200.638 334.193 200.198 334.647 199.865 335.26C199.531 335.873 199.365 336.62 199.365 337.5C199.365 338.393 199.525 339.147 199.845 339.76C200.178 340.373 200.618 340.833 201.165 341.14C201.711 341.433 202.311 341.58 202.965 341.58ZM216.318 331.84C217.651 331.84 218.731 332.247 219.558 333.06C220.384 333.86 220.798 335.02 220.798 336.54V343H218.998V336.8C218.998 335.707 218.724 334.873 218.178 334.3C217.631 333.713 216.884 333.42 215.938 333.42C214.978 333.42 214.211 333.72 213.638 334.32C213.078 334.92 212.798 335.793 212.798 336.94V343H210.978V332.04H212.798V333.6C213.158 333.04 213.644 332.607 214.258 332.3C214.884 331.993 215.571 331.84 216.318 331.84ZM224.35 343.12C224.004 343.12 223.71 343 223.47 342.76C223.23 342.52 223.11 342.227 223.11 341.88C223.11 341.533 223.23 341.24 223.47 341C223.71 340.76 224.004 340.64 224.35 340.64C224.684 340.64 224.964 340.76 225.19 341C225.43 341.24 225.55 341.533 225.55 341.88C225.55 342.227 225.43 342.52 225.19 342.76C224.964 343 224.684 343.12 224.35 343.12Z" fill="#717171"/>
</svg>
