<svg width="24" height="24" viewBox="0 0 24 24" fill="none" xmlns="http://www.w3.org/2000/svg">
<path d="M8.74778 20C8.26593 20 7.85417 19.8284 7.5125 19.4853C7.17083 19.1421 7 18.7296 7 18.2478C7 17.7659 7.17157 17.3542 7.51472 17.0125C7.85786 16.6708 8.27036 16.5 8.75222 16.5C9.23407 16.5 9.64583 16.6716 9.9875 17.0147C10.3292 17.3579 10.5 17.7704 10.5 18.2522C10.5 18.7341 10.3284 19.1458 9.98528 19.4875C9.64214 19.8292 9.22964 20 8.74778 20ZM15.2478 20C14.7659 20 14.3542 19.8284 14.0125 19.4853C13.6708 19.1421 13.5 18.7296 13.5 18.2478C13.5 17.7659 13.6716 17.3542 14.0147 17.0125C14.3579 16.6708 14.7704 16.5 15.2522 16.5C15.7341 16.5 16.1458 16.6716 16.4875 17.0147C16.8292 17.3579 17 17.7704 17 18.2522C17 18.7341 16.8284 19.1458 16.4853 19.4875C16.1421 19.8292 15.7296 20 15.2478 20ZM8.74778 13.75C8.26593 13.75 7.85417 13.5784 7.5125 13.2353C7.17083 12.8921 7 12.4796 7 11.9978C7 11.5159 7.17157 11.1042 7.51472 10.7625C7.85786 10.4208 8.27036 10.25 8.75222 10.25C9.23407 10.25 9.64583 10.4216 9.9875 10.7647C10.3292 11.1079 10.5 11.5204 10.5 12.0022C10.5 12.4841 10.3284 12.8958 9.98528 13.2375C9.64214 13.5792 9.22964 13.75 8.74778 13.75ZM15.2478 13.75C14.7659 13.75 14.3542 13.5784 14.0125 13.2353C13.6708 12.8921 13.5 12.4796 13.5 11.9978C13.5 11.5159 13.6716 11.1042 14.0147 10.7625C14.3579 10.4208 14.7704 10.25 15.2522 10.25C15.7341 10.25 16.1458 10.4216 16.4875 10.7647C16.8292 11.1079 17 11.5204 17 12.0022C17 12.4841 16.8284 12.8958 16.4853 13.2375C16.1421 13.5792 15.7296 13.75 15.2478 13.75ZM8.74778 7.5C8.26593 7.5 7.85417 7.32843 7.5125 6.98528C7.17083 6.64214 7 6.22964 7 5.74778C7 5.26593 7.17157 4.85417 7.51472 4.5125C7.85786 4.17083 8.27036 4 8.75222 4C9.23407 4 9.64583 4.17157 9.9875 4.51472C10.3292 4.85786 10.5 5.27036 10.5 5.75222C10.5 6.23407 10.3284 6.64583 9.98528 6.9875C9.64214 7.32917 9.22964 7.5 8.74778 7.5ZM15.2478 7.5C14.7659 7.5 14.3542 7.32843 14.0125 6.98528C13.6708 6.64214 13.5 6.22964 13.5 5.74778C13.5 5.26593 13.6716 4.85417 14.0147 4.5125C14.3579 4.17083 14.7704 4 15.2522 4C15.7341 4 16.1458 4.17157 16.4875 4.51472C16.8292 4.85786 17 5.27036 17 5.75222C17 6.23407 16.8284 6.64583 16.4853 6.9875C16.1421 7.32917 15.7296 7.5 15.2478 7.5Z" fill="#959595"/>
</svg>
