<svg width="21" height="20" viewBox="0 0 21 20" fill="none" xmlns="http://www.w3.org/2000/svg">
<path d="M16.6789 4.16667V3.33333C16.6789 2.875 16.3036 2.5 15.845 2.5H14.1771C13.7184 2.5 13.3431 2.875 13.3431 3.33333V4.16667H12.5092V7.5C12.5092 7.95833 12.8845 8.33333 13.3431 8.33333H14.1771V14.1667C14.1771 15.0833 13.4265 15.8333 12.5092 15.8333C11.5919 15.8333 10.8413 15.0833 10.8413 14.1667V5.83333C10.8413 3.99167 9.34858 2.5 7.50558 2.5C5.66258 2.5 4.16983 3.99167 4.16983 5.83333V11.6667H3.33589C2.87723 11.6667 2.50195 12.0417 2.50195 12.5V15.8333H3.33589V16.6667C3.33589 17.125 3.71116 17.5 4.16983 17.5H5.8377C6.29637 17.5 6.67164 17.125 6.67164 16.6667V15.8333H7.50558V12.5C7.50558 12.0417 7.13031 11.6667 6.67164 11.6667H5.8377V5.83333C5.8377 4.91667 6.58825 4.16667 7.50558 4.16667C8.42291 4.16667 9.17345 4.91667 9.17345 5.83333V14.1667C9.17345 16.0083 10.6662 17.5 12.5092 17.5C14.3522 17.5 15.845 16.0083 15.845 14.1667V8.33333H16.6789C17.1376 8.33333 17.5128 7.95833 17.5128 7.5V4.16667H16.6789Z" fill="#4B475C"/>
</svg>
