<svg width="151" height="130" viewBox="0 0 151 130" fill="none" xmlns="http://www.w3.org/2000/svg">
<path d="M85.8533 69.0546C85.8533 44.8538 77.1268 33.8304 72.5069 29.6491C71.6086 28.8889 70.1969 29.5224 70.3253 30.7895C71.2236 44.4737 53.7706 47.8947 53.7706 69.308V69.4347C53.7706 82.4854 63.7804 93.1287 76.1002 93.1287C88.4199 93.1287 98.4297 82.4854 98.4297 69.4347V69.308C98.4297 63.2261 96.1198 57.3977 93.8098 53.0897C93.2965 52.2027 92.0132 52.5828 92.1415 53.3431C96.3764 71.8421 85.8533 83.2456 85.8533 69.0546Z" fill="#FF6600"/>
<path d="M59.2888 120.117C58.7755 120.117 58.1338 119.864 57.7488 119.483L0.641636 63.0994C-0.128348 62.3392 -0.128348 60.9454 0.641636 60.0585L60.9571 0.506823C61.3421 0.253411 61.8554 0 62.3687 0H79.6934C80.72 0 81.3617 0.633528 81.6184 1.26706C81.875 1.90058 81.875 2.78752 81.105 3.54776L24.5112 59.5517C23.3562 60.692 23.3562 62.4659 24.5112 63.6062L69.2986 107.953C70.0686 108.713 70.0686 110.107 69.2986 110.994L60.7004 119.61C60.3154 119.864 59.8021 120.117 59.2888 120.117Z" fill="#FF6600"/>
<path d="M70.7103 130C69.6836 130 69.042 129.366 68.7853 128.733C68.5286 128.099 68.5286 127.212 69.2986 126.452L126.021 70.4483C126.534 69.9415 126.919 69.1813 126.919 68.421C126.919 67.6608 126.662 66.9006 126.021 66.3938L81.1051 22.0468C80.3351 21.2865 80.3351 19.8928 81.1051 19.0058L89.8316 10.3899C90.2166 10.0097 90.7299 9.75633 91.3715 9.75633C92.0132 9.75633 92.3982 10.1364 92.7832 10.5166L149.762 66.9006C150.147 67.2807 150.404 67.7875 150.404 68.421C150.404 69.0546 150.147 69.5614 149.762 69.9415L89.4466 129.493C89.0616 129.873 88.5482 130.127 87.9066 130.127H70.7103V130Z" fill="#FF6600"/>
</svg>
