<svg width="21" height="20" viewBox="0 0 21 20" fill="none" xmlns="http://www.w3.org/2000/svg">
<path d="M2.50195 9.16667H9.17345V2.5H2.50195V9.16667ZM4.16983 4.16667H7.50558V7.5H4.16983V4.16667Z" fill="#4B475C"/>
<path d="M2.50195 17.5007H9.17345V10.834H2.50195V17.5007ZM4.16983 12.5007H7.50558V15.834H4.16983V12.5007Z" fill="#4B475C"/>
<path d="M10.8418 2.5V9.16667H17.5133V2.5H10.8418ZM15.8454 7.5H12.5097V4.16667H15.8454V7.5Z" fill="#4B475C"/>
<path d="M17.5126 15.834H15.8447V17.5007H17.5126V15.834Z" fill="#4B475C"/>
<path d="M12.5097 10.834H10.8418V12.5007H12.5097V10.834Z" fill="#4B475C"/>
<path d="M14.1767 12.5H12.5088V14.1667H14.1767V12.5Z" fill="#4B475C"/>
<path d="M12.5097 14.166H10.8418V15.8327H12.5097V14.166Z" fill="#4B475C"/>
<path d="M14.1767 15.834H12.5088V17.5007H14.1767V15.834Z" fill="#4B475C"/>
<path d="M15.8446 14.166H14.1768V15.8327H15.8446V14.166Z" fill="#4B475C"/>
<path d="M15.8446 10.834H14.1768V12.5007H15.8446V10.834Z" fill="#4B475C"/>
<path d="M17.5126 12.5H15.8447V14.1667H17.5126V12.5Z" fill="#4B475C"/>
</svg>
