<svg width="103" height="21" viewBox="0 0 103 21" fill="none" xmlns="http://www.w3.org/2000/svg">
<rect x="0.25" y="0.25" width="102.5" height="20.5" rx="7.75" fill="#EB5424" fill-opacity="0.1"/>
<path d="M7.74 14V7H8.58L12.31 12.61V7H13.15V14H12.31L8.58 8.39V14H7.74ZM16.8445 14.12C16.3779 14.12 15.9579 14.0133 15.5845 13.8C15.2112 13.5867 14.9145 13.2867 14.6945 12.9C14.4812 12.5067 14.3745 12.0467 14.3745 11.52C14.3745 10.9933 14.4845 10.5367 14.7045 10.15C14.9245 9.75667 15.2212 9.45333 15.5945 9.24C15.9745 9.02667 16.3979 8.92 16.8645 8.92C17.3312 8.92 17.7512 9.02667 18.1245 9.24C18.4979 9.45333 18.7912 9.75667 19.0045 10.15C19.2245 10.5367 19.3345 10.9933 19.3345 11.52C19.3345 12.0467 19.2245 12.5067 19.0045 12.9C18.7845 13.2867 18.4845 13.5867 18.1045 13.8C17.7312 14.0133 17.3112 14.12 16.8445 14.12ZM16.8445 13.4C17.1312 13.4 17.3979 13.33 17.6445 13.19C17.8912 13.05 18.0912 12.84 18.2445 12.56C18.3979 12.28 18.4745 11.9333 18.4745 11.52C18.4745 11.1067 18.3979 10.76 18.2445 10.48C18.0979 10.2 17.9012 9.99 17.6545 9.85C17.4079 9.71 17.1445 9.64 16.8645 9.64C16.5779 9.64 16.3112 9.71 16.0645 9.85C15.8179 9.99 15.6179 10.2 15.4645 10.48C15.3112 10.76 15.2345 11.1067 15.2345 11.52C15.2345 11.9333 15.3112 12.28 15.4645 12.56C15.6179 12.84 15.8145 13.05 16.0545 13.19C16.3012 13.33 16.5645 13.4 16.8445 13.4ZM22.2672 14C21.8139 14 21.4572 13.89 21.1972 13.67C20.9372 13.45 20.8072 13.0533 20.8072 12.48V9.75H19.9472V9.04H20.8072L20.9172 7.85H21.6472V9.04H23.1072V9.75H21.6472V12.48C21.6472 12.7933 21.7105 13.0067 21.8372 13.12C21.9639 13.2267 22.1872 13.28 22.5072 13.28H23.0272V14H22.2672ZM30.0509 14.12C29.3642 14.12 28.7609 13.97 28.2409 13.67C27.7275 13.3633 27.3242 12.9367 27.0309 12.39C26.7442 11.8433 26.6009 11.2133 26.6009 10.5C26.6009 9.78667 26.7442 9.16 27.0309 8.62C27.3242 8.07333 27.7275 7.64667 28.2409 7.34C28.7609 7.03333 29.3642 6.88 30.0509 6.88C30.7442 6.88 31.3475 7.03333 31.8609 7.34C32.3809 7.64667 32.7842 8.07333 33.0709 8.62C33.3575 9.16 33.5009 9.78667 33.5009 10.5C33.5009 11.2133 33.3575 11.8433 33.0709 12.39C32.7842 12.9367 32.3809 13.3633 31.8609 13.67C31.3475 13.97 30.7442 14.12 30.0509 14.12ZM30.0509 13.38C30.5642 13.38 31.0142 13.2667 31.4009 13.04C31.7942 12.8067 32.0975 12.4767 32.3109 12.05C32.5309 11.6167 32.6409 11.1 32.6409 10.5C32.6409 9.9 32.5309 9.38667 32.3109 8.96C32.0975 8.53333 31.7942 8.20667 31.4009 7.98C31.0142 7.74667 30.5642 7.63 30.0509 7.63C29.5375 7.63 29.0842 7.74667 28.6909 7.98C28.3042 8.20667 28.0009 8.53333 27.7809 8.96C27.5675 9.38667 27.4609 9.9 27.4609 10.5C27.4609 11.1 27.5675 11.6167 27.7809 12.05C28.0009 12.4767 28.3042 12.8067 28.6909 13.04C29.0842 13.2667 29.5375 13.38 30.0509 13.38ZM34.6627 14V9.04H35.4227L35.4727 9.93C35.6327 9.61667 35.8627 9.37 36.1627 9.19C36.4627 9.01 36.8027 8.92 37.1827 8.92C37.7693 8.92 38.236 9.1 38.5827 9.46C38.936 9.81333 39.1127 10.36 39.1127 11.1V14H38.2727V11.19C38.2727 10.1567 37.846 9.64 36.9927 9.64C36.566 9.64 36.2093 9.79667 35.9227 10.11C35.6427 10.4167 35.5027 10.8567 35.5027 11.43V14H34.6627ZM43.0353 14.12C42.6286 14.12 42.2653 14.0367 41.9453 13.87C41.632 13.7033 41.392 13.47 41.2253 13.17L41.1453 14H40.3853V6.8H41.2253V9.86C41.3853 9.62 41.612 9.40333 41.9053 9.21C42.2053 9.01667 42.5853 8.92 43.0453 8.92C43.5386 8.92 43.9686 9.03333 44.3353 9.26C44.702 9.48667 44.9853 9.79667 45.1853 10.19C45.392 10.5833 45.4953 11.03 45.4953 11.53C45.4953 12.03 45.392 12.4767 45.1853 12.87C44.9853 13.2567 44.6986 13.5633 44.3253 13.79C43.9586 14.01 43.5286 14.12 43.0353 14.12ZM42.9453 13.39C43.2786 13.39 43.572 13.3133 43.8253 13.16C44.0786 13 44.2786 12.78 44.4253 12.5C44.572 12.22 44.6453 11.8933 44.6453 11.52C44.6453 11.1467 44.572 10.82 44.4253 10.54C44.2786 10.26 44.0786 10.0433 43.8253 9.89C43.572 9.73 43.2786 9.65 42.9453 9.65C42.612 9.65 42.3186 9.73 42.0653 9.89C41.812 10.0433 41.612 10.26 41.4653 10.54C41.3186 10.82 41.2453 11.1467 41.2453 11.52C41.2453 11.8933 41.3186 12.22 41.4653 12.5C41.612 12.78 41.812 13 42.0653 13.16C42.3186 13.3133 42.612 13.39 42.9453 13.39ZM48.9246 14.12C48.4579 14.12 48.0379 14.0133 47.6646 13.8C47.2913 13.5867 46.9946 13.2867 46.7746 12.9C46.5613 12.5067 46.4546 12.0467 46.4546 11.52C46.4546 10.9933 46.5646 10.5367 46.7846 10.15C47.0046 9.75667 47.3013 9.45333 47.6746 9.24C48.0546 9.02667 48.4779 8.92 48.9446 8.92C49.4113 8.92 49.8313 9.02667 50.2046 9.24C50.5779 9.45333 50.8713 9.75667 51.0846 10.15C51.3046 10.5367 51.4146 10.9933 51.4146 11.52C51.4146 12.0467 51.3046 12.5067 51.0846 12.9C50.8646 13.2867 50.5646 13.5867 50.1846 13.8C49.8113 14.0133 49.3913 14.12 48.9246 14.12ZM48.9246 13.4C49.2113 13.4 49.4779 13.33 49.7246 13.19C49.9713 13.05 50.1713 12.84 50.3246 12.56C50.4779 12.28 50.5546 11.9333 50.5546 11.52C50.5546 11.1067 50.4779 10.76 50.3246 10.48C50.1779 10.2 49.9813 9.99 49.7346 9.85C49.4879 9.71 49.2246 9.64 48.9446 9.64C48.6579 9.64 48.3913 9.71 48.1446 9.85C47.8979 9.99 47.6979 10.2 47.5446 10.48C47.3913 10.76 47.3146 11.1067 47.3146 11.52C47.3146 11.9333 47.3913 12.28 47.5446 12.56C47.6979 12.84 47.8946 13.05 48.1346 13.19C48.3813 13.33 48.6446 13.4 48.9246 13.4ZM54.2326 14.12C53.8192 14.12 53.4759 14.05 53.2026 13.91C52.9292 13.77 52.7259 13.5833 52.5926 13.35C52.4592 13.1167 52.3926 12.8633 52.3926 12.59C52.3926 12.0833 52.5859 11.6933 52.9726 11.42C53.3592 11.1467 53.8859 11.01 54.5526 11.01H55.8926V10.95C55.8926 10.5167 55.7792 10.19 55.5526 9.97C55.3259 9.74333 55.0226 9.63 54.6426 9.63C54.3159 9.63 54.0326 9.71333 53.7926 9.88C53.5592 10.04 53.4126 10.2767 53.3526 10.59H52.4926C52.5259 10.23 52.6459 9.92667 52.8526 9.68C53.0659 9.43333 53.3292 9.24667 53.6426 9.12C53.9559 8.98667 54.2892 8.92 54.6426 8.92C55.3359 8.92 55.8559 9.10667 56.2026 9.48C56.5559 9.84667 56.7326 10.3367 56.7326 10.95V14H55.9826L55.9326 13.11C55.7926 13.39 55.5859 13.63 55.3126 13.83C55.0459 14.0233 54.6859 14.12 54.2326 14.12ZM54.3626 13.41C54.6826 13.41 54.9559 13.3267 55.1826 13.16C55.4159 12.9933 55.5926 12.7767 55.7126 12.51C55.8326 12.2433 55.8926 11.9633 55.8926 11.67V11.66H54.6226C54.1292 11.66 53.7792 11.7467 53.5726 11.92C53.3726 12.0867 53.2726 12.2967 53.2726 12.55C53.2726 12.81 53.3659 13.02 53.5526 13.18C53.7459 13.3333 54.0159 13.41 54.3626 13.41ZM57.9927 14V9.04H58.7527L58.8227 9.99C58.9761 9.66333 59.2094 9.40333 59.5227 9.21C59.8361 9.01667 60.2227 8.92 60.6827 8.92V9.8H60.4527C60.1594 9.8 59.8894 9.85333 59.6427 9.96C59.3961 10.06 59.1994 10.2333 59.0527 10.48C58.9061 10.7267 58.8327 11.0667 58.8327 11.5V14H57.9927ZM63.69 14.12C63.1967 14.12 62.7633 14.0067 62.39 13.78C62.0233 13.5533 61.7367 13.2433 61.53 12.85C61.33 12.4567 61.23 12.01 61.23 11.51C61.23 11.01 61.3333 10.5667 61.54 10.18C61.7467 9.78667 62.0333 9.48 62.4 9.26C62.7667 9.03333 63.2 8.92 63.7 8.92C64.1067 8.92 64.4667 9.00333 64.78 9.17C65.0933 9.33667 65.3367 9.57 65.51 9.87V6.8H66.35V14H65.59L65.51 13.18C65.35 13.42 65.12 13.6367 64.82 13.83C64.52 14.0233 64.1433 14.12 63.69 14.12ZM63.78 13.39C64.1133 13.39 64.4067 13.3133 64.66 13.16C64.92 13 65.12 12.78 65.26 12.5C65.4067 12.22 65.48 11.8933 65.48 11.52C65.48 11.1467 65.4067 10.82 65.26 10.54C65.12 10.26 64.92 10.0433 64.66 9.89C64.4067 9.73 64.1133 9.65 63.78 9.65C63.4533 9.65 63.16 9.73 62.9 9.89C62.6467 10.0433 62.4467 10.26 62.3 10.54C62.16 10.82 62.09 11.1467 62.09 11.52C62.09 11.8933 62.16 12.22 62.3 12.5C62.4467 12.78 62.6467 13 62.9 13.16C63.16 13.3133 63.4533 13.39 63.78 13.39ZM69.9493 14.12C69.476 14.12 69.056 14.0133 68.6893 13.8C68.3226 13.58 68.0326 13.2767 67.8193 12.89C67.6126 12.5033 67.5093 12.0467 67.5093 11.52C67.5093 11 67.6126 10.5467 67.8193 10.16C68.026 9.76667 68.3126 9.46333 68.6793 9.25C69.0526 9.03 69.4826 8.92 69.9693 8.92C70.4493 8.92 70.8626 9.03 71.2093 9.25C71.5626 9.46333 71.8326 9.74667 72.0193 10.1C72.206 10.4533 72.2993 10.8333 72.2993 11.24C72.2993 11.3133 72.296 11.3867 72.2893 11.46C72.2893 11.5333 72.2893 11.6167 72.2893 11.71H68.3393C68.3593 12.09 68.446 12.4067 68.5993 12.66C68.7593 12.9067 68.956 13.0933 69.1893 13.22C69.4293 13.3467 69.6826 13.41 69.9493 13.41C70.296 13.41 70.586 13.33 70.8193 13.17C71.0526 13.01 71.2226 12.7933 71.3293 12.52H72.1593C72.026 12.98 71.7693 13.3633 71.3893 13.67C71.016 13.97 70.536 14.12 69.9493 14.12ZM69.9493 9.63C69.5493 9.63 69.1926 9.75333 68.8793 10C68.5726 10.24 68.396 10.5933 68.3493 11.06H71.4693C71.4493 10.6133 71.296 10.2633 71.0093 10.01C70.7226 9.75667 70.3693 9.63 69.9493 9.63ZM75.6627 14.12C75.1693 14.12 74.736 14.0067 74.3627 13.78C73.996 13.5533 73.7093 13.2433 73.5027 12.85C73.3027 12.4567 73.2027 12.01 73.2027 11.51C73.2027 11.01 73.306 10.5667 73.5127 10.18C73.7193 9.78667 74.006 9.48 74.3727 9.26C74.7393 9.03333 75.1727 8.92 75.6727 8.92C76.0793 8.92 76.4393 9.00333 76.7527 9.17C77.066 9.33667 77.3093 9.57 77.4827 9.87V6.8H78.3227V14H77.5627L77.4827 13.18C77.3227 13.42 77.0927 13.6367 76.7927 13.83C76.4927 14.0233 76.116 14.12 75.6627 14.12ZM75.7527 13.39C76.086 13.39 76.3793 13.3133 76.6327 13.16C76.8927 13 77.0927 12.78 77.2327 12.5C77.3793 12.22 77.4527 11.8933 77.4527 11.52C77.4527 11.1467 77.3793 10.82 77.2327 10.54C77.0927 10.26 76.8927 10.0433 76.6327 9.89C76.3793 9.73 76.086 9.65 75.7527 9.65C75.426 9.65 75.1327 9.73 74.8727 9.89C74.6193 10.0433 74.4193 10.26 74.2727 10.54C74.1327 10.82 74.0627 11.1467 74.0627 11.52C74.0627 11.8933 74.1327 12.22 74.2727 12.5C74.4193 12.78 74.6193 13 74.8727 13.16C75.1327 13.3133 75.426 13.39 75.7527 13.39Z" fill="#EB5424"/>
<path d="M93.5 8L88.5 13" stroke="#EB5424" stroke-linecap="round" stroke-linejoin="round"/>
<path d="M88.5 8L93.5 13" stroke="#EB5424" stroke-linecap="round" stroke-linejoin="round"/>
<rect x="0.25" y="0.25" width="102.5" height="20.5" rx="7.75" stroke="#EB5424" stroke-width="0.5"/>
</svg>
