<svg width="430" height="483" viewBox="0 0 430 483" fill="none" xmlns="http://www.w3.org/2000/svg">
<g clip-path="url(#clip0_2657_2351)">
<path d="M243.219 371.619C345.839 371.619 429.028 288.429 429.028 185.809C429.028 83.1896 345.839 0 243.219 0C140.599 0 57.4097 83.1896 57.4097 185.809C57.4097 288.429 140.599 371.619 243.219 371.619Z" fill="#FAFAFA"/>
<path d="M364.643 83.0943H24.2658C23.5359 83.0787 22.9569 82.4744 22.9725 81.7445C22.9876 81.0366 23.5579 80.4663 24.2658 80.4512H364.643C365.373 80.4668 365.952 81.0711 365.936 81.801C365.921 82.5089 365.351 83.0792 364.643 83.0943Z" fill="#CACACA"/>
<path d="M248.643 127.631H154.549C147.482 127.631 141.752 133.36 141.752 140.428V140.428C141.752 147.495 147.482 153.225 154.549 153.225H248.643C255.71 153.225 261.44 147.495 261.44 140.428C261.44 133.36 255.71 127.631 248.643 127.631Z" fill="white"/>
<path d="M93.7641 178.82H309.428C316.495 178.82 322.224 184.55 322.224 191.617C322.224 198.685 316.495 204.414 309.428 204.414H93.7641C86.6966 204.414 80.9673 198.685 80.9673 191.617C80.9673 184.55 86.6966 178.82 93.7641 178.82Z" fill="white"/>
<path d="M93.7641 230.008H309.428C316.495 230.008 322.224 235.737 322.224 242.805C322.224 249.872 316.495 255.601 309.428 255.601H93.7641C86.6966 255.601 80.9673 249.872 80.9673 242.805C80.9673 235.737 86.6966 230.008 93.7641 230.008Z" fill="white"/>
<path d="M67.0387 481.173L66.5312 481.123C49.3104 479.347 33.7429 470.085 23.9644 455.799C21.286 451.818 19.1195 447.516 17.516 442.994L17.3618 442.563L17.8181 442.526C23.2659 442.088 28.8623 441.163 31.3485 440.723L15.3171 435.292L15.218 434.816C14.2675 430.351 16.1296 425.756 19.9207 423.212C23.722 420.546 28.7629 420.461 32.6523 422.997C34.3977 424.112 36.2233 425.216 37.9887 426.284C44.0555 429.954 50.3288 433.748 55.0322 438.941C62.1643 446.971 65.2904 457.792 63.5399 468.389L67.0387 481.173Z" fill="#F2F2F2"/>
<path d="M125.312 473.201L133.212 473.2L136.972 442.723L125.31 442.723L125.312 473.201Z" fill="#A0616A"/>
<path d="M125.033 481.443L149.33 481.442V481.135C149.33 475.912 145.096 471.678 139.873 471.678L135.434 468.311L127.154 471.678L125.033 471.678L125.033 481.443Z" fill="#2F2E41"/>
<path d="M61.9912 451.315L68.3109 456.056L89.608 433.933L80.2795 426.936L61.9912 451.315Z" fill="#A0616A"/>
<path d="M56.8218 457.741L76.2579 472.322L76.4423 472.076C79.5764 467.898 78.7305 461.97 74.5529 458.836L73.0229 453.478L64.3782 451.203L62.6815 449.93L56.8218 457.741Z" fill="#2F2E41"/>
<path d="M88.2561 330.181C88.2561 330.181 88.6922 342.078 89.2424 351.62C89.3326 353.185 85.6665 354.885 85.7614 356.587C85.8244 357.717 86.5135 358.815 86.5775 359.992C86.6451 361.235 85.6937 362.335 85.7614 363.621C85.8277 364.876 86.913 366.316 86.9785 367.602C87.6831 381.435 90.2372 397.994 87.6796 402.624C86.4192 404.905 70.353 436.511 70.353 436.511C70.353 436.511 79.3045 449.939 81.8621 445.463C85.2401 439.551 111.274 411.895 111.274 406.613C111.274 401.338 117.297 361.805 117.297 361.805L121.497 385.2L123.423 389.836L122.818 392.557L124.062 396.229L124.129 399.864L125.341 406.613C125.341 406.613 121.696 459.197 123.749 460.661C125.808 462.132 135.776 464.772 136.952 462.132C138.122 459.491 145.739 407.253 145.739 407.253C145.739 407.253 146.966 383.314 148.296 361.063C148.373 359.771 149.281 358.211 149.351 356.939C149.434 355.462 148.859 353.544 148.936 352.111C149.019 350.468 149.748 349.311 149.818 347.738C150.361 335.583 147.31 320.782 146.339 319.324C143.404 314.925 140.763 311.408 140.763 311.408C140.763 311.408 101.234 298.42 90.6715 311.617L88.2561 330.181Z" fill="#2F2E41"/>
<path d="M127.68 207.831L112.01 204.697L104.698 214.622C91.0526 228.038 90.847 239.88 93.2829 258.86V285.499L91.5199 303.357C91.5199 303.357 85.2788 316.412 91.7159 319.451C98.1529 322.491 140.435 322.231 144.472 321.018C148.509 319.805 145.01 318.315 143.949 312.661C141.958 302.039 143.29 307.163 143.427 303.781C145.392 255.271 140.815 235.355 140.351 230.12L132.381 215.666L127.68 207.831Z" fill="#3F3D56"/>
<path d="M210.271 246.946C208.638 250.04 204.806 251.225 201.711 249.592C201.381 249.417 201.067 249.215 200.773 248.985L166.932 270.473L167.03 258.774L199.904 239.696C202.245 237.071 206.272 236.841 208.897 239.183C211.094 241.142 211.662 244.351 210.271 246.946Z" fill="#A0616A"/>
<path d="M115.308 221.381L111.455 220.972C107.895 220.603 104.402 222.128 102.253 224.989C101.429 226.075 100.838 227.317 100.516 228.641L100.513 228.651C99.5468 232.635 101.063 236.81 104.36 239.245L117.666 249.055C127.005 261.674 144.555 270.045 165.142 276.846L197.141 256.973L185.823 243.265L163.874 255.028L131.249 229.773L131.23 229.758L118.813 221.758L115.308 221.381Z" fill="#3F3D56"/>
<path d="M122.386 200.135C132.478 200.135 140.659 191.954 140.659 181.861C140.659 171.769 132.478 163.588 122.386 163.588C112.294 163.588 104.112 171.769 104.112 181.861C104.112 191.954 112.294 200.135 122.386 200.135Z" fill="#A0616A"/>
<path d="M122.808 200.141C122.66 200.145 122.513 200.149 122.365 200.153C122.302 200.317 122.234 200.479 122.155 200.638L122.808 200.141Z" fill="#2F2E41"/>
<path d="M127.823 182.369C127.851 182.549 127.895 182.726 127.954 182.899C127.93 182.718 127.886 182.54 127.823 182.369Z" fill="#2F2E41"/>
<path d="M140.892 164.37C140.14 166.705 139.469 163.743 136.995 164.275C134.018 164.916 130.554 164.696 128.117 162.872C124.485 160.207 119.778 159.49 115.517 160.951C111.347 162.427 104.359 163.467 103.272 167.756C102.894 169.247 102.744 170.865 101.829 172.1C101.028 173.18 99.7647 173.796 98.708 174.627C95.1401 177.435 97.8671 185.41 99.5557 189.624C101.244 193.838 105.118 196.908 109.377 198.481C113.497 200.002 117.97 200.27 122.365 200.151C123.13 198.168 122.8 195.878 122.169 193.822C121.486 191.597 120.475 189.449 120.189 187.139C119.904 184.829 120.53 182.205 122.468 180.914C124.248 179.727 127.145 180.45 127.823 182.368C127.428 179.97 129.857 177.649 132.362 177.241C135.052 176.803 137.741 177.774 140.423 178.257C143.104 178.74 142.153 167.45 140.892 164.37Z" fill="#2F2E41"/>
<path d="M243.092 212.09C244.795 191.507 229.491 173.44 208.908 171.737C188.325 170.033 170.258 185.338 168.555 205.921C166.851 226.504 182.156 244.57 202.739 246.274C223.322 247.977 241.388 232.673 243.092 212.09Z" fill="#407BFF"/>
<path d="M215.646 193.425L205.823 203.248L196 193.425C194.41 191.835 191.832 191.835 190.241 193.425C188.651 195.015 188.651 197.593 190.241 199.183L200.065 209.007L190.241 218.83C188.653 220.422 188.655 223 190.247 224.588C191.836 226.175 194.41 226.175 196 224.588L205.823 214.765L215.646 224.588C217.238 226.177 219.816 226.175 221.405 224.583C222.991 222.993 222.991 220.419 221.405 218.83L211.582 209.007L221.405 199.183C222.995 197.593 222.995 195.015 221.405 193.425C219.815 191.835 217.236 191.835 215.646 193.425Z" fill="white"/>
<path d="M191.086 177.576C192.189 180.897 190.39 184.482 187.069 185.585C186.715 185.702 186.352 185.788 185.982 185.842L178.06 225.138L169.685 216.968L178.678 180.039C178.404 176.531 181.026 173.467 184.533 173.193C187.468 172.965 190.177 174.776 191.086 177.576Z" fill="#A0616A"/>
<path d="M106.896 228.401L103.934 230.899C101.203 233.212 99.8849 236.788 100.462 240.32C100.675 241.666 101.162 242.953 101.894 244.102L101.9 244.111C104.105 247.566 108.167 249.362 112.207 248.669L128.499 245.859C144.069 247.856 162.26 240.987 181.42 230.84L189.232 193.991L171.505 192.668L164.798 216.65L123.988 222.708L123.964 222.711L109.594 226.133L106.896 228.401Z" fill="#3F3D56"/>
<path d="M199.662 482.072L0.868209 482.297C0.387161 482.295 -0.0015535 481.904 4.6681e-06 481.423C0.0015482 480.944 0.389348 480.556 0.868209 480.555L199.662 480.33C200.143 480.332 200.532 480.723 200.53 481.204C200.529 481.683 200.141 482.071 199.662 482.072Z" fill="#CACACA"/>
<path d="M41.5344 66.3553C44.951 66.3553 47.7207 63.5239 47.7207 60.0312C47.7207 56.5385 44.951 53.707 41.5344 53.707C38.1178 53.707 35.3481 56.5385 35.3481 60.0312C35.3481 63.5239 38.1178 66.3553 41.5344 66.3553Z" fill="#3F3D56"/>
<path d="M62.9055 66.3553C66.3221 66.3553 69.0918 63.5239 69.0918 60.0312C69.0918 56.5385 66.3221 53.707 62.9055 53.707C59.4889 53.707 56.7192 56.5385 56.7192 60.0312C56.7192 63.5239 59.4889 66.3553 62.9055 66.3553Z" fill="#3F3D56"/>
<path d="M84.2761 66.3553C87.6927 66.3553 90.4624 63.5239 90.4624 60.0312C90.4624 56.5385 87.6927 53.707 84.2761 53.707C80.8595 53.707 78.0898 56.5385 78.0898 60.0312C78.0898 63.5239 80.8595 66.3553 84.2761 66.3553Z" fill="#3F3D56"/>
<path d="M108.644 65.0277C108.454 65.0277 108.264 64.9541 108.121 64.8076L103.947 60.5406C103.669 60.2563 103.669 59.8019 103.947 59.5176L108.121 55.2509C108.404 54.9623 108.868 54.9577 109.156 55.2395C109.445 55.522 109.45 55.9853 109.167 56.2739L105.493 60.0291L109.167 63.7846C109.45 64.0732 109.445 64.5365 109.156 64.8191C109.013 64.9584 108.829 65.0277 108.644 65.0277Z" fill="#3F3D56"/>
<path d="M115.659 65.0282C115.474 65.0282 115.289 64.9589 115.147 64.8196C114.858 64.5371 114.853 64.0741 115.136 63.7852L118.809 60.0296L115.136 56.2745C114.853 55.9859 114.858 55.5226 115.147 55.24C115.436 54.9571 115.899 54.9625 116.182 55.2515L120.356 59.5181C120.634 59.8025 120.634 60.2568 120.356 60.5411L116.182 64.8082C116.039 64.9546 115.849 65.0282 115.659 65.0282Z" fill="#3F3D56"/>
<path d="M334.028 54.4395H326.267C325.381 54.4395 324.665 55.1563 324.665 56.0415V63.8104C324.665 64.6956 325.381 65.4124 326.267 65.4124H334.028C334.913 65.4124 335.638 64.6956 335.638 63.8104V56.0415C335.638 55.1563 334.913 54.4395 334.028 54.4395Z" fill="#3F3D56"/>
<path d="M315.008 54.4395H307.247C306.361 54.4395 305.645 55.1563 305.645 56.0415V63.8104C305.645 64.6956 306.361 65.4124 307.247 65.4124H315.008C315.893 65.4124 316.618 64.6956 316.618 63.8104V56.0415C316.618 55.1563 315.893 54.4395 315.008 54.4395Z" fill="#3F3D56"/>
<path d="M351.951 54.8047H344.189C343.304 54.8047 342.587 55.5216 342.587 56.4067V64.1756C342.587 65.0608 343.304 65.7777 344.189 65.7777H351.951C352.836 65.7777 353.56 65.0608 353.56 64.1756V56.4067C353.56 55.5216 352.836 54.8047 351.951 54.8047Z" fill="#3F3D56"/>
<path d="M234.963 57.7598H172.921C171.839 57.7598 170.968 58.6376 170.968 59.713C170.968 60.7884 171.839 61.6662 172.921 61.6662H234.963C236.038 61.6662 236.916 60.7883 236.916 59.713C236.916 58.6377 236.038 57.7598 234.963 57.7598Z" fill="#3F3D56"/>
</g>
<defs>
<clipPath id="clip0_2657_2351">
<rect width="429.028" height="482.298" fill="white"/>
</clipPath>
</defs>
</svg>
