<svg width="83" height="21" viewBox="0 0 83 21" fill="none" xmlns="http://www.w3.org/2000/svg">
<path d="M10.92 14.12C10.2333 14.12 9.63 13.97 9.11 13.67C8.59667 13.3633 8.19333 12.9367 7.9 12.39C7.61333 11.8433 7.47 11.2133 7.47 10.5C7.47 9.78667 7.61333 9.16 7.9 8.62C8.19333 8.07333 8.59667 7.64667 9.11 7.34C9.63 7.03333 10.2333 6.88 10.92 6.88C11.6133 6.88 12.2167 7.03333 12.73 7.34C13.25 7.64667 13.6533 8.07333 13.94 8.62C14.2267 9.16 14.37 9.78667 14.37 10.5C14.37 11.2133 14.2267 11.8433 13.94 12.39C13.6533 12.9367 13.25 13.3633 12.73 13.67C12.2167 13.97 11.6133 14.12 10.92 14.12ZM10.92 13.38C11.4333 13.38 11.8833 13.2667 12.27 13.04C12.6633 12.8067 12.9667 12.4767 13.18 12.05C13.4 11.6167 13.51 11.1 13.51 10.5C13.51 9.9 13.4 9.38667 13.18 8.96C12.9667 8.53333 12.6633 8.20667 12.27 7.98C11.8833 7.74667 11.4333 7.63 10.92 7.63C10.4067 7.63 9.95333 7.74667 9.56 7.98C9.17333 8.20667 8.87 8.53333 8.65 8.96C8.43667 9.38667 8.33 9.9 8.33 10.5C8.33 11.1 8.43667 11.6167 8.65 12.05C8.87 12.4767 9.17333 12.8067 9.56 13.04C9.95333 13.2667 10.4067 13.38 10.92 13.38ZM15.5318 14V9.04H16.2918L16.3418 9.93C16.5018 9.61667 16.7318 9.37 17.0318 9.19C17.3318 9.01 17.6718 8.92 18.0518 8.92C18.6385 8.92 19.1051 9.1 19.4518 9.46C19.8051 9.81333 19.9818 10.36 19.9818 11.1V14H19.1418V11.19C19.1418 10.1567 18.7151 9.64 17.8618 9.64C17.4351 9.64 17.0785 9.79667 16.7918 10.11C16.5118 10.4167 16.3718 10.8567 16.3718 11.43V14H15.5318ZM23.9045 14.12C23.4978 14.12 23.1345 14.0367 22.8145 13.87C22.5011 13.7033 22.2611 13.47 22.0945 13.17L22.0145 14H21.2545V6.8H22.0945V9.86C22.2545 9.62 22.4811 9.40333 22.7745 9.21C23.0745 9.01667 23.4545 8.92 23.9145 8.92C24.4078 8.92 24.8378 9.03333 25.2045 9.26C25.5711 9.48667 25.8545 9.79667 26.0545 10.19C26.2611 10.5833 26.3645 11.03 26.3645 11.53C26.3645 12.03 26.2611 12.4767 26.0545 12.87C25.8545 13.2567 25.5678 13.5633 25.1945 13.79C24.8278 14.01 24.3978 14.12 23.9045 14.12ZM23.8145 13.39C24.1478 13.39 24.4411 13.3133 24.6945 13.16C24.9478 13 25.1478 12.78 25.2945 12.5C25.4411 12.22 25.5145 11.8933 25.5145 11.52C25.5145 11.1467 25.4411 10.82 25.2945 10.54C25.1478 10.26 24.9478 10.0433 24.6945 9.89C24.4411 9.73 24.1478 9.65 23.8145 9.65C23.4811 9.65 23.1878 9.73 22.9345 9.89C22.6811 10.0433 22.4811 10.26 22.3345 10.54C22.1878 10.82 22.1145 11.1467 22.1145 11.52C22.1145 11.8933 22.1878 12.22 22.3345 12.5C22.4811 12.78 22.6811 13 22.9345 13.16C23.1878 13.3133 23.4811 13.39 23.8145 13.39ZM29.7938 14.12C29.3271 14.12 28.9071 14.0133 28.5338 13.8C28.1604 13.5867 27.8638 13.2867 27.6438 12.9C27.4304 12.5067 27.3238 12.0467 27.3238 11.52C27.3238 10.9933 27.4338 10.5367 27.6538 10.15C27.8738 9.75667 28.1704 9.45333 28.5438 9.24C28.9238 9.02667 29.3471 8.92 29.8138 8.92C30.2804 8.92 30.7004 9.02667 31.0738 9.24C31.4471 9.45333 31.7404 9.75667 31.9538 10.15C32.1738 10.5367 32.2838 10.9933 32.2838 11.52C32.2838 12.0467 32.1738 12.5067 31.9538 12.9C31.7338 13.2867 31.4338 13.5867 31.0538 13.8C30.6804 14.0133 30.2604 14.12 29.7938 14.12ZM29.7938 13.4C30.0804 13.4 30.3471 13.33 30.5938 13.19C30.8404 13.05 31.0404 12.84 31.1938 12.56C31.3471 12.28 31.4238 11.9333 31.4238 11.52C31.4238 11.1067 31.3471 10.76 31.1938 10.48C31.0471 10.2 30.8504 9.99 30.6038 9.85C30.3571 9.71 30.0938 9.64 29.8138 9.64C29.5271 9.64 29.2604 9.71 29.0138 9.85C28.7671 9.99 28.5671 10.2 28.4138 10.48C28.2604 10.76 28.1838 11.1067 28.1838 11.52C28.1838 11.9333 28.2604 12.28 28.4138 12.56C28.5671 12.84 28.7638 13.05 29.0038 13.19C29.2504 13.33 29.5138 13.4 29.7938 13.4ZM35.1017 14.12C34.6884 14.12 34.3451 14.05 34.0717 13.91C33.7984 13.77 33.5951 13.5833 33.4617 13.35C33.3284 13.1167 33.2617 12.8633 33.2617 12.59C33.2617 12.0833 33.4551 11.6933 33.8417 11.42C34.2284 11.1467 34.7551 11.01 35.4217 11.01H36.7617V10.95C36.7617 10.5167 36.6484 10.19 36.4217 9.97C36.1951 9.74333 35.8917 9.63 35.5117 9.63C35.1851 9.63 34.9017 9.71333 34.6617 9.88C34.4284 10.04 34.2817 10.2767 34.2217 10.59H33.3617C33.3951 10.23 33.5151 9.92667 33.7217 9.68C33.9351 9.43333 34.1984 9.24667 34.5117 9.12C34.8251 8.98667 35.1584 8.92 35.5117 8.92C36.2051 8.92 36.7251 9.10667 37.0717 9.48C37.4251 9.84667 37.6017 10.3367 37.6017 10.95V14H36.8517L36.8017 13.11C36.6617 13.39 36.4551 13.63 36.1817 13.83C35.9151 14.0233 35.5551 14.12 35.1017 14.12ZM35.2317 13.41C35.5517 13.41 35.8251 13.3267 36.0517 13.16C36.2851 12.9933 36.4617 12.7767 36.5817 12.51C36.7017 12.2433 36.7617 11.9633 36.7617 11.67V11.66H35.4917C34.9984 11.66 34.6484 11.7467 34.4417 11.92C34.2417 12.0867 34.1417 12.2967 34.1417 12.55C34.1417 12.81 34.2351 13.02 34.4217 13.18C34.6151 13.3333 34.8851 13.41 35.2317 13.41ZM38.8619 14V9.04H39.6219L39.6919 9.99C39.8452 9.66333 40.0785 9.40333 40.3919 9.21C40.7052 9.01667 41.0919 8.92 41.5519 8.92V9.8H41.3219C41.0285 9.8 40.7585 9.85333 40.5119 9.96C40.2652 10.06 40.0685 10.2333 39.9219 10.48C39.7752 10.7267 39.7019 11.0667 39.7019 11.5V14H38.8619ZM44.5591 14.12C44.0658 14.12 43.6325 14.0067 43.2591 13.78C42.8925 13.5533 42.6058 13.2433 42.3991 12.85C42.1991 12.4567 42.0991 12.01 42.0991 11.51C42.0991 11.01 42.2025 10.5667 42.4091 10.18C42.6158 9.78667 42.9025 9.48 43.2691 9.26C43.6358 9.03333 44.0691 8.92 44.5691 8.92C44.9758 8.92 45.3358 9.00333 45.6491 9.17C45.9625 9.33667 46.2058 9.57 46.3791 9.87V6.8H47.2191V14H46.4591L46.3791 13.18C46.2191 13.42 45.9891 13.6367 45.6891 13.83C45.3891 14.0233 45.0125 14.12 44.5591 14.12ZM44.6491 13.39C44.9825 13.39 45.2758 13.3133 45.5291 13.16C45.7891 13 45.9891 12.78 46.1291 12.5C46.2758 12.22 46.3491 11.8933 46.3491 11.52C46.3491 11.1467 46.2758 10.82 46.1291 10.54C45.9891 10.26 45.7891 10.0433 45.5291 9.89C45.2758 9.73 44.9825 9.65 44.6491 9.65C44.3225 9.65 44.0291 9.73 43.7691 9.89C43.5158 10.0433 43.3158 10.26 43.1691 10.54C43.0291 10.82 42.9591 11.1467 42.9591 11.52C42.9591 11.8933 43.0291 12.22 43.1691 12.5C43.3158 12.78 43.5158 13 43.7691 13.16C44.0291 13.3133 44.3225 13.39 44.6491 13.39ZM50.8184 14.12C50.3451 14.12 49.9251 14.0133 49.5584 13.8C49.1918 13.58 48.9018 13.2767 48.6884 12.89C48.4818 12.5033 48.3784 12.0467 48.3784 11.52C48.3784 11 48.4818 10.5467 48.6884 10.16C48.8951 9.76667 49.1818 9.46333 49.5484 9.25C49.9218 9.03 50.3518 8.92 50.8384 8.92C51.3184 8.92 51.7318 9.03 52.0784 9.25C52.4318 9.46333 52.7018 9.74667 52.8884 10.1C53.0751 10.4533 53.1684 10.8333 53.1684 11.24C53.1684 11.3133 53.1651 11.3867 53.1584 11.46C53.1584 11.5333 53.1584 11.6167 53.1584 11.71H49.2084C49.2284 12.09 49.3151 12.4067 49.4684 12.66C49.6284 12.9067 49.8251 13.0933 50.0584 13.22C50.2984 13.3467 50.5518 13.41 50.8184 13.41C51.1651 13.41 51.4551 13.33 51.6884 13.17C51.9218 13.01 52.0918 12.7933 52.1984 12.52H53.0284C52.8951 12.98 52.6384 13.3633 52.2584 13.67C51.8851 13.97 51.4051 14.12 50.8184 14.12ZM50.8184 9.63C50.4184 9.63 50.0618 9.75333 49.7484 10C49.4418 10.24 49.2651 10.5933 49.2184 11.06H52.3384C52.3184 10.6133 52.1651 10.2633 51.8784 10.01C51.5918 9.75667 51.2384 9.63 50.8184 9.63ZM56.5318 14.12C56.0385 14.12 55.6051 14.0067 55.2318 13.78C54.8651 13.5533 54.5785 13.2433 54.3718 12.85C54.1718 12.4567 54.0718 12.01 54.0718 11.51C54.0718 11.01 54.1751 10.5667 54.3818 10.18C54.5885 9.78667 54.8751 9.48 55.2418 9.26C55.6085 9.03333 56.0418 8.92 56.5418 8.92C56.9485 8.92 57.3085 9.00333 57.6218 9.17C57.9351 9.33667 58.1785 9.57 58.3518 9.87V6.8H59.1918V14H58.4318L58.3518 13.18C58.1918 13.42 57.9618 13.6367 57.6618 13.83C57.3618 14.0233 56.9851 14.12 56.5318 14.12ZM56.6218 13.39C56.9551 13.39 57.2485 13.3133 57.5018 13.16C57.7618 13 57.9618 12.78 58.1018 12.5C58.2485 12.22 58.3218 11.8933 58.3218 11.52C58.3218 11.1467 58.2485 10.82 58.1018 10.54C57.9618 10.26 57.7618 10.0433 57.5018 9.89C57.2485 9.73 56.9551 9.65 56.6218 9.65C56.2951 9.65 56.0018 9.73 55.7418 9.89C55.4885 10.0433 55.2885 10.26 55.1418 10.54C55.0018 10.82 54.9318 11.1467 54.9318 11.52C54.9318 11.8933 55.0018 12.22 55.1418 12.5C55.2885 12.78 55.4885 13 55.7418 13.16C56.0018 13.3133 56.2951 13.39 56.6218 13.39Z" fill="#03BA82"/>
<path d="M74.3334 8L69.7501 12.5833L67.6667 10.5" stroke="#03BA82" stroke-linecap="round" stroke-linejoin="round"/>
<rect x="0.25" y="0.25" width="82.5" height="20.5" rx="7.75" stroke="#03BA82" stroke-width="0.5"/>
</svg>
