<svg width="50" height="50" viewBox="0 0 50 50" fill="none" xmlns="http://www.w3.org/2000/svg">
<path d="M25.0057 27.365C25.6957 27.365 26.2844 27.1313 26.7719 26.6637C27.2594 26.1962 27.5031 25.6188 27.5031 24.9313C27.5031 24.2438 27.2575 23.6617 26.7661 23.185C26.2748 22.7083 25.6842 22.47 24.9943 22.47C24.3043 22.47 23.7156 22.7083 23.2281 23.185C22.7406 23.6617 22.4969 24.2438 22.4969 24.9313C22.4969 25.6188 22.7425 26.1962 23.2339 26.6637C23.7252 27.1313 24.3158 27.365 25.0057 27.365ZM25 34.295C25.8813 34.0017 26.7813 33.5387 27.7 32.9062C28.6188 32.2738 29.3594 31.5542 29.9219 30.7475L27.3344 28.3275C26.9781 28.5292 26.6016 28.6942 26.2048 28.8225C25.8081 28.9508 25.4064 29.015 25 29.015C23.8375 29.015 22.8484 28.6208 22.0328 27.8325C21.2172 27.0442 20.8094 26.0771 20.8094 24.9313C20.8094 23.7854 21.2172 22.8138 22.0328 22.0162C22.8484 21.2188 23.8375 20.82 25 20.82C26.1625 20.82 27.1516 21.2188 27.9672 22.0162C28.7828 22.8138 29.1906 23.79 29.1906 24.945C29.1906 25.33 29.1344 25.715 29.0219 26.1C28.9094 26.485 28.7313 26.8333 28.4875 27.145L30.85 29.345C31.3 28.5567 31.6563 27.6898 31.9188 26.7444C32.1813 25.7989 32.3125 24.8325 32.3125 23.845V18.3867L25 15.7875L17.6875 18.3867V23.845C17.6875 26.2467 18.3672 28.4146 19.7266 30.3488C21.0859 32.2829 22.8438 33.5983 25 34.295ZM25 36C22.375 35.3583 20.2188 33.8687 18.5313 31.5312C16.8438 29.1938 16 26.6317 16 23.845V17.3L25 14L34 17.3V23.845C34 26.6317 33.1563 29.1938 31.4688 31.5312C29.7813 33.8687 27.625 35.3583 25 36Z" fill="#5177FF"/>
</svg>
