<svg width="24" height="24" viewBox="0 0 24 24" fill="none" xmlns="http://www.w3.org/2000/svg">
<path d="M12.0057 14.15C12.6957 14.15 13.2844 13.9375 13.7719 13.5125C14.2594 13.0875 14.5031 12.5625 14.5031 11.9375C14.5031 11.3125 14.2575 10.7833 13.7661 10.35C13.2748 9.91667 12.6842 9.7 11.9943 9.7C11.3043 9.7 10.7156 9.91667 10.2281 10.35C9.74063 10.7833 9.49688 11.3125 9.49688 11.9375C9.49688 12.5625 9.74254 13.0875 10.2339 13.5125C10.7252 13.9375 11.3158 14.15 12.0057 14.15ZM12 20.45C12.8813 20.1833 13.7813 19.7625 14.7 19.1875C15.6188 18.6125 16.3594 17.9583 16.9219 17.225L14.3344 15.025C13.9781 15.2083 13.6016 15.3583 13.2048 15.475C12.8081 15.5917 12.4064 15.65 12 15.65C10.8375 15.65 9.84844 15.2917 9.03281 14.575C8.21719 13.8583 7.80938 12.9792 7.80938 11.9375C7.80938 10.8958 8.21719 10.0125 9.03281 9.2875C9.84844 8.5625 10.8375 8.2 12 8.2C13.1625 8.2 14.1516 8.5625 14.9672 9.2875C15.7828 10.0125 16.1906 10.9 16.1906 11.95C16.1906 12.3 16.1344 12.65 16.0219 13C15.9094 13.35 15.7313 13.6667 15.4875 13.95L17.85 15.95C18.3 15.2333 18.6563 14.4453 18.9188 13.5858C19.1813 12.7263 19.3125 11.8477 19.3125 10.95V5.9879L12 3.625L4.6875 5.9879V10.95C4.6875 13.1333 5.36719 15.1042 6.72656 16.8625C8.08594 18.6208 9.84375 19.8167 12 20.45ZM12 22C9.375 21.4167 7.21875 20.0625 5.53125 17.9375C3.84375 15.8125 3 13.4833 3 10.95V5L12 2L21 5V10.95C21 13.4833 20.1563 15.8125 18.4688 17.9375C16.7813 20.0625 14.625 21.4167 12 22Z" fill="#717171"/>
</svg>
