<svg width="50" height="50" viewBox="0 0 50 50" fill="none" xmlns="http://www.w3.org/2000/svg">
<g clip-path="url(#clip0_2028_3246)">
<path d="M33.75 12.75H16.25C14.875 12.75 13.75 13.875 13.75 15.25V32.75C13.75 34.125 14.875 35.25 16.25 35.25H33.75C35.125 35.25 36.25 34.125 36.25 32.75V15.25C36.25 13.875 35.125 12.75 33.75 12.75ZM26.25 30.25H20C19.3125 30.25 18.75 29.6875 18.75 29C18.75 28.3125 19.3125 27.75 20 27.75H26.25C26.9375 27.75 27.5 28.3125 27.5 29C27.5 29.6875 26.9375 30.25 26.25 30.25ZM30 25.25H20C19.3125 25.25 18.75 24.6875 18.75 24C18.75 23.3125 19.3125 22.75 20 22.75H30C30.6875 22.75 31.25 23.3125 31.25 24C31.25 24.6875 30.6875 25.25 30 25.25ZM30 20.25H20C19.3125 20.25 18.75 19.6875 18.75 19C18.75 18.3125 19.3125 17.75 20 17.75H30C30.6875 17.75 31.25 18.3125 31.25 19C31.25 19.6875 30.6875 20.25 30 20.25Z" fill="#5177FF"/>
</g>
<defs>
<clipPath id="clip0_2028_3246">
<rect width="30" height="30" fill="white" transform="translate(10 9)"/>
</clipPath>
</defs>
</svg>
