<svg width="20" height="20" viewBox="0 0 20 20" fill="none" xmlns="http://www.w3.org/2000/svg">
<path d="M17.5 5.77083V16.25C17.5 16.5833 17.375 16.875 17.125 17.125C16.875 17.375 16.5833 17.5 16.25 17.5H3.75C3.41667 17.5 3.125 17.375 2.875 17.125C2.625 16.875 2.5 16.5833 2.5 16.25V3.75C2.5 3.41667 2.625 3.125 2.875 2.875C3.125 2.625 3.41667 2.5 3.75 2.5H14.2292L17.5 5.77083ZM16.25 6.33333L13.6667 3.75H3.75V16.25H16.25V6.33333ZM9.9951 14.8958C10.5956 14.8958 11.1076 14.6857 11.5312 14.2653C11.9549 13.845 12.1667 13.3346 12.1667 12.7341C12.1667 12.1336 11.9565 11.6215 11.5361 11.1979C11.1158 10.7743 10.6054 10.5625 10.0049 10.5625C9.40441 10.5625 8.89236 10.7727 8.46875 11.193C8.04514 11.6134 7.83333 12.1238 7.83333 12.7243C7.83333 13.3248 8.04351 13.8368 8.46385 14.2604C8.88419 14.684 9.3946 14.8958 9.9951 14.8958ZM4.85417 7.83333H12.3125V4.85417H4.85417V7.83333ZM3.75 6.33333V16.25V3.75V6.33333Z" fill="#5177FF"/>
</svg>
