<svg width="20" height="20" viewBox="0 0 20 20" fill="none" xmlns="http://www.w3.org/2000/svg">
<g clip-path="url(#clip0_2250_3729)">
<path d="M9.2252 10.7083C9.86686 9.55 11.1002 8.86667 11.8169 7.84167C12.5752 6.76667 12.1502 4.75833 10.0002 4.75833C8.59186 4.75833 7.9002 5.825 7.60853 6.70833L5.4502 5.8C6.04186 4.025 7.6502 2.5 9.99186 2.5C11.9502 2.5 13.2919 3.39167 13.9752 4.50833C14.5585 5.46667 14.9002 7.25833 14.0002 8.59167C13.0002 10.0667 12.0419 10.5167 11.5252 11.4667C11.3169 11.85 11.2335 12.1 11.2335 13.3333H8.8252C8.81686 12.6833 8.71686 11.625 9.2252 10.7083ZM11.6669 16.6667C11.6669 17.5833 10.9169 18.3333 10.0002 18.3333C9.08353 18.3333 8.33353 17.5833 8.33353 16.6667C8.33353 15.75 9.08353 15 10.0002 15C10.9169 15 11.6669 15.75 11.6669 16.6667Z" fill="#4B475C"/>
</g>
<defs>
<clipPath id="clip0_2250_3729">
<rect width="20" height="20" fill="white"/>
</clipPath>
</defs>
</svg>
