<svg width="24" height="24" viewBox="0 0 24 24" fill="none" xmlns="http://www.w3.org/2000/svg">
<path d="M18.25 10.7492C18.675 10.7492 19.0875 10.7992 19.5 10.8617V6.47422C19.5 5.47422 18.9125 4.57422 18 4.18672L11.125 1.18672C10.4875 0.911719 9.7625 0.911719 9.125 1.18672L2.25 4.18672C1.3375 4.58672 0.75 5.48672 0.75 6.47422V10.9742C0.75 16.6492 4.75 21.9617 10.125 23.2492C10.8125 23.0867 11.475 22.8492 12.125 22.5617C11.2625 21.3367 10.75 19.8492 10.75 18.2492C10.75 14.1117 14.1125 10.7492 18.25 10.7492Z" fill="#6367F9"/>
<path d="M18.25 13.25C15.4875 13.25 13.25 15.4875 13.25 18.25C13.25 21.0125 15.4875 23.25 18.25 23.25C21.0125 23.25 23.25 21.0125 23.25 18.25C23.25 15.4875 21.0125 13.25 18.25 13.25ZM18.25 14.975C19.025 14.975 19.65 15.6125 19.65 16.375C19.65 17.1375 19.0125 17.775 18.25 17.775C17.4875 17.775 16.85 17.1375 16.85 16.375C16.85 15.6125 17.475 14.975 18.25 14.975ZM18.25 21.6875C17.0875 21.6875 16.075 21.1125 15.45 20.225C15.5125 19.325 17.3375 18.875 18.25 18.875C19.1625 18.875 20.9875 19.325 21.05 20.225C20.425 21.1125 19.4125 21.6875 18.25 21.6875Z" fill="#6367F9"/>
</svg>
