<svg width="30" height="30" viewBox="0 0 30 30" fill="none" xmlns="http://www.w3.org/2000/svg">
<g clip-path="url(#clip0_3383_15726)">
<path d="M12.875 9.625C12.3875 10.1125 12.3875 10.8875 12.875 11.375L15.25 13.75H3.75C3.0625 13.75 2.5 14.3125 2.5 15C2.5 15.6875 3.0625 16.25 3.75 16.25H15.25L12.875 18.625C12.3875 19.1125 12.3875 19.8875 12.875 20.375C13.3625 20.8625 14.1375 20.8625 14.625 20.375L19.1125 15.8875C19.6 15.4 19.6 14.6125 19.1125 14.125L14.625 9.625C14.1375 9.1375 13.3625 9.1375 12.875 9.625ZM25 23.75H16.25C15.5625 23.75 15 24.3125 15 25C15 25.6875 15.5625 26.25 16.25 26.25H25C26.375 26.25 27.5 25.125 27.5 23.75V6.25C27.5 4.875 26.375 3.75 25 3.75H16.25C15.5625 3.75 15 4.3125 15 5C15 5.6875 15.5625 6.25 16.25 6.25H25V23.75Z" fill="#5177FF"/>
</g>
<defs>
<clipPath id="clip0_3383_15726">
<rect width="30" height="30" fill="white"/>
</clipPath>
</defs>
</svg>
