<svg width="24" height="24" viewBox="0 0 24 24" fill="none" xmlns="http://www.w3.org/2000/svg">
<path d="M18.25 10.7502C18.675 10.7502 19.0875 10.8002 19.5 10.8627V6.47519C19.5 5.47519 18.9125 4.57519 18 4.18769L11.125 1.1877C10.4875 0.912695 9.7625 0.912695 9.125 1.1877L2.25 4.18769C1.3375 4.58769 0.75 5.48769 0.75 6.47519V10.9752C0.75 16.6502 4.75 21.9627 10.125 23.2502C10.8125 23.0877 11.475 22.8502 12.125 22.5627C11.2625 21.3377 10.75 19.8502 10.75 18.2502C10.75 14.1127 14.1125 10.7502 18.25 10.7502Z" fill="#6367F9"/>
<path d="M18.25 13.25C15.4875 13.25 13.25 15.4875 13.25 18.25C13.25 21.0125 15.4875 23.25 18.25 23.25C21.0125 23.25 23.25 21.0125 23.25 18.25C23.25 15.4875 21.0125 13.25 18.25 13.25ZM18.25 14.975C19.025 14.975 19.65 15.6125 19.65 16.375C19.65 17.1375 19.0125 17.775 18.25 17.775C17.4875 17.775 16.85 17.1375 16.85 16.375C16.85 15.6125 17.475 14.975 18.25 14.975ZM18.25 21.6875C17.0875 21.6875 16.075 21.1125 15.45 20.225C15.5125 19.325 17.3375 18.875 18.25 18.875C19.1625 18.875 20.9875 19.325 21.05 20.225C20.425 21.1125 19.4125 21.6875 18.25 21.6875Z" fill="#6367F9"/>
</svg>
