<svg width="30" height="30" viewBox="0 0 30 30" fill="none" xmlns="http://www.w3.org/2000/svg">
<g clip-path="url(#clip0_4237_4061)">
<path d="M15 21.1562C15.25 21.1562 15.4688 21.0625 15.6562 20.875C15.8438 20.6875 15.9375 20.4688 15.9375 20.2188C15.9375 19.9688 15.8438 19.75 15.6562 19.5625C15.4688 19.375 15.25 19.2812 15 19.2812C14.75 19.2812 14.5312 19.375 14.3438 19.5625C14.1562 19.75 14.0625 19.9688 14.0625 20.2188C14.0625 20.4688 14.1562 20.6875 14.3438 20.875C14.5312 21.0625 14.75 21.1562 15 21.1562ZM15 15.9375C15.25 15.9375 15.4688 15.8438 15.6562 15.6562C15.8438 15.4688 15.9375 15.25 15.9375 15C15.9375 14.75 15.8438 14.5312 15.6562 14.3438C15.4688 14.1562 15.25 14.0625 15 14.0625C14.75 14.0625 14.5312 14.1562 14.3438 14.3438C14.1562 14.5312 14.0625 14.75 14.0625 15C14.0625 15.25 14.1562 15.4688 14.3438 15.6562C14.5312 15.8438 14.75 15.9375 15 15.9375ZM15 10.7188C15.25 10.7188 15.4688 10.625 15.6562 10.4375C15.8438 10.25 15.9375 10.0312 15.9375 9.78125C15.9375 9.53125 15.8438 9.3125 15.6562 9.125C15.4688 8.9375 15.25 8.84375 15 8.84375C14.75 8.84375 14.5312 8.9375 14.3438 9.125C14.1562 9.3125 14.0625 9.53125 14.0625 9.78125C14.0625 10.0312 14.1562 10.25 14.3438 10.4375C14.5312 10.625 14.75 10.7188 15 10.7188ZM25.625 25H4.375C3.85938 25 3.41797 24.8164 3.05078 24.4492C2.68359 24.082 2.5 23.6406 2.5 23.125V18.3438C3.27083 18.1771 3.91146 17.7865 4.42188 17.1719C4.93229 16.5573 5.1875 15.8333 5.1875 15C5.1875 14.1667 4.93229 13.4375 4.42188 12.8125C3.91146 12.1875 3.27083 11.8021 2.5 11.6562V6.875C2.5 6.35938 2.68359 5.91797 3.05078 5.55078C3.41797 5.18359 3.85938 5 4.375 5H25.625C26.1406 5 26.582 5.18359 26.9492 5.55078C27.3164 5.91797 27.5 6.35938 27.5 6.875V11.6562C26.7292 11.8021 26.0885 12.1875 25.5781 12.8125C25.0677 13.4375 24.8125 14.1667 24.8125 15C24.8125 15.8333 25.0677 16.5573 25.5781 17.1719C26.0885 17.7865 26.7292 18.1771 27.5 18.3438V23.125C27.5 23.6406 27.3164 24.082 26.9492 24.4492C26.582 24.8164 26.1406 25 25.625 25ZM25.625 23.125V19.7188C24.8333 19.1771 24.1875 18.5 23.6875 17.6875C23.1875 16.875 22.9375 15.9792 22.9375 15C22.9375 14.0208 23.1875 13.125 23.6875 12.3125C24.1875 11.5 24.8333 10.8229 25.625 10.2812V6.875H4.375V10.2812C5.1875 10.8229 5.83854 11.5 6.32812 12.3125C6.81771 13.125 7.0625 14.0208 7.0625 15C7.0625 15.9792 6.81771 16.875 6.32812 17.6875C5.83854 18.5 5.1875 19.1771 4.375 19.7188V23.125H25.625Z" fill="#5177FF"/>
</g>
<defs>
<clipPath id="clip0_4237_4061">
<rect width="30" height="30" fill="white"/>
</clipPath>
</defs>
</svg>
