<svg width="22" height="22" viewBox="0 0 22 22" fill="none" xmlns="http://www.w3.org/2000/svg">
<g clip-path="url(#clip0_3352_4806)">
<path d="M19.25 1.83398L17.4167 3.66732M17.4167 3.66732L20.1667 6.41732L16.9583 9.62565L14.2083 6.87565M17.4167 3.66732L14.2083 6.87565M10.4408 10.6432C10.9142 11.1102 11.2904 11.6662 11.5479 12.2792C11.8055 12.8922 11.9392 13.5501 11.9414 14.2151C11.9437 14.88 11.8144 15.5388 11.5609 16.1535C11.3075 16.7682 10.935 17.3268 10.4648 17.797C9.99464 18.2671 9.4361 18.6396 8.82137 18.8931C8.20663 19.1465 7.54784 19.2758 6.88292 19.2736C6.218 19.2714 5.56009 19.1376 4.94707 18.8801C4.33404 18.6226 3.77802 18.2463 3.31101 17.773C2.39263 16.8221 1.88446 15.5486 1.89594 14.2267C1.90743 12.9048 2.43766 11.6402 3.37242 10.7055C4.30719 9.77072 5.5717 9.24049 6.89361 9.229C8.21552 9.21752 9.48906 9.72569 10.4399 10.6441L10.4408 10.6432ZM10.4408 10.6432L14.2083 6.87565" stroke="#717171" stroke-width="1.5" stroke-linecap="round" stroke-linejoin="round"/>
</g>
<defs>
<clipPath id="clip0_3352_4806">
<rect width="22" height="22" fill="white"/>
</clipPath>
</defs>
</svg>
